M48
;DRILL file {KiCad 4.0.7} date 08/30/18 10:37:56
;FORMAT={-:-/ absolute / metric / decimal}
FMAT,2
METRIC,TZ
T1C0.400
T2C0.762
T3C1.000
%
G90
G05
M71
T1
X104.607Y-63.571
X108.549Y-86.771
X109.098Y-73.645
X109.438Y-83.845
X109.449Y-69.23
X110.856Y-77.241
X111.389Y-68.809
X111.435Y-66.345
X113.538Y-72.426
X113.822Y-83.663
X114.691Y-73.731
X115.148Y-78.445
X116.048Y-72.085
X116.073Y-76.576
X116.159Y-74.823
X118.151Y-68.092
X125.125Y-66.548
X125.283Y-67.904
X125.303Y-71.75
X125.491Y-69.505
X126.964Y-67.534
X134.691Y-72.497
X134.828Y-69.367
X144.094Y-72.431
T2
X120.142Y-55.88
X122.682Y-55.88
X125.222Y-55.88
X127.762Y-55.88
T3
X106.68Y-55.88
X106.68Y-58.42
X106.68Y-60.96
X106.68Y-63.5
X106.68Y-66.04
X106.68Y-68.58
X106.68Y-71.12
X106.68Y-73.66
X106.68Y-76.2
X106.68Y-78.74
X140.97Y-55.88
X140.97Y-58.42
X140.97Y-60.96
X140.97Y-63.5
X140.97Y-66.04
X140.97Y-68.58
X140.97Y-71.12
X140.97Y-73.66
X140.97Y-76.2
T0
M30
