G04 #@! TF.FileFunction,Copper,L1,Top,Signal*
%FSLAX46Y46*%
G04 Gerber Fmt 4.6, Leading zero omitted, Abs format (unit mm)*
G04 Created by KiCad (PCBNEW 4.0.7) date 08/30/18 10:37:52*
%MOMM*%
%LPD*%
G01*
G04 APERTURE LIST*
%ADD10C,0.100000*%
%ADD11R,2.000000X1.600000*%
%ADD12R,2.000000X1.700000*%
%ADD13R,1.700000X1.700000*%
%ADD14O,1.700000X1.700000*%
%ADD15C,1.524000*%
%ADD16R,1.700000X2.000000*%
%ADD17C,0.600000*%
%ADD18C,0.200000*%
G04 APERTURE END LIST*
D10*
D11*
X109760000Y-83820000D03*
X113760000Y-83820000D03*
D12*
X109760000Y-88900000D03*
X113760000Y-88900000D03*
D13*
X140970000Y-55880000D03*
D14*
X140970000Y-58420000D03*
X140970000Y-60960000D03*
X140970000Y-63500000D03*
X140970000Y-66040000D03*
X140970000Y-68580000D03*
X140970000Y-71120000D03*
X140970000Y-73660000D03*
X140970000Y-76200000D03*
D13*
X106680000Y-55880000D03*
D14*
X106680000Y-58420000D03*
X106680000Y-60960000D03*
X106680000Y-63500000D03*
X106680000Y-66040000D03*
X106680000Y-68580000D03*
X106680000Y-71120000D03*
X106680000Y-73660000D03*
X106680000Y-76200000D03*
X106680000Y-78740000D03*
D15*
X120142000Y-55880000D03*
X122682000Y-55880000D03*
X125222000Y-55880000D03*
X127762000Y-55880000D03*
D12*
X133890000Y-83820000D03*
X137890000Y-83820000D03*
X113760000Y-92710000D03*
X109760000Y-92710000D03*
X133890000Y-86360000D03*
X137890000Y-86360000D03*
X133890000Y-88900000D03*
X137890000Y-88900000D03*
D16*
X106680000Y-87090000D03*
X106680000Y-83090000D03*
D10*
G36*
X126930688Y-87914035D02*
X126223581Y-87206928D01*
X127637794Y-85792715D01*
X128344901Y-86499822D01*
X126930688Y-87914035D01*
X126930688Y-87914035D01*
G37*
G36*
X125923060Y-86906408D02*
X125215953Y-86199301D01*
X126630166Y-84785088D01*
X127337273Y-85492195D01*
X125923060Y-86906408D01*
X125923060Y-86906408D01*
G37*
G36*
X124915433Y-85898780D02*
X124208326Y-85191673D01*
X125622539Y-83777460D01*
X126329646Y-84484567D01*
X124915433Y-85898780D01*
X124915433Y-85898780D01*
G37*
G36*
X119894975Y-90919239D02*
X119187868Y-90212132D01*
X120602081Y-88797919D01*
X121309188Y-89505026D01*
X119894975Y-90919239D01*
X119894975Y-90919239D01*
G37*
G36*
X121910229Y-92934493D02*
X121203122Y-92227386D01*
X122617335Y-90813173D01*
X123324442Y-91520280D01*
X121910229Y-92934493D01*
X121910229Y-92934493D01*
G37*
G36*
X120902602Y-91926866D02*
X120195495Y-91219759D01*
X121609708Y-89805546D01*
X122316815Y-90512653D01*
X120902602Y-91926866D01*
X120902602Y-91926866D01*
G37*
G36*
X126683200Y-92687006D02*
X125268986Y-91272792D01*
X126683200Y-89858578D01*
X128097414Y-91272792D01*
X126683200Y-92687006D01*
X126683200Y-92687006D01*
G37*
G36*
X120884924Y-86747309D02*
X119470710Y-85333095D01*
X120884924Y-83918881D01*
X122299138Y-85333095D01*
X120884924Y-86747309D01*
X120884924Y-86747309D01*
G37*
D17*
X109438440Y-83845400D03*
X108549440Y-86771480D03*
X113538000Y-72425560D03*
X125282960Y-67904360D03*
X126964440Y-67533520D03*
X116047520Y-72085200D03*
X114691160Y-73731120D03*
X115148360Y-78445360D03*
X113822480Y-83662520D03*
X134691120Y-72496680D03*
X109448600Y-69230240D03*
X111389160Y-68808600D03*
X118150640Y-68092320D03*
X125125480Y-66548000D03*
X125303280Y-71749920D03*
X109098080Y-73644760D03*
X104607360Y-63571120D03*
X116072920Y-76575920D03*
X110855760Y-77241400D03*
X111434880Y-66344800D03*
X116159280Y-74823320D03*
X134828280Y-69367400D03*
X125491240Y-69504560D03*
X144094200Y-72430640D03*
D18*
X109011720Y-75199240D02*
X109011720Y-77825600D01*
X110357920Y-79171800D02*
X110642400Y-79171800D01*
X109011720Y-77825600D02*
X110357920Y-79171800D01*
X106680000Y-87090000D02*
X108230920Y-87090000D01*
X109438440Y-83845400D02*
X109463840Y-83820000D01*
X108230920Y-87090000D02*
X108549440Y-86771480D01*
X109463840Y-83820000D02*
X109760000Y-83820000D01*
X109760000Y-83820000D02*
X109760000Y-82203040D01*
X109760000Y-82203040D02*
X110642400Y-81320640D01*
X110642400Y-81320640D02*
X110642400Y-79171800D01*
X106680000Y-73660000D02*
X107472480Y-73660000D01*
X107472480Y-73660000D02*
X109011720Y-75199240D01*
X109011720Y-75199240D02*
X109021880Y-75209400D01*
X109021880Y-75209400D02*
X109961680Y-75209400D01*
X109961680Y-75209400D02*
X110144560Y-75392280D01*
X110144560Y-75392280D02*
X110144560Y-77774800D01*
X110144560Y-77774800D02*
X110388400Y-78018640D01*
X110388400Y-78018640D02*
X111531400Y-78018640D01*
X111531400Y-78018640D02*
X113538000Y-76012040D01*
X113538000Y-76012040D02*
X113538000Y-72425560D01*
X120248528Y-89858579D02*
X117558579Y-89858579D01*
X116600000Y-88900000D02*
X113760000Y-88900000D01*
X117558579Y-89858579D02*
X116600000Y-88900000D01*
X126593600Y-67904360D02*
X125282960Y-67904360D01*
X126964440Y-67533520D02*
X126593600Y-67904360D01*
X114691160Y-73731120D02*
X115570000Y-73731120D01*
X116047520Y-73253600D02*
X116047520Y-72085200D01*
X115570000Y-73731120D02*
X116047520Y-73253600D01*
X115067080Y-74107040D02*
X114691160Y-73731120D01*
X115067080Y-78364080D02*
X115067080Y-74107040D01*
X115148360Y-78445360D02*
X115067080Y-78364080D01*
X113822480Y-83662520D02*
X113760000Y-83725000D01*
X113760000Y-83725000D02*
X113760000Y-83820000D01*
X137890000Y-83820000D02*
X137890000Y-77615800D01*
X134655560Y-72532240D02*
X134691120Y-72496680D01*
X134655560Y-74381360D02*
X134655560Y-72532240D01*
X137890000Y-77615800D02*
X134655560Y-74381360D01*
X113760000Y-88900000D02*
X113731040Y-88900000D01*
X113731040Y-88900000D02*
X111465360Y-91165680D01*
X109760000Y-91616280D02*
X109760000Y-92710000D01*
X110210600Y-91165680D02*
X109760000Y-91616280D01*
X111465360Y-91165680D02*
X110210600Y-91165680D01*
X115530000Y-85590000D02*
X115530000Y-87130000D01*
X115530000Y-87130000D02*
X113760000Y-88900000D01*
X115530000Y-85590000D02*
X113760000Y-83820000D01*
X137890000Y-86360000D02*
X137890000Y-88900000D01*
X137890000Y-83820000D02*
X137890000Y-86360000D01*
X107558840Y-71120000D02*
X106680000Y-71120000D01*
X109448600Y-69230240D02*
X107558840Y-71120000D01*
X117434360Y-68808600D02*
X111389160Y-68808600D01*
X118150640Y-68092320D02*
X117434360Y-68808600D01*
X124719080Y-66954400D02*
X125125480Y-66548000D01*
X124719080Y-71165720D02*
X124719080Y-66954400D01*
X125303280Y-71749920D02*
X124719080Y-71165720D01*
X109760000Y-88900000D02*
X107685840Y-88900000D01*
X105491280Y-71120000D02*
X106680000Y-71120000D01*
X104302560Y-72308720D02*
X105491280Y-71120000D01*
X104302560Y-88879680D02*
X104302560Y-72308720D01*
X104465120Y-89042240D02*
X104302560Y-88879680D01*
X107543600Y-89042240D02*
X104465120Y-89042240D01*
X107685840Y-88900000D02*
X107543600Y-89042240D01*
X138709400Y-53619400D02*
X140970000Y-55880000D01*
X135453120Y-53619400D02*
X138709400Y-53619400D01*
X131876800Y-57195720D02*
X135453120Y-53619400D01*
X131876800Y-58064400D02*
X131876800Y-57195720D01*
X127706120Y-62235080D02*
X131876800Y-58064400D01*
X106146600Y-62235080D02*
X127706120Y-62235080D01*
X105399840Y-62981840D02*
X106146600Y-62235080D01*
X105399840Y-64023240D02*
X105399840Y-62981840D01*
X106136440Y-64759840D02*
X105399840Y-64023240D01*
X109159040Y-64759840D02*
X106136440Y-64759840D01*
X110408720Y-66009520D02*
X109159040Y-64759840D01*
X110408720Y-72334120D02*
X110408720Y-66009520D01*
X109098080Y-73644760D02*
X110408720Y-72334120D01*
X105130600Y-55880000D02*
X106680000Y-55880000D01*
X104272080Y-56738520D02*
X105130600Y-55880000D01*
X104272080Y-63235840D02*
X104272080Y-56738520D01*
X104607360Y-63571120D02*
X104272080Y-63235840D01*
X132999480Y-58323480D02*
X140873480Y-58323480D01*
X128168400Y-63154560D02*
X132999480Y-58323480D01*
X125409960Y-63154560D02*
X128168400Y-63154560D01*
X124358400Y-64206120D02*
X125409960Y-63154560D01*
X124358400Y-76931520D02*
X124358400Y-64206120D01*
X123631960Y-77657960D02*
X124358400Y-76931520D01*
X117154960Y-77657960D02*
X123631960Y-77657960D01*
X116072920Y-76575920D02*
X117154960Y-77657960D01*
X140873480Y-58323480D02*
X140970000Y-58420000D01*
X109021880Y-63500000D02*
X106680000Y-63500000D01*
X110779560Y-65257680D02*
X109021880Y-63500000D01*
X110779560Y-77165200D02*
X110779560Y-65257680D01*
X110855760Y-77241400D02*
X110779560Y-77165200D01*
X122504200Y-66344800D02*
X111434880Y-66344800D01*
X123525280Y-67365880D02*
X122504200Y-66344800D01*
X123525280Y-74340720D02*
X123525280Y-67365880D01*
X123418600Y-74447400D02*
X123525280Y-74340720D01*
X116535200Y-74447400D02*
X123418600Y-74447400D01*
X116159280Y-74823320D02*
X116535200Y-74447400D01*
X135148320Y-69047360D02*
X140502640Y-69047360D01*
X134828280Y-69367400D02*
X135148320Y-69047360D01*
X140502640Y-69047360D02*
X140970000Y-68580000D01*
X140131800Y-70281800D02*
X140970000Y-71120000D01*
X133614160Y-70281800D02*
X140131800Y-70281800D01*
X132313680Y-68981320D02*
X133614160Y-70281800D01*
X126014480Y-68981320D02*
X132313680Y-68981320D01*
X125491240Y-69504560D02*
X126014480Y-68981320D01*
X106680000Y-83090000D02*
X106680000Y-84580000D01*
X125222361Y-86900000D02*
X126276613Y-85845748D01*
X124700000Y-86900000D02*
X125222361Y-86900000D01*
X123400000Y-85600000D02*
X124700000Y-86900000D01*
X123400000Y-85300000D02*
X123400000Y-85600000D01*
X120700000Y-82600000D02*
X123400000Y-85300000D01*
X112100000Y-82600000D02*
X120700000Y-82600000D01*
X112000000Y-82500000D02*
X112100000Y-82600000D01*
X112000000Y-84800000D02*
X112000000Y-82500000D01*
X111200000Y-85600000D02*
X112000000Y-84800000D01*
X107700000Y-85600000D02*
X111200000Y-85600000D01*
X106680000Y-84580000D02*
X107700000Y-85600000D01*
X106680000Y-83090000D02*
X106680000Y-78740000D01*
X125222000Y-55880000D02*
X125288040Y-55880000D01*
X125288040Y-55880000D02*
X128143000Y-53025040D01*
X128143000Y-53025040D02*
X133146800Y-53025040D01*
X133146800Y-53025040D02*
X133995160Y-52176680D01*
X133995160Y-52176680D02*
X142052040Y-52176680D01*
X142052040Y-52176680D02*
X144094200Y-54218840D01*
X144094200Y-54218840D02*
X144094200Y-72430640D01*
X127762000Y-55880000D02*
X131683760Y-55880000D01*
X142458440Y-76200000D02*
X140970000Y-76200000D01*
X143474440Y-75184000D02*
X142458440Y-76200000D01*
X143474440Y-54650640D02*
X143474440Y-75184000D01*
X141660880Y-52837080D02*
X143474440Y-54650640D01*
X134726680Y-52837080D02*
X141660880Y-52837080D01*
X131683760Y-55880000D02*
X134726680Y-52837080D01*
X125268986Y-84838120D02*
X125361880Y-84838120D01*
X125361880Y-84838120D02*
X126380000Y-83820000D01*
X126380000Y-83820000D02*
X133890000Y-83820000D01*
X133778240Y-83931760D02*
X133890000Y-83820000D01*
X113760000Y-92710000D02*
X119390000Y-92710000D01*
X119390000Y-92710000D02*
X121233794Y-90866206D01*
X121233794Y-90866206D02*
X121256155Y-90866206D01*
X133890000Y-86360000D02*
X135660000Y-86360000D01*
X122263782Y-93063782D02*
X122263782Y-91873833D01*
X125200000Y-96000000D02*
X122263782Y-93063782D01*
X132100000Y-96000000D02*
X125200000Y-96000000D01*
X135900000Y-92200000D02*
X132100000Y-96000000D01*
X135900000Y-86600000D02*
X135900000Y-92200000D01*
X135660000Y-86360000D02*
X135900000Y-86600000D01*
X133890000Y-88900000D02*
X129200000Y-88900000D01*
X129200000Y-88900000D02*
X127284241Y-86984241D01*
X127284241Y-86984241D02*
X127284241Y-86853375D01*
G36*
X144335697Y-51346588D02*
X145035691Y-51814309D01*
X145503412Y-52514303D01*
X145675000Y-53376932D01*
X145675000Y-91440000D01*
X145682206Y-91476226D01*
X145682206Y-91513159D01*
X145875552Y-92485175D01*
X145931545Y-92620355D01*
X146482148Y-93444390D01*
X146585610Y-93547852D01*
X147409645Y-94098455D01*
X147544825Y-94154449D01*
X147544830Y-94154449D01*
X148516841Y-94347794D01*
X148553774Y-94347794D01*
X148590000Y-94355000D01*
X153633068Y-94355000D01*
X154495697Y-94526588D01*
X155195691Y-94994309D01*
X155663412Y-95694303D01*
X155835000Y-96556932D01*
X155835000Y-135853068D01*
X155834352Y-135856324D01*
X155675790Y-135059175D01*
X155205165Y-134354835D01*
X154500825Y-133884210D01*
X153670000Y-133718949D01*
X152839175Y-133884210D01*
X152134835Y-134354835D01*
X151664210Y-135059175D01*
X151498949Y-135890000D01*
X151664210Y-136720825D01*
X152134835Y-137425165D01*
X152839175Y-137895790D01*
X153636324Y-138054352D01*
X153633068Y-138055000D01*
X94016932Y-138055000D01*
X94013676Y-138054352D01*
X94810825Y-137895790D01*
X95515165Y-137425165D01*
X95985790Y-136720825D01*
X96151051Y-135890000D01*
X95985790Y-135059175D01*
X95515165Y-134354835D01*
X94810825Y-133884210D01*
X93980000Y-133718949D01*
X93149175Y-133884210D01*
X92444835Y-134354835D01*
X91974210Y-135059175D01*
X91815648Y-135856324D01*
X91815000Y-135853068D01*
X91815000Y-97790000D01*
X92335000Y-97790000D01*
X92335000Y-104140000D01*
X92342206Y-104176226D01*
X92342206Y-104213159D01*
X92438878Y-104699166D01*
X92438878Y-104699167D01*
X92494872Y-104834347D01*
X92770172Y-105246364D01*
X92873635Y-105349827D01*
X93285652Y-105625127D01*
X93285653Y-105625128D01*
X93420833Y-105681121D01*
X93906841Y-105777794D01*
X93943774Y-105777794D01*
X93980000Y-105785000D01*
X95250000Y-105785000D01*
X95286226Y-105777794D01*
X95323159Y-105777794D01*
X95809166Y-105681122D01*
X95809167Y-105681122D01*
X95944347Y-105625128D01*
X96356364Y-105349828D01*
X96459827Y-105246365D01*
X96735128Y-104834347D01*
X96791121Y-104699167D01*
X96791121Y-104699166D01*
X96887794Y-104213159D01*
X96887794Y-104176226D01*
X96895000Y-104140000D01*
X96895000Y-97790000D01*
X150755000Y-97790000D01*
X150755000Y-104140000D01*
X150762206Y-104176226D01*
X150762206Y-104213159D01*
X150858878Y-104699166D01*
X150858878Y-104699167D01*
X150914872Y-104834347D01*
X151190172Y-105246364D01*
X151293635Y-105349827D01*
X151705652Y-105625127D01*
X151705653Y-105625128D01*
X151840833Y-105681121D01*
X152326841Y-105777794D01*
X152363774Y-105777794D01*
X152400000Y-105785000D01*
X153670000Y-105785000D01*
X153706226Y-105777794D01*
X153743159Y-105777794D01*
X154229166Y-105681122D01*
X154229167Y-105681122D01*
X154364347Y-105625128D01*
X154776364Y-105349828D01*
X154879827Y-105246365D01*
X155155128Y-104834347D01*
X155211121Y-104699167D01*
X155211121Y-104699166D01*
X155307794Y-104213159D01*
X155307794Y-104176226D01*
X155315000Y-104140000D01*
X155315000Y-97790000D01*
X155307794Y-97753774D01*
X155307794Y-97716841D01*
X155211121Y-97230833D01*
X155155128Y-97095653D01*
X154879827Y-96683635D01*
X154776364Y-96580172D01*
X154364347Y-96304872D01*
X154229167Y-96248878D01*
X154229166Y-96248878D01*
X153743159Y-96152206D01*
X153706226Y-96152206D01*
X153670000Y-96145000D01*
X152400000Y-96145000D01*
X152363774Y-96152206D01*
X152326841Y-96152206D01*
X151840833Y-96248879D01*
X151705653Y-96304872D01*
X151293635Y-96580173D01*
X151190172Y-96683636D01*
X150914872Y-97095653D01*
X150858878Y-97230833D01*
X150858878Y-97230834D01*
X150762206Y-97716841D01*
X150762206Y-97753774D01*
X150755000Y-97790000D01*
X96895000Y-97790000D01*
X96887794Y-97753774D01*
X96887794Y-97716841D01*
X96791121Y-97230833D01*
X96735128Y-97095653D01*
X96459827Y-96683635D01*
X96356364Y-96580172D01*
X96266310Y-96520000D01*
X103511000Y-96520000D01*
X103511000Y-96774000D01*
X103518205Y-96810222D01*
X103518205Y-96847159D01*
X103556875Y-97041562D01*
X103556875Y-97041563D01*
X103612868Y-97176742D01*
X103722989Y-97341550D01*
X103758591Y-97377151D01*
X103826451Y-97445011D01*
X103991258Y-97555132D01*
X104047252Y-97578325D01*
X104126438Y-97611126D01*
X104320842Y-97649795D01*
X104357778Y-97649795D01*
X104394000Y-97657000D01*
X111252000Y-97657000D01*
X111288222Y-97649795D01*
X111325159Y-97649795D01*
X111519562Y-97611125D01*
X111519563Y-97611125D01*
X111654742Y-97555132D01*
X111819550Y-97445011D01*
X111887409Y-97377151D01*
X111923011Y-97341549D01*
X112033132Y-97176742D01*
X112064790Y-97100313D01*
X112089126Y-97041562D01*
X112127795Y-96847158D01*
X112127795Y-96810222D01*
X112135000Y-96774000D01*
X112135000Y-96520000D01*
X112127795Y-96483778D01*
X112127795Y-96446842D01*
X112089126Y-96252438D01*
X112047608Y-96152206D01*
X112033132Y-96117258D01*
X111923011Y-95952451D01*
X111871280Y-95900720D01*
X111819550Y-95848989D01*
X111654742Y-95738868D01*
X111519563Y-95682875D01*
X111519562Y-95682875D01*
X111325159Y-95644205D01*
X111288222Y-95644205D01*
X111252000Y-95637000D01*
X104394000Y-95637000D01*
X104357778Y-95644205D01*
X104320842Y-95644205D01*
X104126438Y-95682874D01*
X104084613Y-95700199D01*
X103991258Y-95738868D01*
X103826451Y-95848989D01*
X103774721Y-95900719D01*
X103722989Y-95952450D01*
X103612868Y-96117258D01*
X103558350Y-96248878D01*
X103556875Y-96252438D01*
X103518205Y-96446841D01*
X103518205Y-96483778D01*
X103511000Y-96520000D01*
X96266310Y-96520000D01*
X95944347Y-96304872D01*
X95809167Y-96248878D01*
X95809166Y-96248878D01*
X95323159Y-96152206D01*
X95286226Y-96152206D01*
X95250000Y-96145000D01*
X93980000Y-96145000D01*
X93943774Y-96152206D01*
X93906841Y-96152206D01*
X93420833Y-96248879D01*
X93285653Y-96304872D01*
X92873635Y-96580173D01*
X92770172Y-96683636D01*
X92494872Y-97095653D01*
X92438878Y-97230833D01*
X92438878Y-97230834D01*
X92342206Y-97716841D01*
X92342206Y-97753774D01*
X92335000Y-97790000D01*
X91815000Y-97790000D01*
X91815000Y-96556932D01*
X91986588Y-95694303D01*
X92454309Y-94994309D01*
X93154303Y-94526588D01*
X94016932Y-94355000D01*
X99060000Y-94355000D01*
X99096226Y-94347794D01*
X99133159Y-94347794D01*
X100105175Y-94154448D01*
X100240355Y-94098455D01*
X101064390Y-93547852D01*
X101167852Y-93444390D01*
X101658556Y-92710000D01*
X103238949Y-92710000D01*
X103404210Y-93540825D01*
X103874835Y-94245165D01*
X104579175Y-94715790D01*
X105410000Y-94881051D01*
X106240825Y-94715790D01*
X106945165Y-94245165D01*
X107415790Y-93540825D01*
X107556187Y-92835000D01*
X108460000Y-92835000D01*
X108460000Y-93619673D01*
X108505672Y-93729936D01*
X108590063Y-93814328D01*
X108700326Y-93860000D01*
X109635000Y-93860000D01*
X109710000Y-93785000D01*
X109710000Y-92760000D01*
X109810000Y-92760000D01*
X109810000Y-93785000D01*
X109885000Y-93860000D01*
X110819674Y-93860000D01*
X110929937Y-93814328D01*
X111014328Y-93729936D01*
X111060000Y-93619673D01*
X111060000Y-92835000D01*
X110985000Y-92760000D01*
X109810000Y-92760000D01*
X109710000Y-92760000D01*
X108535000Y-92760000D01*
X108460000Y-92835000D01*
X107556187Y-92835000D01*
X107581051Y-92710000D01*
X107415790Y-91879175D01*
X107363106Y-91800327D01*
X108460000Y-91800327D01*
X108460000Y-92585000D01*
X108535000Y-92660000D01*
X109710000Y-92660000D01*
X109710000Y-91635000D01*
X109810000Y-91635000D01*
X109810000Y-92660000D01*
X110985000Y-92660000D01*
X111060000Y-92585000D01*
X111060000Y-91860000D01*
X112454123Y-91860000D01*
X112454123Y-93560000D01*
X112475042Y-93671173D01*
X112540745Y-93773279D01*
X112640997Y-93841778D01*
X112760000Y-93865877D01*
X114760000Y-93865877D01*
X114871173Y-93844958D01*
X114973279Y-93779255D01*
X115041778Y-93679003D01*
X115065877Y-93560000D01*
X115065877Y-93110000D01*
X119390000Y-93110000D01*
X119543074Y-93079552D01*
X119672843Y-92992843D01*
X120604423Y-92061263D01*
X120686314Y-92143154D01*
X120779717Y-92206973D01*
X120898376Y-92232714D01*
X120899048Y-92232588D01*
X120919727Y-92342485D01*
X120986834Y-92443674D01*
X121693941Y-93150781D01*
X121787344Y-93214600D01*
X121906003Y-93240341D01*
X121909484Y-93239686D01*
X121980939Y-93346625D01*
X124917155Y-96282840D01*
X124917157Y-96282843D01*
X125046927Y-96369552D01*
X125200000Y-96400000D01*
X132100000Y-96400000D01*
X132253074Y-96369552D01*
X132382843Y-96282843D01*
X135955685Y-92710000D01*
X140068949Y-92710000D01*
X140234210Y-93540825D01*
X140704835Y-94245165D01*
X141409175Y-94715790D01*
X142240000Y-94881051D01*
X143070825Y-94715790D01*
X143775165Y-94245165D01*
X144245790Y-93540825D01*
X144411051Y-92710000D01*
X144245790Y-91879175D01*
X143775165Y-91174835D01*
X143070825Y-90704210D01*
X142240000Y-90538949D01*
X141409175Y-90704210D01*
X140704835Y-91174835D01*
X140234210Y-91879175D01*
X140068949Y-92710000D01*
X135955685Y-92710000D01*
X136182840Y-92482845D01*
X136182843Y-92482843D01*
X136269552Y-92353073D01*
X136278120Y-92310000D01*
X136300001Y-92200000D01*
X136300000Y-92199995D01*
X136300000Y-89025000D01*
X136590000Y-89025000D01*
X136590000Y-89809673D01*
X136635672Y-89919936D01*
X136720063Y-90004328D01*
X136830326Y-90050000D01*
X137765000Y-90050000D01*
X137840000Y-89975000D01*
X137840000Y-88950000D01*
X137940000Y-88950000D01*
X137940000Y-89975000D01*
X138015000Y-90050000D01*
X138949674Y-90050000D01*
X139059937Y-90004328D01*
X139144328Y-89919936D01*
X139190000Y-89809673D01*
X139190000Y-89025000D01*
X139115000Y-88950000D01*
X137940000Y-88950000D01*
X137840000Y-88950000D01*
X136665000Y-88950000D01*
X136590000Y-89025000D01*
X136300000Y-89025000D01*
X136300000Y-87990327D01*
X136590000Y-87990327D01*
X136590000Y-88775000D01*
X136665000Y-88850000D01*
X137840000Y-88850000D01*
X137840000Y-87825000D01*
X137940000Y-87825000D01*
X137940000Y-88850000D01*
X139115000Y-88850000D01*
X139190000Y-88775000D01*
X139190000Y-87990327D01*
X139144328Y-87880064D01*
X139059937Y-87795672D01*
X138949674Y-87750000D01*
X138015000Y-87750000D01*
X137940000Y-87825000D01*
X137840000Y-87825000D01*
X137765000Y-87750000D01*
X136830326Y-87750000D01*
X136720063Y-87795672D01*
X136635672Y-87880064D01*
X136590000Y-87990327D01*
X136300000Y-87990327D01*
X136300000Y-86600000D01*
X136296865Y-86584241D01*
X136277126Y-86485000D01*
X136590000Y-86485000D01*
X136590000Y-87269673D01*
X136635672Y-87379936D01*
X136720063Y-87464328D01*
X136830326Y-87510000D01*
X137765000Y-87510000D01*
X137840000Y-87435000D01*
X137840000Y-86410000D01*
X137940000Y-86410000D01*
X137940000Y-87435000D01*
X138015000Y-87510000D01*
X138949674Y-87510000D01*
X139059937Y-87464328D01*
X139144328Y-87379936D01*
X139190000Y-87269673D01*
X139190000Y-86485000D01*
X139115000Y-86410000D01*
X137940000Y-86410000D01*
X137840000Y-86410000D01*
X136665000Y-86410000D01*
X136590000Y-86485000D01*
X136277126Y-86485000D01*
X136269552Y-86446926D01*
X136182843Y-86317157D01*
X135942843Y-86077157D01*
X135813074Y-85990448D01*
X135660000Y-85960000D01*
X135195877Y-85960000D01*
X135195877Y-85510000D01*
X135184649Y-85450327D01*
X136590000Y-85450327D01*
X136590000Y-86235000D01*
X136665000Y-86310000D01*
X137840000Y-86310000D01*
X137840000Y-85285000D01*
X137940000Y-85285000D01*
X137940000Y-86310000D01*
X139115000Y-86310000D01*
X139190000Y-86235000D01*
X139190000Y-85450327D01*
X139144328Y-85340064D01*
X139059937Y-85255672D01*
X138949674Y-85210000D01*
X138015000Y-85210000D01*
X137940000Y-85285000D01*
X137840000Y-85285000D01*
X137765000Y-85210000D01*
X136830326Y-85210000D01*
X136720063Y-85255672D01*
X136635672Y-85340064D01*
X136590000Y-85450327D01*
X135184649Y-85450327D01*
X135174958Y-85398827D01*
X135109255Y-85296721D01*
X135009003Y-85228222D01*
X134890000Y-85204123D01*
X132890000Y-85204123D01*
X132778827Y-85225042D01*
X132676721Y-85290745D01*
X132608222Y-85390997D01*
X132584123Y-85510000D01*
X132584123Y-87210000D01*
X132605042Y-87321173D01*
X132670745Y-87423279D01*
X132770997Y-87491778D01*
X132890000Y-87515877D01*
X134890000Y-87515877D01*
X135001173Y-87494958D01*
X135103279Y-87429255D01*
X135171778Y-87329003D01*
X135195877Y-87210000D01*
X135195877Y-86760000D01*
X135494314Y-86760000D01*
X135500000Y-86765686D01*
X135500000Y-92034315D01*
X131934314Y-95600000D01*
X125365685Y-95600000D01*
X122663782Y-92898096D01*
X122663782Y-92613516D01*
X123540730Y-91736568D01*
X123604549Y-91643165D01*
X123630290Y-91524506D01*
X123607837Y-91405181D01*
X123540730Y-91303992D01*
X123505304Y-91268566D01*
X124963138Y-91268566D01*
X124985591Y-91387891D01*
X125052698Y-91489080D01*
X126466912Y-92903294D01*
X126560315Y-92967113D01*
X126678974Y-92992854D01*
X126798299Y-92970401D01*
X126899488Y-92903294D01*
X128313702Y-91489080D01*
X128377521Y-91395677D01*
X128403262Y-91277018D01*
X128380809Y-91157693D01*
X128313702Y-91056504D01*
X126899488Y-89642290D01*
X126806085Y-89578471D01*
X126687426Y-89552730D01*
X126568101Y-89575183D01*
X126466912Y-89642290D01*
X125052698Y-91056504D01*
X124988879Y-91149907D01*
X124963138Y-91268566D01*
X123505304Y-91268566D01*
X122833623Y-90596885D01*
X122740220Y-90533066D01*
X122621561Y-90507325D01*
X122620889Y-90507451D01*
X122600210Y-90397554D01*
X122533103Y-90296365D01*
X122086874Y-89850136D01*
X124242063Y-89850136D01*
X124371195Y-90162659D01*
X124610095Y-90401976D01*
X124922393Y-90531654D01*
X125260544Y-90531949D01*
X125573067Y-90402817D01*
X125812384Y-90163917D01*
X125942062Y-89851619D01*
X125942357Y-89513468D01*
X125813225Y-89200945D01*
X125574325Y-88961628D01*
X125262027Y-88831950D01*
X124923876Y-88831655D01*
X124611353Y-88960787D01*
X124372036Y-89199687D01*
X124242358Y-89511985D01*
X124242063Y-89850136D01*
X122086874Y-89850136D01*
X121825996Y-89589258D01*
X121732593Y-89525439D01*
X121613934Y-89499698D01*
X121609188Y-89500591D01*
X121609188Y-89445351D01*
X121563515Y-89335089D01*
X121256155Y-89027729D01*
X121150089Y-89027729D01*
X120319239Y-89858579D01*
X120333381Y-89872721D01*
X120262670Y-89943432D01*
X120248528Y-89929290D01*
X119417678Y-90760140D01*
X119417678Y-90866206D01*
X119725038Y-91173566D01*
X119835300Y-91219239D01*
X119890344Y-91219239D01*
X119912100Y-91334858D01*
X119979207Y-91436047D01*
X120038737Y-91495577D01*
X119224314Y-92310000D01*
X115065877Y-92310000D01*
X115065877Y-91860000D01*
X115044958Y-91748827D01*
X114979255Y-91646721D01*
X114879003Y-91578222D01*
X114760000Y-91554123D01*
X112760000Y-91554123D01*
X112648827Y-91575042D01*
X112546721Y-91640745D01*
X112478222Y-91740997D01*
X112454123Y-91860000D01*
X111060000Y-91860000D01*
X111060000Y-91800327D01*
X111014328Y-91690064D01*
X110929937Y-91605672D01*
X110819674Y-91560000D01*
X109885000Y-91560000D01*
X109810000Y-91635000D01*
X109710000Y-91635000D01*
X109635000Y-91560000D01*
X108700326Y-91560000D01*
X108590063Y-91605672D01*
X108505672Y-91690064D01*
X108460000Y-91800327D01*
X107363106Y-91800327D01*
X106945165Y-91174835D01*
X106240825Y-90704210D01*
X105410000Y-90538949D01*
X104579175Y-90704210D01*
X103874835Y-91174835D01*
X103404210Y-91879175D01*
X103238949Y-92710000D01*
X101658556Y-92710000D01*
X101718455Y-92620355D01*
X101774449Y-92485175D01*
X101774449Y-92485170D01*
X101967794Y-91513159D01*
X101967794Y-91476226D01*
X101975000Y-91440000D01*
X101975000Y-90152459D01*
X118887867Y-90152459D01*
X118887868Y-90271807D01*
X118933541Y-90382069D01*
X119240901Y-90689429D01*
X119346967Y-90689429D01*
X120177817Y-89858579D01*
X119700520Y-89381282D01*
X119594454Y-89381282D01*
X118933540Y-90042196D01*
X118887867Y-90152459D01*
X101975000Y-90152459D01*
X101975000Y-68580000D01*
X105507470Y-68580000D01*
X105595009Y-69020086D01*
X105844297Y-69393173D01*
X106217384Y-69642461D01*
X106657470Y-69730000D01*
X106702530Y-69730000D01*
X107142616Y-69642461D01*
X107515703Y-69393173D01*
X107764991Y-69020086D01*
X107852530Y-68580000D01*
X107764991Y-68139914D01*
X107515703Y-67766827D01*
X107142616Y-67517539D01*
X106702530Y-67430000D01*
X106657470Y-67430000D01*
X106217384Y-67517539D01*
X105844297Y-67766827D01*
X105595009Y-68139914D01*
X105507470Y-68580000D01*
X101975000Y-68580000D01*
X101975000Y-56738520D01*
X103872080Y-56738520D01*
X103872080Y-63235840D01*
X103902528Y-63388914D01*
X103989237Y-63518683D01*
X104007389Y-63536835D01*
X104007256Y-63689944D01*
X104098408Y-63910549D01*
X104267043Y-64079479D01*
X104487489Y-64171016D01*
X104726184Y-64171224D01*
X104946789Y-64080072D01*
X105000483Y-64026472D01*
X105030288Y-64176314D01*
X105116997Y-64306083D01*
X105853597Y-65042683D01*
X105983366Y-65129392D01*
X105988570Y-65130427D01*
X105844297Y-65226827D01*
X105595009Y-65599914D01*
X105507470Y-66040000D01*
X105595009Y-66480086D01*
X105844297Y-66853173D01*
X106217384Y-67102461D01*
X106657470Y-67190000D01*
X106702530Y-67190000D01*
X107142616Y-67102461D01*
X107515703Y-66853173D01*
X107764991Y-66480086D01*
X107852530Y-66040000D01*
X107764991Y-65599914D01*
X107515703Y-65226827D01*
X107415450Y-65159840D01*
X108993354Y-65159840D01*
X110008720Y-66175205D01*
X110008720Y-69014647D01*
X109957552Y-68890811D01*
X109788917Y-68721881D01*
X109568471Y-68630344D01*
X109329776Y-68630136D01*
X109109171Y-68721288D01*
X108940241Y-68889923D01*
X108848704Y-69110369D01*
X108848570Y-69264584D01*
X107632110Y-70481044D01*
X107515703Y-70306827D01*
X107142616Y-70057539D01*
X106702530Y-69970000D01*
X106657470Y-69970000D01*
X106217384Y-70057539D01*
X105844297Y-70306827D01*
X105595009Y-70679914D01*
X105587035Y-70720000D01*
X105491280Y-70720000D01*
X105338206Y-70750448D01*
X105208437Y-70837157D01*
X104019717Y-72025877D01*
X103933008Y-72155646D01*
X103933008Y-72155647D01*
X103902560Y-72308720D01*
X103902560Y-88879680D01*
X103933008Y-89032754D01*
X104019717Y-89162523D01*
X104182275Y-89325080D01*
X104182277Y-89325083D01*
X104312047Y-89411792D01*
X104465120Y-89442241D01*
X104465125Y-89442240D01*
X107543600Y-89442240D01*
X107696674Y-89411792D01*
X107826443Y-89325083D01*
X107851526Y-89300000D01*
X108454123Y-89300000D01*
X108454123Y-89750000D01*
X108475042Y-89861173D01*
X108540745Y-89963279D01*
X108640997Y-90031778D01*
X108760000Y-90055877D01*
X110760000Y-90055877D01*
X110871173Y-90034958D01*
X110973279Y-89969255D01*
X111041778Y-89869003D01*
X111065877Y-89750000D01*
X111065877Y-89025000D01*
X112460000Y-89025000D01*
X112460000Y-89809673D01*
X112505672Y-89919936D01*
X112590063Y-90004328D01*
X112700326Y-90050000D01*
X113635000Y-90050000D01*
X113710000Y-89975000D01*
X113710000Y-88950000D01*
X113810000Y-88950000D01*
X113810000Y-89975000D01*
X113885000Y-90050000D01*
X114819674Y-90050000D01*
X114929937Y-90004328D01*
X115014328Y-89919936D01*
X115060000Y-89809673D01*
X115060000Y-89204505D01*
X119771231Y-89204505D01*
X119771231Y-89310571D01*
X120248528Y-89787868D01*
X121079378Y-88957018D01*
X121079378Y-88850952D01*
X120772018Y-88543592D01*
X120661756Y-88497919D01*
X120542408Y-88497918D01*
X120432145Y-88543591D01*
X119771231Y-89204505D01*
X115060000Y-89204505D01*
X115060000Y-89025000D01*
X114985000Y-88950000D01*
X113810000Y-88950000D01*
X113710000Y-88950000D01*
X112535000Y-88950000D01*
X112460000Y-89025000D01*
X111065877Y-89025000D01*
X111065877Y-88050000D01*
X111054649Y-87990327D01*
X112460000Y-87990327D01*
X112460000Y-88775000D01*
X112535000Y-88850000D01*
X113710000Y-88850000D01*
X113710000Y-87825000D01*
X113810000Y-87825000D01*
X113810000Y-88850000D01*
X114985000Y-88850000D01*
X115060000Y-88775000D01*
X115060000Y-87990327D01*
X115014328Y-87880064D01*
X114929937Y-87795672D01*
X114819674Y-87750000D01*
X113885000Y-87750000D01*
X113810000Y-87825000D01*
X113710000Y-87825000D01*
X113635000Y-87750000D01*
X112700326Y-87750000D01*
X112590063Y-87795672D01*
X112505672Y-87880064D01*
X112460000Y-87990327D01*
X111054649Y-87990327D01*
X111044958Y-87938827D01*
X110979255Y-87836721D01*
X110879003Y-87768222D01*
X110760000Y-87744123D01*
X108760000Y-87744123D01*
X108648827Y-87765042D01*
X108546721Y-87830745D01*
X108478222Y-87930997D01*
X108454123Y-88050000D01*
X108454123Y-88500000D01*
X107685845Y-88500000D01*
X107685840Y-88499999D01*
X107532766Y-88530448D01*
X107402997Y-88617157D01*
X107377914Y-88642240D01*
X104702560Y-88642240D01*
X104702560Y-78740000D01*
X105507470Y-78740000D01*
X105595009Y-79180086D01*
X105844297Y-79553173D01*
X106217384Y-79802461D01*
X106280000Y-79814916D01*
X106280000Y-81784123D01*
X105830000Y-81784123D01*
X105718827Y-81805042D01*
X105616721Y-81870745D01*
X105548222Y-81970997D01*
X105524123Y-82090000D01*
X105524123Y-84090000D01*
X105545042Y-84201173D01*
X105610745Y-84303279D01*
X105710997Y-84371778D01*
X105830000Y-84395877D01*
X106280000Y-84395877D01*
X106280000Y-84580000D01*
X106310448Y-84733074D01*
X106397157Y-84862843D01*
X107318437Y-85784123D01*
X105830000Y-85784123D01*
X105718827Y-85805042D01*
X105616721Y-85870745D01*
X105548222Y-85970997D01*
X105524123Y-86090000D01*
X105524123Y-88090000D01*
X105545042Y-88201173D01*
X105610745Y-88303279D01*
X105710997Y-88371778D01*
X105830000Y-88395877D01*
X107530000Y-88395877D01*
X107641173Y-88374958D01*
X107743279Y-88309255D01*
X107811778Y-88209003D01*
X107835877Y-88090000D01*
X107835877Y-87490000D01*
X108230920Y-87490000D01*
X108383994Y-87459552D01*
X108513763Y-87372843D01*
X108515155Y-87371451D01*
X108668264Y-87371584D01*
X108888869Y-87280432D01*
X109040102Y-87129463D01*
X121725086Y-87129463D01*
X121828392Y-87379482D01*
X122019512Y-87570936D01*
X122269350Y-87674678D01*
X122539871Y-87674914D01*
X122789890Y-87571608D01*
X122981344Y-87380488D01*
X123085086Y-87130650D01*
X123085322Y-86860129D01*
X122982016Y-86610110D01*
X122790896Y-86418656D01*
X122541058Y-86314914D01*
X122270537Y-86314678D01*
X122020518Y-86417984D01*
X121829064Y-86609104D01*
X121725322Y-86858942D01*
X121725086Y-87129463D01*
X109040102Y-87129463D01*
X109057799Y-87111797D01*
X109149336Y-86891351D01*
X109149544Y-86652656D01*
X109058392Y-86432051D01*
X108889757Y-86263121D01*
X108669311Y-86171584D01*
X108430616Y-86171376D01*
X108210011Y-86262528D01*
X108041081Y-86431163D01*
X107949544Y-86651609D01*
X107949511Y-86690000D01*
X107835877Y-86690000D01*
X107835877Y-86090000D01*
X107818942Y-86000000D01*
X111200000Y-86000000D01*
X111353074Y-85969552D01*
X111482843Y-85882843D01*
X112036817Y-85328869D01*
X119164862Y-85328869D01*
X119187315Y-85448194D01*
X119254422Y-85549383D01*
X120668636Y-86963597D01*
X120762039Y-87027416D01*
X120880698Y-87053157D01*
X121000023Y-87030704D01*
X121101212Y-86963597D01*
X122515426Y-85549383D01*
X122579245Y-85455980D01*
X122604986Y-85337321D01*
X122582533Y-85217996D01*
X122515426Y-85116807D01*
X121101212Y-83702593D01*
X121007809Y-83638774D01*
X120889150Y-83613033D01*
X120769825Y-83635486D01*
X120668636Y-83702593D01*
X119254422Y-85116807D01*
X119190603Y-85210210D01*
X119164862Y-85328869D01*
X112036817Y-85328869D01*
X112282843Y-85082843D01*
X112369552Y-84953074D01*
X112400001Y-84800000D01*
X112400000Y-84799995D01*
X112400000Y-83945000D01*
X112460000Y-83945000D01*
X112460000Y-84679673D01*
X112505672Y-84789936D01*
X112590063Y-84874328D01*
X112700326Y-84920000D01*
X113635000Y-84920000D01*
X113710000Y-84845000D01*
X113710000Y-83870000D01*
X113810000Y-83870000D01*
X113810000Y-84845000D01*
X113885000Y-84920000D01*
X114819674Y-84920000D01*
X114929937Y-84874328D01*
X115014328Y-84789936D01*
X115060000Y-84679673D01*
X115060000Y-83945000D01*
X114985000Y-83870000D01*
X113810000Y-83870000D01*
X113710000Y-83870000D01*
X112535000Y-83870000D01*
X112460000Y-83945000D01*
X112400000Y-83945000D01*
X112400000Y-83000000D01*
X112460000Y-83000000D01*
X112460000Y-83695000D01*
X112535000Y-83770000D01*
X113710000Y-83770000D01*
X113710000Y-83750000D01*
X113810000Y-83750000D01*
X113810000Y-83770000D01*
X114985000Y-83770000D01*
X115060000Y-83695000D01*
X115060000Y-83000000D01*
X120534314Y-83000000D01*
X123000000Y-85465685D01*
X123000000Y-85600000D01*
X123030448Y-85753074D01*
X123117157Y-85882843D01*
X124417155Y-87182840D01*
X124417157Y-87182843D01*
X124457801Y-87210000D01*
X124546926Y-87269552D01*
X124700000Y-87300001D01*
X124700005Y-87300000D01*
X125222361Y-87300000D01*
X125375435Y-87269552D01*
X125505204Y-87182843D01*
X125636061Y-87051985D01*
X125706772Y-87122696D01*
X125800175Y-87186515D01*
X125918834Y-87212256D01*
X125919507Y-87212129D01*
X125940186Y-87322027D01*
X126007293Y-87423216D01*
X126714400Y-88130323D01*
X126807803Y-88194142D01*
X126926462Y-88219883D01*
X127045787Y-88197430D01*
X127146976Y-88130323D01*
X127505807Y-87771492D01*
X128917155Y-89182840D01*
X128917157Y-89182843D01*
X129046927Y-89269552D01*
X129200000Y-89300000D01*
X132584123Y-89300000D01*
X132584123Y-89750000D01*
X132605042Y-89861173D01*
X132670745Y-89963279D01*
X132770997Y-90031778D01*
X132890000Y-90055877D01*
X134890000Y-90055877D01*
X135001173Y-90034958D01*
X135103279Y-89969255D01*
X135171778Y-89869003D01*
X135195877Y-89750000D01*
X135195877Y-88050000D01*
X135174958Y-87938827D01*
X135109255Y-87836721D01*
X135009003Y-87768222D01*
X134890000Y-87744123D01*
X132890000Y-87744123D01*
X132778827Y-87765042D01*
X132676721Y-87830745D01*
X132608222Y-87930997D01*
X132584123Y-88050000D01*
X132584123Y-88500000D01*
X129365685Y-88500000D01*
X128071492Y-87205807D01*
X128561189Y-86716110D01*
X128625008Y-86622707D01*
X128650749Y-86504048D01*
X128628296Y-86384723D01*
X128561189Y-86283534D01*
X127854082Y-85576427D01*
X127760679Y-85512608D01*
X127642020Y-85486867D01*
X127641347Y-85486994D01*
X127620668Y-85377096D01*
X127553561Y-85275907D01*
X126846454Y-84568800D01*
X126753051Y-84504981D01*
X126634392Y-84479240D01*
X126633720Y-84479366D01*
X126613041Y-84369468D01*
X126545934Y-84268279D01*
X126521671Y-84244016D01*
X126545686Y-84220000D01*
X132584123Y-84220000D01*
X132584123Y-84670000D01*
X132605042Y-84781173D01*
X132670745Y-84883279D01*
X132770997Y-84951778D01*
X132890000Y-84975877D01*
X134890000Y-84975877D01*
X135001173Y-84954958D01*
X135103279Y-84889255D01*
X135171778Y-84789003D01*
X135195877Y-84670000D01*
X135195877Y-83945000D01*
X136590000Y-83945000D01*
X136590000Y-84729673D01*
X136635672Y-84839936D01*
X136720063Y-84924328D01*
X136830326Y-84970000D01*
X137765000Y-84970000D01*
X137840000Y-84895000D01*
X137840000Y-83870000D01*
X137940000Y-83870000D01*
X137940000Y-84895000D01*
X138015000Y-84970000D01*
X138949674Y-84970000D01*
X139059937Y-84924328D01*
X139144328Y-84839936D01*
X139190000Y-84729673D01*
X139190000Y-83945000D01*
X139115000Y-83870000D01*
X137940000Y-83870000D01*
X137840000Y-83870000D01*
X136665000Y-83870000D01*
X136590000Y-83945000D01*
X135195877Y-83945000D01*
X135195877Y-82970000D01*
X135184649Y-82910327D01*
X136590000Y-82910327D01*
X136590000Y-83695000D01*
X136665000Y-83770000D01*
X137840000Y-83770000D01*
X137840000Y-82745000D01*
X137940000Y-82745000D01*
X137940000Y-83770000D01*
X139115000Y-83770000D01*
X139190000Y-83695000D01*
X139190000Y-82910327D01*
X139144328Y-82800064D01*
X139059937Y-82715672D01*
X138949674Y-82670000D01*
X138015000Y-82670000D01*
X137940000Y-82745000D01*
X137840000Y-82745000D01*
X137765000Y-82670000D01*
X136830326Y-82670000D01*
X136720063Y-82715672D01*
X136635672Y-82800064D01*
X136590000Y-82910327D01*
X135184649Y-82910327D01*
X135174958Y-82858827D01*
X135109255Y-82756721D01*
X135009003Y-82688222D01*
X134890000Y-82664123D01*
X132890000Y-82664123D01*
X132778827Y-82685042D01*
X132676721Y-82750745D01*
X132608222Y-82850997D01*
X132584123Y-82970000D01*
X132584123Y-83420000D01*
X126380000Y-83420000D01*
X126226926Y-83450448D01*
X126097157Y-83537157D01*
X125955985Y-83678330D01*
X125838827Y-83561172D01*
X125745424Y-83497353D01*
X125626765Y-83471612D01*
X125507440Y-83494065D01*
X125406251Y-83561172D01*
X123992038Y-84975385D01*
X123928219Y-85068788D01*
X123902478Y-85187447D01*
X123924931Y-85306772D01*
X123992038Y-85407961D01*
X124699145Y-86115068D01*
X124792548Y-86178887D01*
X124911207Y-86204628D01*
X124911879Y-86204502D01*
X124932558Y-86314400D01*
X124999665Y-86415589D01*
X125070376Y-86486300D01*
X125056675Y-86500000D01*
X124865685Y-86500000D01*
X123800000Y-85434314D01*
X123800000Y-85300005D01*
X123800001Y-85300000D01*
X123769552Y-85146927D01*
X123682843Y-85017157D01*
X123682840Y-85017155D01*
X120982843Y-82317157D01*
X120853074Y-82230448D01*
X120700000Y-82200000D01*
X112257166Y-82200000D01*
X112153074Y-82130448D01*
X112000000Y-82100000D01*
X111846926Y-82130448D01*
X111717157Y-82217157D01*
X111630448Y-82346926D01*
X111618599Y-82406494D01*
X111600000Y-82500000D01*
X111600000Y-84634314D01*
X111034314Y-85200000D01*
X107865686Y-85200000D01*
X107080000Y-84414314D01*
X107080000Y-84395877D01*
X107530000Y-84395877D01*
X107641173Y-84374958D01*
X107743279Y-84309255D01*
X107811778Y-84209003D01*
X107835877Y-84090000D01*
X107835877Y-82090000D01*
X107814958Y-81978827D01*
X107749255Y-81876721D01*
X107649003Y-81808222D01*
X107530000Y-81784123D01*
X107080000Y-81784123D01*
X107080000Y-79814916D01*
X107142616Y-79802461D01*
X107515703Y-79553173D01*
X107764991Y-79180086D01*
X107852530Y-78740000D01*
X107764991Y-78299914D01*
X107515703Y-77926827D01*
X107142616Y-77677539D01*
X106702530Y-77590000D01*
X106657470Y-77590000D01*
X106217384Y-77677539D01*
X105844297Y-77926827D01*
X105595009Y-78299914D01*
X105507470Y-78740000D01*
X104702560Y-78740000D01*
X104702560Y-76429114D01*
X105553054Y-76429114D01*
X105721117Y-76834866D01*
X106037060Y-77153488D01*
X106450885Y-77326950D01*
X106630000Y-77273917D01*
X106630000Y-76250000D01*
X106730000Y-76250000D01*
X106730000Y-77273917D01*
X106909115Y-77326950D01*
X107322940Y-77153488D01*
X107638883Y-76834866D01*
X107806946Y-76429114D01*
X107753837Y-76250000D01*
X106730000Y-76250000D01*
X106630000Y-76250000D01*
X105606163Y-76250000D01*
X105553054Y-76429114D01*
X104702560Y-76429114D01*
X104702560Y-75970886D01*
X105553054Y-75970886D01*
X105606163Y-76150000D01*
X106630000Y-76150000D01*
X106630000Y-75126083D01*
X106730000Y-75126083D01*
X106730000Y-76150000D01*
X107753837Y-76150000D01*
X107806946Y-75970886D01*
X107638883Y-75565134D01*
X107322940Y-75246512D01*
X106909115Y-75073050D01*
X106730000Y-75126083D01*
X106630000Y-75126083D01*
X106450885Y-75073050D01*
X106037060Y-75246512D01*
X105721117Y-75565134D01*
X105553054Y-75970886D01*
X104702560Y-75970886D01*
X104702560Y-72474406D01*
X105603769Y-71573197D01*
X105844297Y-71933173D01*
X106217384Y-72182461D01*
X106657470Y-72270000D01*
X106702530Y-72270000D01*
X107142616Y-72182461D01*
X107515703Y-71933173D01*
X107764991Y-71560086D01*
X107789308Y-71437839D01*
X107841683Y-71402843D01*
X109414315Y-69830211D01*
X109567424Y-69830344D01*
X109788029Y-69739192D01*
X109956959Y-69570557D01*
X110008720Y-69445902D01*
X110008720Y-72168434D01*
X109132365Y-73044789D01*
X108979256Y-73044656D01*
X108758651Y-73135808D01*
X108589721Y-73304443D01*
X108498184Y-73524889D01*
X108497976Y-73763584D01*
X108589128Y-73984189D01*
X108757763Y-74153119D01*
X108978209Y-74244656D01*
X109216904Y-74244864D01*
X109437509Y-74153712D01*
X109606439Y-73985077D01*
X109697976Y-73764631D01*
X109698110Y-73610416D01*
X110379560Y-72928966D01*
X110379560Y-75061595D01*
X110244523Y-74926557D01*
X110114754Y-74839848D01*
X109961680Y-74809400D01*
X109187566Y-74809400D01*
X107806436Y-73428270D01*
X107764991Y-73219914D01*
X107515703Y-72846827D01*
X107142616Y-72597539D01*
X106702530Y-72510000D01*
X106657470Y-72510000D01*
X106217384Y-72597539D01*
X105844297Y-72846827D01*
X105595009Y-73219914D01*
X105507470Y-73660000D01*
X105595009Y-74100086D01*
X105844297Y-74473173D01*
X106217384Y-74722461D01*
X106657470Y-74810000D01*
X106702530Y-74810000D01*
X107142616Y-74722461D01*
X107515703Y-74473173D01*
X107597520Y-74350726D01*
X108611720Y-75364926D01*
X108611720Y-77825600D01*
X108642168Y-77978674D01*
X108728877Y-78108443D01*
X110075077Y-79454643D01*
X110204847Y-79541352D01*
X110242400Y-79548822D01*
X110242400Y-81154954D01*
X109477157Y-81920197D01*
X109390448Y-82049966D01*
X109390448Y-82049967D01*
X109360000Y-82203040D01*
X109360000Y-82714123D01*
X108760000Y-82714123D01*
X108648827Y-82735042D01*
X108546721Y-82800745D01*
X108478222Y-82900997D01*
X108454123Y-83020000D01*
X108454123Y-84620000D01*
X108475042Y-84731173D01*
X108540745Y-84833279D01*
X108640997Y-84901778D01*
X108760000Y-84925877D01*
X110760000Y-84925877D01*
X110871173Y-84904958D01*
X110973279Y-84839255D01*
X111041778Y-84739003D01*
X111065877Y-84620000D01*
X111065877Y-83020000D01*
X111044958Y-82908827D01*
X110979255Y-82806721D01*
X110879003Y-82738222D01*
X110760000Y-82714123D01*
X110160000Y-82714123D01*
X110160000Y-82368726D01*
X110925243Y-81603483D01*
X111011952Y-81473714D01*
X111042400Y-81320640D01*
X111042400Y-79171800D01*
X111011952Y-79018727D01*
X110925243Y-78888957D01*
X110795473Y-78802248D01*
X110642400Y-78771800D01*
X110523606Y-78771800D01*
X109411720Y-77659914D01*
X109411720Y-75609400D01*
X109744560Y-75609400D01*
X109744560Y-77774800D01*
X109775008Y-77927874D01*
X109861717Y-78057643D01*
X110105557Y-78301483D01*
X110235326Y-78388192D01*
X110388400Y-78418641D01*
X110388405Y-78418640D01*
X111531400Y-78418640D01*
X111684474Y-78388192D01*
X111814243Y-78301483D01*
X113420982Y-76694744D01*
X115472816Y-76694744D01*
X115563968Y-76915349D01*
X115732603Y-77084279D01*
X115953049Y-77175816D01*
X116107265Y-77175950D01*
X116872115Y-77940800D01*
X116872117Y-77940803D01*
X116928794Y-77978673D01*
X117001886Y-78027512D01*
X117154960Y-78057961D01*
X117154965Y-78057960D01*
X123631960Y-78057960D01*
X123785034Y-78027512D01*
X123914803Y-77940803D01*
X124641243Y-77214363D01*
X124681918Y-77153488D01*
X124727952Y-77084593D01*
X124758400Y-76931520D01*
X124758400Y-73660000D01*
X139797470Y-73660000D01*
X139885009Y-74100086D01*
X140134297Y-74473173D01*
X140507384Y-74722461D01*
X140947470Y-74810000D01*
X140992530Y-74810000D01*
X141432616Y-74722461D01*
X141805703Y-74473173D01*
X142054991Y-74100086D01*
X142142530Y-73660000D01*
X142054991Y-73219914D01*
X141805703Y-72846827D01*
X141432616Y-72597539D01*
X140992530Y-72510000D01*
X140947470Y-72510000D01*
X140507384Y-72597539D01*
X140134297Y-72846827D01*
X139885009Y-73219914D01*
X139797470Y-73660000D01*
X124758400Y-73660000D01*
X124758400Y-72002396D01*
X124794328Y-72089349D01*
X124962963Y-72258279D01*
X125183409Y-72349816D01*
X125422104Y-72350024D01*
X125642709Y-72258872D01*
X125811639Y-72090237D01*
X125903176Y-71869791D01*
X125903384Y-71631096D01*
X125812232Y-71410491D01*
X125643597Y-71241561D01*
X125423151Y-71150024D01*
X125268935Y-71149890D01*
X125119080Y-71000034D01*
X125119080Y-69981020D01*
X125150923Y-70012919D01*
X125371369Y-70104456D01*
X125610064Y-70104664D01*
X125830669Y-70013512D01*
X125999599Y-69844877D01*
X126091136Y-69624431D01*
X126091270Y-69470216D01*
X126180166Y-69381320D01*
X132147994Y-69381320D01*
X133331315Y-70564640D01*
X133331317Y-70564643D01*
X133461087Y-70651352D01*
X133614160Y-70681800D01*
X139884634Y-70681800D01*
X139797470Y-71120000D01*
X139885009Y-71560086D01*
X140134297Y-71933173D01*
X140507384Y-72182461D01*
X140947470Y-72270000D01*
X140992530Y-72270000D01*
X141432616Y-72182461D01*
X141805703Y-71933173D01*
X142054991Y-71560086D01*
X142142530Y-71120000D01*
X142054991Y-70679914D01*
X141805703Y-70306827D01*
X141432616Y-70057539D01*
X140992530Y-69970000D01*
X140947470Y-69970000D01*
X140507384Y-70057539D01*
X140486907Y-70071221D01*
X140414643Y-69998957D01*
X140284874Y-69912248D01*
X140131800Y-69881800D01*
X135154524Y-69881800D01*
X135167709Y-69876352D01*
X135336639Y-69707717D01*
X135428176Y-69487271D01*
X135428211Y-69447360D01*
X140215394Y-69447360D01*
X140507384Y-69642461D01*
X140947470Y-69730000D01*
X140992530Y-69730000D01*
X141432616Y-69642461D01*
X141805703Y-69393173D01*
X142054991Y-69020086D01*
X142142530Y-68580000D01*
X142054991Y-68139914D01*
X141805703Y-67766827D01*
X141432616Y-67517539D01*
X140992530Y-67430000D01*
X140947470Y-67430000D01*
X140507384Y-67517539D01*
X140134297Y-67766827D01*
X139885009Y-68139914D01*
X139797470Y-68580000D01*
X139810869Y-68647360D01*
X135148320Y-68647360D01*
X134995246Y-68677808D01*
X134865477Y-68764517D01*
X134862565Y-68767429D01*
X134709456Y-68767296D01*
X134488851Y-68858448D01*
X134319921Y-69027083D01*
X134228384Y-69247529D01*
X134228176Y-69486224D01*
X134319328Y-69706829D01*
X134487963Y-69875759D01*
X134502511Y-69881800D01*
X133779845Y-69881800D01*
X132596523Y-68698477D01*
X132466754Y-68611768D01*
X132313680Y-68581320D01*
X126014480Y-68581320D01*
X125861406Y-68611768D01*
X125731637Y-68698477D01*
X125525525Y-68904589D01*
X125372416Y-68904456D01*
X125151811Y-68995608D01*
X125119080Y-69028282D01*
X125119080Y-67147995D01*
X125244304Y-67148104D01*
X125464909Y-67056952D01*
X125633839Y-66888317D01*
X125725376Y-66667871D01*
X125725584Y-66429176D01*
X125634432Y-66208571D01*
X125466156Y-66040000D01*
X139797470Y-66040000D01*
X139885009Y-66480086D01*
X140134297Y-66853173D01*
X140507384Y-67102461D01*
X140947470Y-67190000D01*
X140992530Y-67190000D01*
X141432616Y-67102461D01*
X141805703Y-66853173D01*
X142054991Y-66480086D01*
X142142530Y-66040000D01*
X142054991Y-65599914D01*
X141805703Y-65226827D01*
X141432616Y-64977539D01*
X140992530Y-64890000D01*
X140947470Y-64890000D01*
X140507384Y-64977539D01*
X140134297Y-65226827D01*
X139885009Y-65599914D01*
X139797470Y-66040000D01*
X125466156Y-66040000D01*
X125465797Y-66039641D01*
X125245351Y-65948104D01*
X125006656Y-65947896D01*
X124786051Y-66039048D01*
X124758400Y-66066651D01*
X124758400Y-64371806D01*
X125575645Y-63554560D01*
X128168400Y-63554560D01*
X128321474Y-63524112D01*
X128357560Y-63500000D01*
X139797470Y-63500000D01*
X139885009Y-63940086D01*
X140134297Y-64313173D01*
X140507384Y-64562461D01*
X140947470Y-64650000D01*
X140992530Y-64650000D01*
X141432616Y-64562461D01*
X141805703Y-64313173D01*
X142054991Y-63940086D01*
X142142530Y-63500000D01*
X142054991Y-63059914D01*
X141805703Y-62686827D01*
X141432616Y-62437539D01*
X140992530Y-62350000D01*
X140947470Y-62350000D01*
X140507384Y-62437539D01*
X140134297Y-62686827D01*
X139885009Y-63059914D01*
X139797470Y-63500000D01*
X128357560Y-63500000D01*
X128451243Y-63437403D01*
X130928646Y-60960000D01*
X139797470Y-60960000D01*
X139885009Y-61400086D01*
X140134297Y-61773173D01*
X140507384Y-62022461D01*
X140947470Y-62110000D01*
X140992530Y-62110000D01*
X141432616Y-62022461D01*
X141805703Y-61773173D01*
X142054991Y-61400086D01*
X142142530Y-60960000D01*
X142054991Y-60519914D01*
X141805703Y-60146827D01*
X141432616Y-59897539D01*
X140992530Y-59810000D01*
X140947470Y-59810000D01*
X140507384Y-59897539D01*
X140134297Y-60146827D01*
X139885009Y-60519914D01*
X139797470Y-60960000D01*
X130928646Y-60960000D01*
X133165166Y-58723480D01*
X139857836Y-58723480D01*
X139885009Y-58860086D01*
X140134297Y-59233173D01*
X140507384Y-59482461D01*
X140947470Y-59570000D01*
X140992530Y-59570000D01*
X141432616Y-59482461D01*
X141805703Y-59233173D01*
X142054991Y-58860086D01*
X142142530Y-58420000D01*
X142054991Y-57979914D01*
X141805703Y-57606827D01*
X141432616Y-57357539D01*
X140992530Y-57270000D01*
X140947470Y-57270000D01*
X140507384Y-57357539D01*
X140134297Y-57606827D01*
X139922717Y-57923480D01*
X132999485Y-57923480D01*
X132999480Y-57923479D01*
X132846406Y-57953928D01*
X132716637Y-58040637D01*
X128002714Y-62754560D01*
X125409960Y-62754560D01*
X125256887Y-62785008D01*
X125127117Y-62871717D01*
X125127115Y-62871720D01*
X124075557Y-63923277D01*
X123988848Y-64053046D01*
X123988848Y-64053047D01*
X123958400Y-64206120D01*
X123958400Y-76765834D01*
X123466274Y-77257960D01*
X117320645Y-77257960D01*
X116672891Y-76610205D01*
X116673024Y-76457096D01*
X116581872Y-76236491D01*
X116413237Y-76067561D01*
X116192791Y-75976024D01*
X115954096Y-75975816D01*
X115733491Y-76066968D01*
X115564561Y-76235603D01*
X115473024Y-76456049D01*
X115472816Y-76694744D01*
X113420982Y-76694744D01*
X113820843Y-76294883D01*
X113907552Y-76165114D01*
X113938000Y-76012040D01*
X113938000Y-72874047D01*
X114046359Y-72765877D01*
X114137896Y-72545431D01*
X114138104Y-72306736D01*
X114046952Y-72086131D01*
X113878317Y-71917201D01*
X113657871Y-71825664D01*
X113419176Y-71825456D01*
X113198571Y-71916608D01*
X113029641Y-72085243D01*
X112938104Y-72305689D01*
X112937896Y-72544384D01*
X113029048Y-72764989D01*
X113138000Y-72874132D01*
X113138000Y-75846354D01*
X111365714Y-77618640D01*
X111327131Y-77618640D01*
X111364119Y-77581717D01*
X111455656Y-77361271D01*
X111455864Y-77122576D01*
X111364712Y-76901971D01*
X111196077Y-76733041D01*
X111179560Y-76726183D01*
X111179560Y-69371237D01*
X111269289Y-69408496D01*
X111507984Y-69408704D01*
X111728589Y-69317552D01*
X111837732Y-69208600D01*
X117434360Y-69208600D01*
X117587434Y-69178152D01*
X117717203Y-69091443D01*
X118116355Y-68692291D01*
X118269464Y-68692424D01*
X118490069Y-68601272D01*
X118658999Y-68432637D01*
X118750536Y-68212191D01*
X118750744Y-67973496D01*
X118659592Y-67752891D01*
X118490957Y-67583961D01*
X118270511Y-67492424D01*
X118031816Y-67492216D01*
X117811211Y-67583368D01*
X117642281Y-67752003D01*
X117550744Y-67972449D01*
X117550610Y-68126664D01*
X117268674Y-68408600D01*
X111837647Y-68408600D01*
X111729477Y-68300241D01*
X111509031Y-68208704D01*
X111270336Y-68208496D01*
X111179560Y-68246004D01*
X111179560Y-66888453D01*
X111315009Y-66944696D01*
X111553704Y-66944904D01*
X111774309Y-66853752D01*
X111883452Y-66744800D01*
X122338514Y-66744800D01*
X123125280Y-67531566D01*
X123125280Y-74047400D01*
X116535200Y-74047400D01*
X116382126Y-74077848D01*
X116252357Y-74164557D01*
X116193565Y-74223349D01*
X116040456Y-74223216D01*
X115819851Y-74314368D01*
X115650921Y-74483003D01*
X115559384Y-74703449D01*
X115559176Y-74942144D01*
X115650328Y-75162749D01*
X115818963Y-75331679D01*
X116039409Y-75423216D01*
X116278104Y-75423424D01*
X116498709Y-75332272D01*
X116667639Y-75163637D01*
X116759176Y-74943191D01*
X116759259Y-74847400D01*
X123418600Y-74847400D01*
X123571674Y-74816952D01*
X123701443Y-74730243D01*
X123808120Y-74623565D01*
X123808123Y-74623563D01*
X123894832Y-74493793D01*
X123925280Y-74340720D01*
X123925280Y-67365880D01*
X123894832Y-67212806D01*
X123808123Y-67083037D01*
X122787043Y-66061957D01*
X122657274Y-65975248D01*
X122504200Y-65944800D01*
X111883367Y-65944800D01*
X111775197Y-65836441D01*
X111554751Y-65744904D01*
X111316056Y-65744696D01*
X111179560Y-65801095D01*
X111179560Y-65257680D01*
X111160099Y-65159841D01*
X111149112Y-65104606D01*
X111062403Y-64974837D01*
X109304723Y-63217157D01*
X109174954Y-63130448D01*
X109021880Y-63100000D01*
X107772965Y-63100000D01*
X107764991Y-63059914D01*
X107515703Y-62686827D01*
X107438258Y-62635080D01*
X127706120Y-62635080D01*
X127859194Y-62604632D01*
X127988963Y-62517923D01*
X132159643Y-58347243D01*
X132246352Y-58217474D01*
X132276800Y-58064400D01*
X132276800Y-57361406D01*
X135618806Y-54019400D01*
X138543714Y-54019400D01*
X139814123Y-55289809D01*
X139814123Y-56730000D01*
X139835042Y-56841173D01*
X139900745Y-56943279D01*
X140000997Y-57011778D01*
X140120000Y-57035877D01*
X141820000Y-57035877D01*
X141931173Y-57014958D01*
X142033279Y-56949255D01*
X142101778Y-56849003D01*
X142125877Y-56730000D01*
X142125877Y-55030000D01*
X142104958Y-54918827D01*
X142039255Y-54816721D01*
X141939003Y-54748222D01*
X141820000Y-54724123D01*
X140379809Y-54724123D01*
X138992243Y-53336557D01*
X138862474Y-53249848D01*
X138798284Y-53237080D01*
X141495194Y-53237080D01*
X143074440Y-54816326D01*
X143074440Y-75018314D01*
X142292754Y-75800000D01*
X142062965Y-75800000D01*
X142054991Y-75759914D01*
X141805703Y-75386827D01*
X141432616Y-75137539D01*
X140992530Y-75050000D01*
X140947470Y-75050000D01*
X140507384Y-75137539D01*
X140134297Y-75386827D01*
X139885009Y-75759914D01*
X139797470Y-76200000D01*
X139885009Y-76640086D01*
X140134297Y-77013173D01*
X140507384Y-77262461D01*
X140947470Y-77350000D01*
X140992530Y-77350000D01*
X141432616Y-77262461D01*
X141805703Y-77013173D01*
X142054991Y-76640086D01*
X142062965Y-76600000D01*
X142458440Y-76600000D01*
X142611514Y-76569552D01*
X142741283Y-76482843D01*
X143757283Y-75466843D01*
X143843992Y-75337074D01*
X143874440Y-75184000D01*
X143874440Y-72989059D01*
X143974329Y-73030536D01*
X144213024Y-73030744D01*
X144433629Y-72939592D01*
X144602559Y-72770957D01*
X144694096Y-72550511D01*
X144694304Y-72311816D01*
X144603152Y-72091211D01*
X144494200Y-71982068D01*
X144494200Y-54218840D01*
X144463752Y-54065767D01*
X144377043Y-53935997D01*
X144377040Y-53935995D01*
X142334883Y-51893837D01*
X142205114Y-51807128D01*
X142052040Y-51776680D01*
X133995160Y-51776680D01*
X133842086Y-51807128D01*
X133712317Y-51893837D01*
X132981114Y-52625040D01*
X128143000Y-52625040D01*
X127989926Y-52655488D01*
X127860157Y-52742197D01*
X125681479Y-54920875D01*
X125434172Y-54818185D01*
X125011682Y-54817816D01*
X124621211Y-54979155D01*
X124322205Y-55277640D01*
X124160185Y-55667828D01*
X124159816Y-56090318D01*
X124321155Y-56480789D01*
X124619640Y-56779795D01*
X125009828Y-56941815D01*
X125432318Y-56942184D01*
X125822789Y-56780845D01*
X126121795Y-56482360D01*
X126283815Y-56092172D01*
X126284184Y-55669682D01*
X126219819Y-55513907D01*
X128308686Y-53425040D01*
X133146800Y-53425040D01*
X133299874Y-53394592D01*
X133429643Y-53307883D01*
X134160846Y-52576680D01*
X134421394Y-52576680D01*
X131518074Y-55480000D01*
X128745809Y-55480000D01*
X128662845Y-55279211D01*
X128364360Y-54980205D01*
X127974172Y-54818185D01*
X127551682Y-54817816D01*
X127161211Y-54979155D01*
X126862205Y-55277640D01*
X126700185Y-55667828D01*
X126699816Y-56090318D01*
X126861155Y-56480789D01*
X127159640Y-56779795D01*
X127549828Y-56941815D01*
X127972318Y-56942184D01*
X128362789Y-56780845D01*
X128661795Y-56482360D01*
X128745822Y-56280000D01*
X131683760Y-56280000D01*
X131836834Y-56249552D01*
X131966603Y-56162843D01*
X134892366Y-53237080D01*
X135364236Y-53237080D01*
X135300046Y-53249848D01*
X135170277Y-53336557D01*
X131593957Y-56912877D01*
X131507248Y-57042646D01*
X131507248Y-57042647D01*
X131476800Y-57195720D01*
X131476800Y-57898714D01*
X127540434Y-61835080D01*
X107423052Y-61835080D01*
X107515703Y-61773173D01*
X107764991Y-61400086D01*
X107852530Y-60960000D01*
X107764991Y-60519914D01*
X107515703Y-60146827D01*
X107142616Y-59897539D01*
X106702530Y-59810000D01*
X106657470Y-59810000D01*
X106217384Y-59897539D01*
X105844297Y-60146827D01*
X105595009Y-60519914D01*
X105507470Y-60960000D01*
X105595009Y-61400086D01*
X105844297Y-61773173D01*
X105988021Y-61869206D01*
X105863757Y-61952237D01*
X105116997Y-62698997D01*
X105030288Y-62828766D01*
X105005577Y-62952997D01*
X104999840Y-62981840D01*
X104999840Y-63115015D01*
X104947677Y-63062761D01*
X104727231Y-62971224D01*
X104672080Y-62971176D01*
X104672080Y-58420000D01*
X105507470Y-58420000D01*
X105595009Y-58860086D01*
X105844297Y-59233173D01*
X106217384Y-59482461D01*
X106657470Y-59570000D01*
X106702530Y-59570000D01*
X107142616Y-59482461D01*
X107515703Y-59233173D01*
X107764991Y-58860086D01*
X107852530Y-58420000D01*
X107764991Y-57979914D01*
X107515703Y-57606827D01*
X107142616Y-57357539D01*
X106702530Y-57270000D01*
X106657470Y-57270000D01*
X106217384Y-57357539D01*
X105844297Y-57606827D01*
X105595009Y-57979914D01*
X105507470Y-58420000D01*
X104672080Y-58420000D01*
X104672080Y-56904206D01*
X105296285Y-56280000D01*
X105524123Y-56280000D01*
X105524123Y-56730000D01*
X105545042Y-56841173D01*
X105610745Y-56943279D01*
X105710997Y-57011778D01*
X105830000Y-57035877D01*
X107530000Y-57035877D01*
X107641173Y-57014958D01*
X107743279Y-56949255D01*
X107811778Y-56849003D01*
X107835877Y-56730000D01*
X107835877Y-56627104D01*
X119465606Y-56627104D01*
X119546673Y-56784463D01*
X119938112Y-56943437D01*
X120360591Y-56940512D01*
X120737327Y-56784463D01*
X120818394Y-56627104D01*
X120142000Y-55950711D01*
X119465606Y-56627104D01*
X107835877Y-56627104D01*
X107835877Y-55676112D01*
X119078563Y-55676112D01*
X119081488Y-56098591D01*
X119237537Y-56475327D01*
X119394896Y-56556394D01*
X120071289Y-55880000D01*
X120212711Y-55880000D01*
X120889104Y-56556394D01*
X121046463Y-56475327D01*
X121202825Y-56090318D01*
X121619816Y-56090318D01*
X121781155Y-56480789D01*
X122079640Y-56779795D01*
X122469828Y-56941815D01*
X122892318Y-56942184D01*
X123282789Y-56780845D01*
X123581795Y-56482360D01*
X123743815Y-56092172D01*
X123744184Y-55669682D01*
X123582845Y-55279211D01*
X123284360Y-54980205D01*
X122894172Y-54818185D01*
X122471682Y-54817816D01*
X122081211Y-54979155D01*
X121782205Y-55277640D01*
X121620185Y-55667828D01*
X121619816Y-56090318D01*
X121202825Y-56090318D01*
X121205437Y-56083888D01*
X121202512Y-55661409D01*
X121046463Y-55284673D01*
X120889104Y-55203606D01*
X120212711Y-55880000D01*
X120071289Y-55880000D01*
X119394896Y-55203606D01*
X119237537Y-55284673D01*
X119078563Y-55676112D01*
X107835877Y-55676112D01*
X107835877Y-55132896D01*
X119465606Y-55132896D01*
X120142000Y-55809289D01*
X120818394Y-55132896D01*
X120737327Y-54975537D01*
X120345888Y-54816563D01*
X119923409Y-54819488D01*
X119546673Y-54975537D01*
X119465606Y-55132896D01*
X107835877Y-55132896D01*
X107835877Y-55030000D01*
X107814958Y-54918827D01*
X107749255Y-54816721D01*
X107649003Y-54748222D01*
X107530000Y-54724123D01*
X105830000Y-54724123D01*
X105718827Y-54745042D01*
X105616721Y-54810745D01*
X105548222Y-54910997D01*
X105524123Y-55030000D01*
X105524123Y-55480000D01*
X105130605Y-55480000D01*
X105130600Y-55479999D01*
X104977526Y-55510448D01*
X104912642Y-55553803D01*
X104847757Y-55597157D01*
X104847755Y-55597160D01*
X103989237Y-56455677D01*
X103902528Y-56585446D01*
X103902528Y-56585447D01*
X103872080Y-56738520D01*
X101975000Y-56738520D01*
X101975000Y-53376932D01*
X102146588Y-52514303D01*
X102614309Y-51814309D01*
X103314303Y-51346588D01*
X104176932Y-51175000D01*
X143473068Y-51175000D01*
X144335697Y-51346588D01*
X144335697Y-51346588D01*
G37*
X144335697Y-51346588D02*
X145035691Y-51814309D01*
X145503412Y-52514303D01*
X145675000Y-53376932D01*
X145675000Y-91440000D01*
X145682206Y-91476226D01*
X145682206Y-91513159D01*
X145875552Y-92485175D01*
X145931545Y-92620355D01*
X146482148Y-93444390D01*
X146585610Y-93547852D01*
X147409645Y-94098455D01*
X147544825Y-94154449D01*
X147544830Y-94154449D01*
X148516841Y-94347794D01*
X148553774Y-94347794D01*
X148590000Y-94355000D01*
X153633068Y-94355000D01*
X154495697Y-94526588D01*
X155195691Y-94994309D01*
X155663412Y-95694303D01*
X155835000Y-96556932D01*
X155835000Y-135853068D01*
X155834352Y-135856324D01*
X155675790Y-135059175D01*
X155205165Y-134354835D01*
X154500825Y-133884210D01*
X153670000Y-133718949D01*
X152839175Y-133884210D01*
X152134835Y-134354835D01*
X151664210Y-135059175D01*
X151498949Y-135890000D01*
X151664210Y-136720825D01*
X152134835Y-137425165D01*
X152839175Y-137895790D01*
X153636324Y-138054352D01*
X153633068Y-138055000D01*
X94016932Y-138055000D01*
X94013676Y-138054352D01*
X94810825Y-137895790D01*
X95515165Y-137425165D01*
X95985790Y-136720825D01*
X96151051Y-135890000D01*
X95985790Y-135059175D01*
X95515165Y-134354835D01*
X94810825Y-133884210D01*
X93980000Y-133718949D01*
X93149175Y-133884210D01*
X92444835Y-134354835D01*
X91974210Y-135059175D01*
X91815648Y-135856324D01*
X91815000Y-135853068D01*
X91815000Y-97790000D01*
X92335000Y-97790000D01*
X92335000Y-104140000D01*
X92342206Y-104176226D01*
X92342206Y-104213159D01*
X92438878Y-104699166D01*
X92438878Y-104699167D01*
X92494872Y-104834347D01*
X92770172Y-105246364D01*
X92873635Y-105349827D01*
X93285652Y-105625127D01*
X93285653Y-105625128D01*
X93420833Y-105681121D01*
X93906841Y-105777794D01*
X93943774Y-105777794D01*
X93980000Y-105785000D01*
X95250000Y-105785000D01*
X95286226Y-105777794D01*
X95323159Y-105777794D01*
X95809166Y-105681122D01*
X95809167Y-105681122D01*
X95944347Y-105625128D01*
X96356364Y-105349828D01*
X96459827Y-105246365D01*
X96735128Y-104834347D01*
X96791121Y-104699167D01*
X96791121Y-104699166D01*
X96887794Y-104213159D01*
X96887794Y-104176226D01*
X96895000Y-104140000D01*
X96895000Y-97790000D01*
X150755000Y-97790000D01*
X150755000Y-104140000D01*
X150762206Y-104176226D01*
X150762206Y-104213159D01*
X150858878Y-104699166D01*
X150858878Y-104699167D01*
X150914872Y-104834347D01*
X151190172Y-105246364D01*
X151293635Y-105349827D01*
X151705652Y-105625127D01*
X151705653Y-105625128D01*
X151840833Y-105681121D01*
X152326841Y-105777794D01*
X152363774Y-105777794D01*
X152400000Y-105785000D01*
X153670000Y-105785000D01*
X153706226Y-105777794D01*
X153743159Y-105777794D01*
X154229166Y-105681122D01*
X154229167Y-105681122D01*
X154364347Y-105625128D01*
X154776364Y-105349828D01*
X154879827Y-105246365D01*
X155155128Y-104834347D01*
X155211121Y-104699167D01*
X155211121Y-104699166D01*
X155307794Y-104213159D01*
X155307794Y-104176226D01*
X155315000Y-104140000D01*
X155315000Y-97790000D01*
X155307794Y-97753774D01*
X155307794Y-97716841D01*
X155211121Y-97230833D01*
X155155128Y-97095653D01*
X154879827Y-96683635D01*
X154776364Y-96580172D01*
X154364347Y-96304872D01*
X154229167Y-96248878D01*
X154229166Y-96248878D01*
X153743159Y-96152206D01*
X153706226Y-96152206D01*
X153670000Y-96145000D01*
X152400000Y-96145000D01*
X152363774Y-96152206D01*
X152326841Y-96152206D01*
X151840833Y-96248879D01*
X151705653Y-96304872D01*
X151293635Y-96580173D01*
X151190172Y-96683636D01*
X150914872Y-97095653D01*
X150858878Y-97230833D01*
X150858878Y-97230834D01*
X150762206Y-97716841D01*
X150762206Y-97753774D01*
X150755000Y-97790000D01*
X96895000Y-97790000D01*
X96887794Y-97753774D01*
X96887794Y-97716841D01*
X96791121Y-97230833D01*
X96735128Y-97095653D01*
X96459827Y-96683635D01*
X96356364Y-96580172D01*
X96266310Y-96520000D01*
X103511000Y-96520000D01*
X103511000Y-96774000D01*
X103518205Y-96810222D01*
X103518205Y-96847159D01*
X103556875Y-97041562D01*
X103556875Y-97041563D01*
X103612868Y-97176742D01*
X103722989Y-97341550D01*
X103758591Y-97377151D01*
X103826451Y-97445011D01*
X103991258Y-97555132D01*
X104047252Y-97578325D01*
X104126438Y-97611126D01*
X104320842Y-97649795D01*
X104357778Y-97649795D01*
X104394000Y-97657000D01*
X111252000Y-97657000D01*
X111288222Y-97649795D01*
X111325159Y-97649795D01*
X111519562Y-97611125D01*
X111519563Y-97611125D01*
X111654742Y-97555132D01*
X111819550Y-97445011D01*
X111887409Y-97377151D01*
X111923011Y-97341549D01*
X112033132Y-97176742D01*
X112064790Y-97100313D01*
X112089126Y-97041562D01*
X112127795Y-96847158D01*
X112127795Y-96810222D01*
X112135000Y-96774000D01*
X112135000Y-96520000D01*
X112127795Y-96483778D01*
X112127795Y-96446842D01*
X112089126Y-96252438D01*
X112047608Y-96152206D01*
X112033132Y-96117258D01*
X111923011Y-95952451D01*
X111871280Y-95900720D01*
X111819550Y-95848989D01*
X111654742Y-95738868D01*
X111519563Y-95682875D01*
X111519562Y-95682875D01*
X111325159Y-95644205D01*
X111288222Y-95644205D01*
X111252000Y-95637000D01*
X104394000Y-95637000D01*
X104357778Y-95644205D01*
X104320842Y-95644205D01*
X104126438Y-95682874D01*
X104084613Y-95700199D01*
X103991258Y-95738868D01*
X103826451Y-95848989D01*
X103774721Y-95900719D01*
X103722989Y-95952450D01*
X103612868Y-96117258D01*
X103558350Y-96248878D01*
X103556875Y-96252438D01*
X103518205Y-96446841D01*
X103518205Y-96483778D01*
X103511000Y-96520000D01*
X96266310Y-96520000D01*
X95944347Y-96304872D01*
X95809167Y-96248878D01*
X95809166Y-96248878D01*
X95323159Y-96152206D01*
X95286226Y-96152206D01*
X95250000Y-96145000D01*
X93980000Y-96145000D01*
X93943774Y-96152206D01*
X93906841Y-96152206D01*
X93420833Y-96248879D01*
X93285653Y-96304872D01*
X92873635Y-96580173D01*
X92770172Y-96683636D01*
X92494872Y-97095653D01*
X92438878Y-97230833D01*
X92438878Y-97230834D01*
X92342206Y-97716841D01*
X92342206Y-97753774D01*
X92335000Y-97790000D01*
X91815000Y-97790000D01*
X91815000Y-96556932D01*
X91986588Y-95694303D01*
X92454309Y-94994309D01*
X93154303Y-94526588D01*
X94016932Y-94355000D01*
X99060000Y-94355000D01*
X99096226Y-94347794D01*
X99133159Y-94347794D01*
X100105175Y-94154448D01*
X100240355Y-94098455D01*
X101064390Y-93547852D01*
X101167852Y-93444390D01*
X101658556Y-92710000D01*
X103238949Y-92710000D01*
X103404210Y-93540825D01*
X103874835Y-94245165D01*
X104579175Y-94715790D01*
X105410000Y-94881051D01*
X106240825Y-94715790D01*
X106945165Y-94245165D01*
X107415790Y-93540825D01*
X107556187Y-92835000D01*
X108460000Y-92835000D01*
X108460000Y-93619673D01*
X108505672Y-93729936D01*
X108590063Y-93814328D01*
X108700326Y-93860000D01*
X109635000Y-93860000D01*
X109710000Y-93785000D01*
X109710000Y-92760000D01*
X109810000Y-92760000D01*
X109810000Y-93785000D01*
X109885000Y-93860000D01*
X110819674Y-93860000D01*
X110929937Y-93814328D01*
X111014328Y-93729936D01*
X111060000Y-93619673D01*
X111060000Y-92835000D01*
X110985000Y-92760000D01*
X109810000Y-92760000D01*
X109710000Y-92760000D01*
X108535000Y-92760000D01*
X108460000Y-92835000D01*
X107556187Y-92835000D01*
X107581051Y-92710000D01*
X107415790Y-91879175D01*
X107363106Y-91800327D01*
X108460000Y-91800327D01*
X108460000Y-92585000D01*
X108535000Y-92660000D01*
X109710000Y-92660000D01*
X109710000Y-91635000D01*
X109810000Y-91635000D01*
X109810000Y-92660000D01*
X110985000Y-92660000D01*
X111060000Y-92585000D01*
X111060000Y-91860000D01*
X112454123Y-91860000D01*
X112454123Y-93560000D01*
X112475042Y-93671173D01*
X112540745Y-93773279D01*
X112640997Y-93841778D01*
X112760000Y-93865877D01*
X114760000Y-93865877D01*
X114871173Y-93844958D01*
X114973279Y-93779255D01*
X115041778Y-93679003D01*
X115065877Y-93560000D01*
X115065877Y-93110000D01*
X119390000Y-93110000D01*
X119543074Y-93079552D01*
X119672843Y-92992843D01*
X120604423Y-92061263D01*
X120686314Y-92143154D01*
X120779717Y-92206973D01*
X120898376Y-92232714D01*
X120899048Y-92232588D01*
X120919727Y-92342485D01*
X120986834Y-92443674D01*
X121693941Y-93150781D01*
X121787344Y-93214600D01*
X121906003Y-93240341D01*
X121909484Y-93239686D01*
X121980939Y-93346625D01*
X124917155Y-96282840D01*
X124917157Y-96282843D01*
X125046927Y-96369552D01*
X125200000Y-96400000D01*
X132100000Y-96400000D01*
X132253074Y-96369552D01*
X132382843Y-96282843D01*
X135955685Y-92710000D01*
X140068949Y-92710000D01*
X140234210Y-93540825D01*
X140704835Y-94245165D01*
X141409175Y-94715790D01*
X142240000Y-94881051D01*
X143070825Y-94715790D01*
X143775165Y-94245165D01*
X144245790Y-93540825D01*
X144411051Y-92710000D01*
X144245790Y-91879175D01*
X143775165Y-91174835D01*
X143070825Y-90704210D01*
X142240000Y-90538949D01*
X141409175Y-90704210D01*
X140704835Y-91174835D01*
X140234210Y-91879175D01*
X140068949Y-92710000D01*
X135955685Y-92710000D01*
X136182840Y-92482845D01*
X136182843Y-92482843D01*
X136269552Y-92353073D01*
X136278120Y-92310000D01*
X136300001Y-92200000D01*
X136300000Y-92199995D01*
X136300000Y-89025000D01*
X136590000Y-89025000D01*
X136590000Y-89809673D01*
X136635672Y-89919936D01*
X136720063Y-90004328D01*
X136830326Y-90050000D01*
X137765000Y-90050000D01*
X137840000Y-89975000D01*
X137840000Y-88950000D01*
X137940000Y-88950000D01*
X137940000Y-89975000D01*
X138015000Y-90050000D01*
X138949674Y-90050000D01*
X139059937Y-90004328D01*
X139144328Y-89919936D01*
X139190000Y-89809673D01*
X139190000Y-89025000D01*
X139115000Y-88950000D01*
X137940000Y-88950000D01*
X137840000Y-88950000D01*
X136665000Y-88950000D01*
X136590000Y-89025000D01*
X136300000Y-89025000D01*
X136300000Y-87990327D01*
X136590000Y-87990327D01*
X136590000Y-88775000D01*
X136665000Y-88850000D01*
X137840000Y-88850000D01*
X137840000Y-87825000D01*
X137940000Y-87825000D01*
X137940000Y-88850000D01*
X139115000Y-88850000D01*
X139190000Y-88775000D01*
X139190000Y-87990327D01*
X139144328Y-87880064D01*
X139059937Y-87795672D01*
X138949674Y-87750000D01*
X138015000Y-87750000D01*
X137940000Y-87825000D01*
X137840000Y-87825000D01*
X137765000Y-87750000D01*
X136830326Y-87750000D01*
X136720063Y-87795672D01*
X136635672Y-87880064D01*
X136590000Y-87990327D01*
X136300000Y-87990327D01*
X136300000Y-86600000D01*
X136296865Y-86584241D01*
X136277126Y-86485000D01*
X136590000Y-86485000D01*
X136590000Y-87269673D01*
X136635672Y-87379936D01*
X136720063Y-87464328D01*
X136830326Y-87510000D01*
X137765000Y-87510000D01*
X137840000Y-87435000D01*
X137840000Y-86410000D01*
X137940000Y-86410000D01*
X137940000Y-87435000D01*
X138015000Y-87510000D01*
X138949674Y-87510000D01*
X139059937Y-87464328D01*
X139144328Y-87379936D01*
X139190000Y-87269673D01*
X139190000Y-86485000D01*
X139115000Y-86410000D01*
X137940000Y-86410000D01*
X137840000Y-86410000D01*
X136665000Y-86410000D01*
X136590000Y-86485000D01*
X136277126Y-86485000D01*
X136269552Y-86446926D01*
X136182843Y-86317157D01*
X135942843Y-86077157D01*
X135813074Y-85990448D01*
X135660000Y-85960000D01*
X135195877Y-85960000D01*
X135195877Y-85510000D01*
X135184649Y-85450327D01*
X136590000Y-85450327D01*
X136590000Y-86235000D01*
X136665000Y-86310000D01*
X137840000Y-86310000D01*
X137840000Y-85285000D01*
X137940000Y-85285000D01*
X137940000Y-86310000D01*
X139115000Y-86310000D01*
X139190000Y-86235000D01*
X139190000Y-85450327D01*
X139144328Y-85340064D01*
X139059937Y-85255672D01*
X138949674Y-85210000D01*
X138015000Y-85210000D01*
X137940000Y-85285000D01*
X137840000Y-85285000D01*
X137765000Y-85210000D01*
X136830326Y-85210000D01*
X136720063Y-85255672D01*
X136635672Y-85340064D01*
X136590000Y-85450327D01*
X135184649Y-85450327D01*
X135174958Y-85398827D01*
X135109255Y-85296721D01*
X135009003Y-85228222D01*
X134890000Y-85204123D01*
X132890000Y-85204123D01*
X132778827Y-85225042D01*
X132676721Y-85290745D01*
X132608222Y-85390997D01*
X132584123Y-85510000D01*
X132584123Y-87210000D01*
X132605042Y-87321173D01*
X132670745Y-87423279D01*
X132770997Y-87491778D01*
X132890000Y-87515877D01*
X134890000Y-87515877D01*
X135001173Y-87494958D01*
X135103279Y-87429255D01*
X135171778Y-87329003D01*
X135195877Y-87210000D01*
X135195877Y-86760000D01*
X135494314Y-86760000D01*
X135500000Y-86765686D01*
X135500000Y-92034315D01*
X131934314Y-95600000D01*
X125365685Y-95600000D01*
X122663782Y-92898096D01*
X122663782Y-92613516D01*
X123540730Y-91736568D01*
X123604549Y-91643165D01*
X123630290Y-91524506D01*
X123607837Y-91405181D01*
X123540730Y-91303992D01*
X123505304Y-91268566D01*
X124963138Y-91268566D01*
X124985591Y-91387891D01*
X125052698Y-91489080D01*
X126466912Y-92903294D01*
X126560315Y-92967113D01*
X126678974Y-92992854D01*
X126798299Y-92970401D01*
X126899488Y-92903294D01*
X128313702Y-91489080D01*
X128377521Y-91395677D01*
X128403262Y-91277018D01*
X128380809Y-91157693D01*
X128313702Y-91056504D01*
X126899488Y-89642290D01*
X126806085Y-89578471D01*
X126687426Y-89552730D01*
X126568101Y-89575183D01*
X126466912Y-89642290D01*
X125052698Y-91056504D01*
X124988879Y-91149907D01*
X124963138Y-91268566D01*
X123505304Y-91268566D01*
X122833623Y-90596885D01*
X122740220Y-90533066D01*
X122621561Y-90507325D01*
X122620889Y-90507451D01*
X122600210Y-90397554D01*
X122533103Y-90296365D01*
X122086874Y-89850136D01*
X124242063Y-89850136D01*
X124371195Y-90162659D01*
X124610095Y-90401976D01*
X124922393Y-90531654D01*
X125260544Y-90531949D01*
X125573067Y-90402817D01*
X125812384Y-90163917D01*
X125942062Y-89851619D01*
X125942357Y-89513468D01*
X125813225Y-89200945D01*
X125574325Y-88961628D01*
X125262027Y-88831950D01*
X124923876Y-88831655D01*
X124611353Y-88960787D01*
X124372036Y-89199687D01*
X124242358Y-89511985D01*
X124242063Y-89850136D01*
X122086874Y-89850136D01*
X121825996Y-89589258D01*
X121732593Y-89525439D01*
X121613934Y-89499698D01*
X121609188Y-89500591D01*
X121609188Y-89445351D01*
X121563515Y-89335089D01*
X121256155Y-89027729D01*
X121150089Y-89027729D01*
X120319239Y-89858579D01*
X120333381Y-89872721D01*
X120262670Y-89943432D01*
X120248528Y-89929290D01*
X119417678Y-90760140D01*
X119417678Y-90866206D01*
X119725038Y-91173566D01*
X119835300Y-91219239D01*
X119890344Y-91219239D01*
X119912100Y-91334858D01*
X119979207Y-91436047D01*
X120038737Y-91495577D01*
X119224314Y-92310000D01*
X115065877Y-92310000D01*
X115065877Y-91860000D01*
X115044958Y-91748827D01*
X114979255Y-91646721D01*
X114879003Y-91578222D01*
X114760000Y-91554123D01*
X112760000Y-91554123D01*
X112648827Y-91575042D01*
X112546721Y-91640745D01*
X112478222Y-91740997D01*
X112454123Y-91860000D01*
X111060000Y-91860000D01*
X111060000Y-91800327D01*
X111014328Y-91690064D01*
X110929937Y-91605672D01*
X110819674Y-91560000D01*
X109885000Y-91560000D01*
X109810000Y-91635000D01*
X109710000Y-91635000D01*
X109635000Y-91560000D01*
X108700326Y-91560000D01*
X108590063Y-91605672D01*
X108505672Y-91690064D01*
X108460000Y-91800327D01*
X107363106Y-91800327D01*
X106945165Y-91174835D01*
X106240825Y-90704210D01*
X105410000Y-90538949D01*
X104579175Y-90704210D01*
X103874835Y-91174835D01*
X103404210Y-91879175D01*
X103238949Y-92710000D01*
X101658556Y-92710000D01*
X101718455Y-92620355D01*
X101774449Y-92485175D01*
X101774449Y-92485170D01*
X101967794Y-91513159D01*
X101967794Y-91476226D01*
X101975000Y-91440000D01*
X101975000Y-90152459D01*
X118887867Y-90152459D01*
X118887868Y-90271807D01*
X118933541Y-90382069D01*
X119240901Y-90689429D01*
X119346967Y-90689429D01*
X120177817Y-89858579D01*
X119700520Y-89381282D01*
X119594454Y-89381282D01*
X118933540Y-90042196D01*
X118887867Y-90152459D01*
X101975000Y-90152459D01*
X101975000Y-68580000D01*
X105507470Y-68580000D01*
X105595009Y-69020086D01*
X105844297Y-69393173D01*
X106217384Y-69642461D01*
X106657470Y-69730000D01*
X106702530Y-69730000D01*
X107142616Y-69642461D01*
X107515703Y-69393173D01*
X107764991Y-69020086D01*
X107852530Y-68580000D01*
X107764991Y-68139914D01*
X107515703Y-67766827D01*
X107142616Y-67517539D01*
X106702530Y-67430000D01*
X106657470Y-67430000D01*
X106217384Y-67517539D01*
X105844297Y-67766827D01*
X105595009Y-68139914D01*
X105507470Y-68580000D01*
X101975000Y-68580000D01*
X101975000Y-56738520D01*
X103872080Y-56738520D01*
X103872080Y-63235840D01*
X103902528Y-63388914D01*
X103989237Y-63518683D01*
X104007389Y-63536835D01*
X104007256Y-63689944D01*
X104098408Y-63910549D01*
X104267043Y-64079479D01*
X104487489Y-64171016D01*
X104726184Y-64171224D01*
X104946789Y-64080072D01*
X105000483Y-64026472D01*
X105030288Y-64176314D01*
X105116997Y-64306083D01*
X105853597Y-65042683D01*
X105983366Y-65129392D01*
X105988570Y-65130427D01*
X105844297Y-65226827D01*
X105595009Y-65599914D01*
X105507470Y-66040000D01*
X105595009Y-66480086D01*
X105844297Y-66853173D01*
X106217384Y-67102461D01*
X106657470Y-67190000D01*
X106702530Y-67190000D01*
X107142616Y-67102461D01*
X107515703Y-66853173D01*
X107764991Y-66480086D01*
X107852530Y-66040000D01*
X107764991Y-65599914D01*
X107515703Y-65226827D01*
X107415450Y-65159840D01*
X108993354Y-65159840D01*
X110008720Y-66175205D01*
X110008720Y-69014647D01*
X109957552Y-68890811D01*
X109788917Y-68721881D01*
X109568471Y-68630344D01*
X109329776Y-68630136D01*
X109109171Y-68721288D01*
X108940241Y-68889923D01*
X108848704Y-69110369D01*
X108848570Y-69264584D01*
X107632110Y-70481044D01*
X107515703Y-70306827D01*
X107142616Y-70057539D01*
X106702530Y-69970000D01*
X106657470Y-69970000D01*
X106217384Y-70057539D01*
X105844297Y-70306827D01*
X105595009Y-70679914D01*
X105587035Y-70720000D01*
X105491280Y-70720000D01*
X105338206Y-70750448D01*
X105208437Y-70837157D01*
X104019717Y-72025877D01*
X103933008Y-72155646D01*
X103933008Y-72155647D01*
X103902560Y-72308720D01*
X103902560Y-88879680D01*
X103933008Y-89032754D01*
X104019717Y-89162523D01*
X104182275Y-89325080D01*
X104182277Y-89325083D01*
X104312047Y-89411792D01*
X104465120Y-89442241D01*
X104465125Y-89442240D01*
X107543600Y-89442240D01*
X107696674Y-89411792D01*
X107826443Y-89325083D01*
X107851526Y-89300000D01*
X108454123Y-89300000D01*
X108454123Y-89750000D01*
X108475042Y-89861173D01*
X108540745Y-89963279D01*
X108640997Y-90031778D01*
X108760000Y-90055877D01*
X110760000Y-90055877D01*
X110871173Y-90034958D01*
X110973279Y-89969255D01*
X111041778Y-89869003D01*
X111065877Y-89750000D01*
X111065877Y-89025000D01*
X112460000Y-89025000D01*
X112460000Y-89809673D01*
X112505672Y-89919936D01*
X112590063Y-90004328D01*
X112700326Y-90050000D01*
X113635000Y-90050000D01*
X113710000Y-89975000D01*
X113710000Y-88950000D01*
X113810000Y-88950000D01*
X113810000Y-89975000D01*
X113885000Y-90050000D01*
X114819674Y-90050000D01*
X114929937Y-90004328D01*
X115014328Y-89919936D01*
X115060000Y-89809673D01*
X115060000Y-89204505D01*
X119771231Y-89204505D01*
X119771231Y-89310571D01*
X120248528Y-89787868D01*
X121079378Y-88957018D01*
X121079378Y-88850952D01*
X120772018Y-88543592D01*
X120661756Y-88497919D01*
X120542408Y-88497918D01*
X120432145Y-88543591D01*
X119771231Y-89204505D01*
X115060000Y-89204505D01*
X115060000Y-89025000D01*
X114985000Y-88950000D01*
X113810000Y-88950000D01*
X113710000Y-88950000D01*
X112535000Y-88950000D01*
X112460000Y-89025000D01*
X111065877Y-89025000D01*
X111065877Y-88050000D01*
X111054649Y-87990327D01*
X112460000Y-87990327D01*
X112460000Y-88775000D01*
X112535000Y-88850000D01*
X113710000Y-88850000D01*
X113710000Y-87825000D01*
X113810000Y-87825000D01*
X113810000Y-88850000D01*
X114985000Y-88850000D01*
X115060000Y-88775000D01*
X115060000Y-87990327D01*
X115014328Y-87880064D01*
X114929937Y-87795672D01*
X114819674Y-87750000D01*
X113885000Y-87750000D01*
X113810000Y-87825000D01*
X113710000Y-87825000D01*
X113635000Y-87750000D01*
X112700326Y-87750000D01*
X112590063Y-87795672D01*
X112505672Y-87880064D01*
X112460000Y-87990327D01*
X111054649Y-87990327D01*
X111044958Y-87938827D01*
X110979255Y-87836721D01*
X110879003Y-87768222D01*
X110760000Y-87744123D01*
X108760000Y-87744123D01*
X108648827Y-87765042D01*
X108546721Y-87830745D01*
X108478222Y-87930997D01*
X108454123Y-88050000D01*
X108454123Y-88500000D01*
X107685845Y-88500000D01*
X107685840Y-88499999D01*
X107532766Y-88530448D01*
X107402997Y-88617157D01*
X107377914Y-88642240D01*
X104702560Y-88642240D01*
X104702560Y-78740000D01*
X105507470Y-78740000D01*
X105595009Y-79180086D01*
X105844297Y-79553173D01*
X106217384Y-79802461D01*
X106280000Y-79814916D01*
X106280000Y-81784123D01*
X105830000Y-81784123D01*
X105718827Y-81805042D01*
X105616721Y-81870745D01*
X105548222Y-81970997D01*
X105524123Y-82090000D01*
X105524123Y-84090000D01*
X105545042Y-84201173D01*
X105610745Y-84303279D01*
X105710997Y-84371778D01*
X105830000Y-84395877D01*
X106280000Y-84395877D01*
X106280000Y-84580000D01*
X106310448Y-84733074D01*
X106397157Y-84862843D01*
X107318437Y-85784123D01*
X105830000Y-85784123D01*
X105718827Y-85805042D01*
X105616721Y-85870745D01*
X105548222Y-85970997D01*
X105524123Y-86090000D01*
X105524123Y-88090000D01*
X105545042Y-88201173D01*
X105610745Y-88303279D01*
X105710997Y-88371778D01*
X105830000Y-88395877D01*
X107530000Y-88395877D01*
X107641173Y-88374958D01*
X107743279Y-88309255D01*
X107811778Y-88209003D01*
X107835877Y-88090000D01*
X107835877Y-87490000D01*
X108230920Y-87490000D01*
X108383994Y-87459552D01*
X108513763Y-87372843D01*
X108515155Y-87371451D01*
X108668264Y-87371584D01*
X108888869Y-87280432D01*
X109040102Y-87129463D01*
X121725086Y-87129463D01*
X121828392Y-87379482D01*
X122019512Y-87570936D01*
X122269350Y-87674678D01*
X122539871Y-87674914D01*
X122789890Y-87571608D01*
X122981344Y-87380488D01*
X123085086Y-87130650D01*
X123085322Y-86860129D01*
X122982016Y-86610110D01*
X122790896Y-86418656D01*
X122541058Y-86314914D01*
X122270537Y-86314678D01*
X122020518Y-86417984D01*
X121829064Y-86609104D01*
X121725322Y-86858942D01*
X121725086Y-87129463D01*
X109040102Y-87129463D01*
X109057799Y-87111797D01*
X109149336Y-86891351D01*
X109149544Y-86652656D01*
X109058392Y-86432051D01*
X108889757Y-86263121D01*
X108669311Y-86171584D01*
X108430616Y-86171376D01*
X108210011Y-86262528D01*
X108041081Y-86431163D01*
X107949544Y-86651609D01*
X107949511Y-86690000D01*
X107835877Y-86690000D01*
X107835877Y-86090000D01*
X107818942Y-86000000D01*
X111200000Y-86000000D01*
X111353074Y-85969552D01*
X111482843Y-85882843D01*
X112036817Y-85328869D01*
X119164862Y-85328869D01*
X119187315Y-85448194D01*
X119254422Y-85549383D01*
X120668636Y-86963597D01*
X120762039Y-87027416D01*
X120880698Y-87053157D01*
X121000023Y-87030704D01*
X121101212Y-86963597D01*
X122515426Y-85549383D01*
X122579245Y-85455980D01*
X122604986Y-85337321D01*
X122582533Y-85217996D01*
X122515426Y-85116807D01*
X121101212Y-83702593D01*
X121007809Y-83638774D01*
X120889150Y-83613033D01*
X120769825Y-83635486D01*
X120668636Y-83702593D01*
X119254422Y-85116807D01*
X119190603Y-85210210D01*
X119164862Y-85328869D01*
X112036817Y-85328869D01*
X112282843Y-85082843D01*
X112369552Y-84953074D01*
X112400001Y-84800000D01*
X112400000Y-84799995D01*
X112400000Y-83945000D01*
X112460000Y-83945000D01*
X112460000Y-84679673D01*
X112505672Y-84789936D01*
X112590063Y-84874328D01*
X112700326Y-84920000D01*
X113635000Y-84920000D01*
X113710000Y-84845000D01*
X113710000Y-83870000D01*
X113810000Y-83870000D01*
X113810000Y-84845000D01*
X113885000Y-84920000D01*
X114819674Y-84920000D01*
X114929937Y-84874328D01*
X115014328Y-84789936D01*
X115060000Y-84679673D01*
X115060000Y-83945000D01*
X114985000Y-83870000D01*
X113810000Y-83870000D01*
X113710000Y-83870000D01*
X112535000Y-83870000D01*
X112460000Y-83945000D01*
X112400000Y-83945000D01*
X112400000Y-83000000D01*
X112460000Y-83000000D01*
X112460000Y-83695000D01*
X112535000Y-83770000D01*
X113710000Y-83770000D01*
X113710000Y-83750000D01*
X113810000Y-83750000D01*
X113810000Y-83770000D01*
X114985000Y-83770000D01*
X115060000Y-83695000D01*
X115060000Y-83000000D01*
X120534314Y-83000000D01*
X123000000Y-85465685D01*
X123000000Y-85600000D01*
X123030448Y-85753074D01*
X123117157Y-85882843D01*
X124417155Y-87182840D01*
X124417157Y-87182843D01*
X124457801Y-87210000D01*
X124546926Y-87269552D01*
X124700000Y-87300001D01*
X124700005Y-87300000D01*
X125222361Y-87300000D01*
X125375435Y-87269552D01*
X125505204Y-87182843D01*
X125636061Y-87051985D01*
X125706772Y-87122696D01*
X125800175Y-87186515D01*
X125918834Y-87212256D01*
X125919507Y-87212129D01*
X125940186Y-87322027D01*
X126007293Y-87423216D01*
X126714400Y-88130323D01*
X126807803Y-88194142D01*
X126926462Y-88219883D01*
X127045787Y-88197430D01*
X127146976Y-88130323D01*
X127505807Y-87771492D01*
X128917155Y-89182840D01*
X128917157Y-89182843D01*
X129046927Y-89269552D01*
X129200000Y-89300000D01*
X132584123Y-89300000D01*
X132584123Y-89750000D01*
X132605042Y-89861173D01*
X132670745Y-89963279D01*
X132770997Y-90031778D01*
X132890000Y-90055877D01*
X134890000Y-90055877D01*
X135001173Y-90034958D01*
X135103279Y-89969255D01*
X135171778Y-89869003D01*
X135195877Y-89750000D01*
X135195877Y-88050000D01*
X135174958Y-87938827D01*
X135109255Y-87836721D01*
X135009003Y-87768222D01*
X134890000Y-87744123D01*
X132890000Y-87744123D01*
X132778827Y-87765042D01*
X132676721Y-87830745D01*
X132608222Y-87930997D01*
X132584123Y-88050000D01*
X132584123Y-88500000D01*
X129365685Y-88500000D01*
X128071492Y-87205807D01*
X128561189Y-86716110D01*
X128625008Y-86622707D01*
X128650749Y-86504048D01*
X128628296Y-86384723D01*
X128561189Y-86283534D01*
X127854082Y-85576427D01*
X127760679Y-85512608D01*
X127642020Y-85486867D01*
X127641347Y-85486994D01*
X127620668Y-85377096D01*
X127553561Y-85275907D01*
X126846454Y-84568800D01*
X126753051Y-84504981D01*
X126634392Y-84479240D01*
X126633720Y-84479366D01*
X126613041Y-84369468D01*
X126545934Y-84268279D01*
X126521671Y-84244016D01*
X126545686Y-84220000D01*
X132584123Y-84220000D01*
X132584123Y-84670000D01*
X132605042Y-84781173D01*
X132670745Y-84883279D01*
X132770997Y-84951778D01*
X132890000Y-84975877D01*
X134890000Y-84975877D01*
X135001173Y-84954958D01*
X135103279Y-84889255D01*
X135171778Y-84789003D01*
X135195877Y-84670000D01*
X135195877Y-83945000D01*
X136590000Y-83945000D01*
X136590000Y-84729673D01*
X136635672Y-84839936D01*
X136720063Y-84924328D01*
X136830326Y-84970000D01*
X137765000Y-84970000D01*
X137840000Y-84895000D01*
X137840000Y-83870000D01*
X137940000Y-83870000D01*
X137940000Y-84895000D01*
X138015000Y-84970000D01*
X138949674Y-84970000D01*
X139059937Y-84924328D01*
X139144328Y-84839936D01*
X139190000Y-84729673D01*
X139190000Y-83945000D01*
X139115000Y-83870000D01*
X137940000Y-83870000D01*
X137840000Y-83870000D01*
X136665000Y-83870000D01*
X136590000Y-83945000D01*
X135195877Y-83945000D01*
X135195877Y-82970000D01*
X135184649Y-82910327D01*
X136590000Y-82910327D01*
X136590000Y-83695000D01*
X136665000Y-83770000D01*
X137840000Y-83770000D01*
X137840000Y-82745000D01*
X137940000Y-82745000D01*
X137940000Y-83770000D01*
X139115000Y-83770000D01*
X139190000Y-83695000D01*
X139190000Y-82910327D01*
X139144328Y-82800064D01*
X139059937Y-82715672D01*
X138949674Y-82670000D01*
X138015000Y-82670000D01*
X137940000Y-82745000D01*
X137840000Y-82745000D01*
X137765000Y-82670000D01*
X136830326Y-82670000D01*
X136720063Y-82715672D01*
X136635672Y-82800064D01*
X136590000Y-82910327D01*
X135184649Y-82910327D01*
X135174958Y-82858827D01*
X135109255Y-82756721D01*
X135009003Y-82688222D01*
X134890000Y-82664123D01*
X132890000Y-82664123D01*
X132778827Y-82685042D01*
X132676721Y-82750745D01*
X132608222Y-82850997D01*
X132584123Y-82970000D01*
X132584123Y-83420000D01*
X126380000Y-83420000D01*
X126226926Y-83450448D01*
X126097157Y-83537157D01*
X125955985Y-83678330D01*
X125838827Y-83561172D01*
X125745424Y-83497353D01*
X125626765Y-83471612D01*
X125507440Y-83494065D01*
X125406251Y-83561172D01*
X123992038Y-84975385D01*
X123928219Y-85068788D01*
X123902478Y-85187447D01*
X123924931Y-85306772D01*
X123992038Y-85407961D01*
X124699145Y-86115068D01*
X124792548Y-86178887D01*
X124911207Y-86204628D01*
X124911879Y-86204502D01*
X124932558Y-86314400D01*
X124999665Y-86415589D01*
X125070376Y-86486300D01*
X125056675Y-86500000D01*
X124865685Y-86500000D01*
X123800000Y-85434314D01*
X123800000Y-85300005D01*
X123800001Y-85300000D01*
X123769552Y-85146927D01*
X123682843Y-85017157D01*
X123682840Y-85017155D01*
X120982843Y-82317157D01*
X120853074Y-82230448D01*
X120700000Y-82200000D01*
X112257166Y-82200000D01*
X112153074Y-82130448D01*
X112000000Y-82100000D01*
X111846926Y-82130448D01*
X111717157Y-82217157D01*
X111630448Y-82346926D01*
X111618599Y-82406494D01*
X111600000Y-82500000D01*
X111600000Y-84634314D01*
X111034314Y-85200000D01*
X107865686Y-85200000D01*
X107080000Y-84414314D01*
X107080000Y-84395877D01*
X107530000Y-84395877D01*
X107641173Y-84374958D01*
X107743279Y-84309255D01*
X107811778Y-84209003D01*
X107835877Y-84090000D01*
X107835877Y-82090000D01*
X107814958Y-81978827D01*
X107749255Y-81876721D01*
X107649003Y-81808222D01*
X107530000Y-81784123D01*
X107080000Y-81784123D01*
X107080000Y-79814916D01*
X107142616Y-79802461D01*
X107515703Y-79553173D01*
X107764991Y-79180086D01*
X107852530Y-78740000D01*
X107764991Y-78299914D01*
X107515703Y-77926827D01*
X107142616Y-77677539D01*
X106702530Y-77590000D01*
X106657470Y-77590000D01*
X106217384Y-77677539D01*
X105844297Y-77926827D01*
X105595009Y-78299914D01*
X105507470Y-78740000D01*
X104702560Y-78740000D01*
X104702560Y-76429114D01*
X105553054Y-76429114D01*
X105721117Y-76834866D01*
X106037060Y-77153488D01*
X106450885Y-77326950D01*
X106630000Y-77273917D01*
X106630000Y-76250000D01*
X106730000Y-76250000D01*
X106730000Y-77273917D01*
X106909115Y-77326950D01*
X107322940Y-77153488D01*
X107638883Y-76834866D01*
X107806946Y-76429114D01*
X107753837Y-76250000D01*
X106730000Y-76250000D01*
X106630000Y-76250000D01*
X105606163Y-76250000D01*
X105553054Y-76429114D01*
X104702560Y-76429114D01*
X104702560Y-75970886D01*
X105553054Y-75970886D01*
X105606163Y-76150000D01*
X106630000Y-76150000D01*
X106630000Y-75126083D01*
X106730000Y-75126083D01*
X106730000Y-76150000D01*
X107753837Y-76150000D01*
X107806946Y-75970886D01*
X107638883Y-75565134D01*
X107322940Y-75246512D01*
X106909115Y-75073050D01*
X106730000Y-75126083D01*
X106630000Y-75126083D01*
X106450885Y-75073050D01*
X106037060Y-75246512D01*
X105721117Y-75565134D01*
X105553054Y-75970886D01*
X104702560Y-75970886D01*
X104702560Y-72474406D01*
X105603769Y-71573197D01*
X105844297Y-71933173D01*
X106217384Y-72182461D01*
X106657470Y-72270000D01*
X106702530Y-72270000D01*
X107142616Y-72182461D01*
X107515703Y-71933173D01*
X107764991Y-71560086D01*
X107789308Y-71437839D01*
X107841683Y-71402843D01*
X109414315Y-69830211D01*
X109567424Y-69830344D01*
X109788029Y-69739192D01*
X109956959Y-69570557D01*
X110008720Y-69445902D01*
X110008720Y-72168434D01*
X109132365Y-73044789D01*
X108979256Y-73044656D01*
X108758651Y-73135808D01*
X108589721Y-73304443D01*
X108498184Y-73524889D01*
X108497976Y-73763584D01*
X108589128Y-73984189D01*
X108757763Y-74153119D01*
X108978209Y-74244656D01*
X109216904Y-74244864D01*
X109437509Y-74153712D01*
X109606439Y-73985077D01*
X109697976Y-73764631D01*
X109698110Y-73610416D01*
X110379560Y-72928966D01*
X110379560Y-75061595D01*
X110244523Y-74926557D01*
X110114754Y-74839848D01*
X109961680Y-74809400D01*
X109187566Y-74809400D01*
X107806436Y-73428270D01*
X107764991Y-73219914D01*
X107515703Y-72846827D01*
X107142616Y-72597539D01*
X106702530Y-72510000D01*
X106657470Y-72510000D01*
X106217384Y-72597539D01*
X105844297Y-72846827D01*
X105595009Y-73219914D01*
X105507470Y-73660000D01*
X105595009Y-74100086D01*
X105844297Y-74473173D01*
X106217384Y-74722461D01*
X106657470Y-74810000D01*
X106702530Y-74810000D01*
X107142616Y-74722461D01*
X107515703Y-74473173D01*
X107597520Y-74350726D01*
X108611720Y-75364926D01*
X108611720Y-77825600D01*
X108642168Y-77978674D01*
X108728877Y-78108443D01*
X110075077Y-79454643D01*
X110204847Y-79541352D01*
X110242400Y-79548822D01*
X110242400Y-81154954D01*
X109477157Y-81920197D01*
X109390448Y-82049966D01*
X109390448Y-82049967D01*
X109360000Y-82203040D01*
X109360000Y-82714123D01*
X108760000Y-82714123D01*
X108648827Y-82735042D01*
X108546721Y-82800745D01*
X108478222Y-82900997D01*
X108454123Y-83020000D01*
X108454123Y-84620000D01*
X108475042Y-84731173D01*
X108540745Y-84833279D01*
X108640997Y-84901778D01*
X108760000Y-84925877D01*
X110760000Y-84925877D01*
X110871173Y-84904958D01*
X110973279Y-84839255D01*
X111041778Y-84739003D01*
X111065877Y-84620000D01*
X111065877Y-83020000D01*
X111044958Y-82908827D01*
X110979255Y-82806721D01*
X110879003Y-82738222D01*
X110760000Y-82714123D01*
X110160000Y-82714123D01*
X110160000Y-82368726D01*
X110925243Y-81603483D01*
X111011952Y-81473714D01*
X111042400Y-81320640D01*
X111042400Y-79171800D01*
X111011952Y-79018727D01*
X110925243Y-78888957D01*
X110795473Y-78802248D01*
X110642400Y-78771800D01*
X110523606Y-78771800D01*
X109411720Y-77659914D01*
X109411720Y-75609400D01*
X109744560Y-75609400D01*
X109744560Y-77774800D01*
X109775008Y-77927874D01*
X109861717Y-78057643D01*
X110105557Y-78301483D01*
X110235326Y-78388192D01*
X110388400Y-78418641D01*
X110388405Y-78418640D01*
X111531400Y-78418640D01*
X111684474Y-78388192D01*
X111814243Y-78301483D01*
X113420982Y-76694744D01*
X115472816Y-76694744D01*
X115563968Y-76915349D01*
X115732603Y-77084279D01*
X115953049Y-77175816D01*
X116107265Y-77175950D01*
X116872115Y-77940800D01*
X116872117Y-77940803D01*
X116928794Y-77978673D01*
X117001886Y-78027512D01*
X117154960Y-78057961D01*
X117154965Y-78057960D01*
X123631960Y-78057960D01*
X123785034Y-78027512D01*
X123914803Y-77940803D01*
X124641243Y-77214363D01*
X124681918Y-77153488D01*
X124727952Y-77084593D01*
X124758400Y-76931520D01*
X124758400Y-73660000D01*
X139797470Y-73660000D01*
X139885009Y-74100086D01*
X140134297Y-74473173D01*
X140507384Y-74722461D01*
X140947470Y-74810000D01*
X140992530Y-74810000D01*
X141432616Y-74722461D01*
X141805703Y-74473173D01*
X142054991Y-74100086D01*
X142142530Y-73660000D01*
X142054991Y-73219914D01*
X141805703Y-72846827D01*
X141432616Y-72597539D01*
X140992530Y-72510000D01*
X140947470Y-72510000D01*
X140507384Y-72597539D01*
X140134297Y-72846827D01*
X139885009Y-73219914D01*
X139797470Y-73660000D01*
X124758400Y-73660000D01*
X124758400Y-72002396D01*
X124794328Y-72089349D01*
X124962963Y-72258279D01*
X125183409Y-72349816D01*
X125422104Y-72350024D01*
X125642709Y-72258872D01*
X125811639Y-72090237D01*
X125903176Y-71869791D01*
X125903384Y-71631096D01*
X125812232Y-71410491D01*
X125643597Y-71241561D01*
X125423151Y-71150024D01*
X125268935Y-71149890D01*
X125119080Y-71000034D01*
X125119080Y-69981020D01*
X125150923Y-70012919D01*
X125371369Y-70104456D01*
X125610064Y-70104664D01*
X125830669Y-70013512D01*
X125999599Y-69844877D01*
X126091136Y-69624431D01*
X126091270Y-69470216D01*
X126180166Y-69381320D01*
X132147994Y-69381320D01*
X133331315Y-70564640D01*
X133331317Y-70564643D01*
X133461087Y-70651352D01*
X133614160Y-70681800D01*
X139884634Y-70681800D01*
X139797470Y-71120000D01*
X139885009Y-71560086D01*
X140134297Y-71933173D01*
X140507384Y-72182461D01*
X140947470Y-72270000D01*
X140992530Y-72270000D01*
X141432616Y-72182461D01*
X141805703Y-71933173D01*
X142054991Y-71560086D01*
X142142530Y-71120000D01*
X142054991Y-70679914D01*
X141805703Y-70306827D01*
X141432616Y-70057539D01*
X140992530Y-69970000D01*
X140947470Y-69970000D01*
X140507384Y-70057539D01*
X140486907Y-70071221D01*
X140414643Y-69998957D01*
X140284874Y-69912248D01*
X140131800Y-69881800D01*
X135154524Y-69881800D01*
X135167709Y-69876352D01*
X135336639Y-69707717D01*
X135428176Y-69487271D01*
X135428211Y-69447360D01*
X140215394Y-69447360D01*
X140507384Y-69642461D01*
X140947470Y-69730000D01*
X140992530Y-69730000D01*
X141432616Y-69642461D01*
X141805703Y-69393173D01*
X142054991Y-69020086D01*
X142142530Y-68580000D01*
X142054991Y-68139914D01*
X141805703Y-67766827D01*
X141432616Y-67517539D01*
X140992530Y-67430000D01*
X140947470Y-67430000D01*
X140507384Y-67517539D01*
X140134297Y-67766827D01*
X139885009Y-68139914D01*
X139797470Y-68580000D01*
X139810869Y-68647360D01*
X135148320Y-68647360D01*
X134995246Y-68677808D01*
X134865477Y-68764517D01*
X134862565Y-68767429D01*
X134709456Y-68767296D01*
X134488851Y-68858448D01*
X134319921Y-69027083D01*
X134228384Y-69247529D01*
X134228176Y-69486224D01*
X134319328Y-69706829D01*
X134487963Y-69875759D01*
X134502511Y-69881800D01*
X133779845Y-69881800D01*
X132596523Y-68698477D01*
X132466754Y-68611768D01*
X132313680Y-68581320D01*
X126014480Y-68581320D01*
X125861406Y-68611768D01*
X125731637Y-68698477D01*
X125525525Y-68904589D01*
X125372416Y-68904456D01*
X125151811Y-68995608D01*
X125119080Y-69028282D01*
X125119080Y-67147995D01*
X125244304Y-67148104D01*
X125464909Y-67056952D01*
X125633839Y-66888317D01*
X125725376Y-66667871D01*
X125725584Y-66429176D01*
X125634432Y-66208571D01*
X125466156Y-66040000D01*
X139797470Y-66040000D01*
X139885009Y-66480086D01*
X140134297Y-66853173D01*
X140507384Y-67102461D01*
X140947470Y-67190000D01*
X140992530Y-67190000D01*
X141432616Y-67102461D01*
X141805703Y-66853173D01*
X142054991Y-66480086D01*
X142142530Y-66040000D01*
X142054991Y-65599914D01*
X141805703Y-65226827D01*
X141432616Y-64977539D01*
X140992530Y-64890000D01*
X140947470Y-64890000D01*
X140507384Y-64977539D01*
X140134297Y-65226827D01*
X139885009Y-65599914D01*
X139797470Y-66040000D01*
X125466156Y-66040000D01*
X125465797Y-66039641D01*
X125245351Y-65948104D01*
X125006656Y-65947896D01*
X124786051Y-66039048D01*
X124758400Y-66066651D01*
X124758400Y-64371806D01*
X125575645Y-63554560D01*
X128168400Y-63554560D01*
X128321474Y-63524112D01*
X128357560Y-63500000D01*
X139797470Y-63500000D01*
X139885009Y-63940086D01*
X140134297Y-64313173D01*
X140507384Y-64562461D01*
X140947470Y-64650000D01*
X140992530Y-64650000D01*
X141432616Y-64562461D01*
X141805703Y-64313173D01*
X142054991Y-63940086D01*
X142142530Y-63500000D01*
X142054991Y-63059914D01*
X141805703Y-62686827D01*
X141432616Y-62437539D01*
X140992530Y-62350000D01*
X140947470Y-62350000D01*
X140507384Y-62437539D01*
X140134297Y-62686827D01*
X139885009Y-63059914D01*
X139797470Y-63500000D01*
X128357560Y-63500000D01*
X128451243Y-63437403D01*
X130928646Y-60960000D01*
X139797470Y-60960000D01*
X139885009Y-61400086D01*
X140134297Y-61773173D01*
X140507384Y-62022461D01*
X140947470Y-62110000D01*
X140992530Y-62110000D01*
X141432616Y-62022461D01*
X141805703Y-61773173D01*
X142054991Y-61400086D01*
X142142530Y-60960000D01*
X142054991Y-60519914D01*
X141805703Y-60146827D01*
X141432616Y-59897539D01*
X140992530Y-59810000D01*
X140947470Y-59810000D01*
X140507384Y-59897539D01*
X140134297Y-60146827D01*
X139885009Y-60519914D01*
X139797470Y-60960000D01*
X130928646Y-60960000D01*
X133165166Y-58723480D01*
X139857836Y-58723480D01*
X139885009Y-58860086D01*
X140134297Y-59233173D01*
X140507384Y-59482461D01*
X140947470Y-59570000D01*
X140992530Y-59570000D01*
X141432616Y-59482461D01*
X141805703Y-59233173D01*
X142054991Y-58860086D01*
X142142530Y-58420000D01*
X142054991Y-57979914D01*
X141805703Y-57606827D01*
X141432616Y-57357539D01*
X140992530Y-57270000D01*
X140947470Y-57270000D01*
X140507384Y-57357539D01*
X140134297Y-57606827D01*
X139922717Y-57923480D01*
X132999485Y-57923480D01*
X132999480Y-57923479D01*
X132846406Y-57953928D01*
X132716637Y-58040637D01*
X128002714Y-62754560D01*
X125409960Y-62754560D01*
X125256887Y-62785008D01*
X125127117Y-62871717D01*
X125127115Y-62871720D01*
X124075557Y-63923277D01*
X123988848Y-64053046D01*
X123988848Y-64053047D01*
X123958400Y-64206120D01*
X123958400Y-76765834D01*
X123466274Y-77257960D01*
X117320645Y-77257960D01*
X116672891Y-76610205D01*
X116673024Y-76457096D01*
X116581872Y-76236491D01*
X116413237Y-76067561D01*
X116192791Y-75976024D01*
X115954096Y-75975816D01*
X115733491Y-76066968D01*
X115564561Y-76235603D01*
X115473024Y-76456049D01*
X115472816Y-76694744D01*
X113420982Y-76694744D01*
X113820843Y-76294883D01*
X113907552Y-76165114D01*
X113938000Y-76012040D01*
X113938000Y-72874047D01*
X114046359Y-72765877D01*
X114137896Y-72545431D01*
X114138104Y-72306736D01*
X114046952Y-72086131D01*
X113878317Y-71917201D01*
X113657871Y-71825664D01*
X113419176Y-71825456D01*
X113198571Y-71916608D01*
X113029641Y-72085243D01*
X112938104Y-72305689D01*
X112937896Y-72544384D01*
X113029048Y-72764989D01*
X113138000Y-72874132D01*
X113138000Y-75846354D01*
X111365714Y-77618640D01*
X111327131Y-77618640D01*
X111364119Y-77581717D01*
X111455656Y-77361271D01*
X111455864Y-77122576D01*
X111364712Y-76901971D01*
X111196077Y-76733041D01*
X111179560Y-76726183D01*
X111179560Y-69371237D01*
X111269289Y-69408496D01*
X111507984Y-69408704D01*
X111728589Y-69317552D01*
X111837732Y-69208600D01*
X117434360Y-69208600D01*
X117587434Y-69178152D01*
X117717203Y-69091443D01*
X118116355Y-68692291D01*
X118269464Y-68692424D01*
X118490069Y-68601272D01*
X118658999Y-68432637D01*
X118750536Y-68212191D01*
X118750744Y-67973496D01*
X118659592Y-67752891D01*
X118490957Y-67583961D01*
X118270511Y-67492424D01*
X118031816Y-67492216D01*
X117811211Y-67583368D01*
X117642281Y-67752003D01*
X117550744Y-67972449D01*
X117550610Y-68126664D01*
X117268674Y-68408600D01*
X111837647Y-68408600D01*
X111729477Y-68300241D01*
X111509031Y-68208704D01*
X111270336Y-68208496D01*
X111179560Y-68246004D01*
X111179560Y-66888453D01*
X111315009Y-66944696D01*
X111553704Y-66944904D01*
X111774309Y-66853752D01*
X111883452Y-66744800D01*
X122338514Y-66744800D01*
X123125280Y-67531566D01*
X123125280Y-74047400D01*
X116535200Y-74047400D01*
X116382126Y-74077848D01*
X116252357Y-74164557D01*
X116193565Y-74223349D01*
X116040456Y-74223216D01*
X115819851Y-74314368D01*
X115650921Y-74483003D01*
X115559384Y-74703449D01*
X115559176Y-74942144D01*
X115650328Y-75162749D01*
X115818963Y-75331679D01*
X116039409Y-75423216D01*
X116278104Y-75423424D01*
X116498709Y-75332272D01*
X116667639Y-75163637D01*
X116759176Y-74943191D01*
X116759259Y-74847400D01*
X123418600Y-74847400D01*
X123571674Y-74816952D01*
X123701443Y-74730243D01*
X123808120Y-74623565D01*
X123808123Y-74623563D01*
X123894832Y-74493793D01*
X123925280Y-74340720D01*
X123925280Y-67365880D01*
X123894832Y-67212806D01*
X123808123Y-67083037D01*
X122787043Y-66061957D01*
X122657274Y-65975248D01*
X122504200Y-65944800D01*
X111883367Y-65944800D01*
X111775197Y-65836441D01*
X111554751Y-65744904D01*
X111316056Y-65744696D01*
X111179560Y-65801095D01*
X111179560Y-65257680D01*
X111160099Y-65159841D01*
X111149112Y-65104606D01*
X111062403Y-64974837D01*
X109304723Y-63217157D01*
X109174954Y-63130448D01*
X109021880Y-63100000D01*
X107772965Y-63100000D01*
X107764991Y-63059914D01*
X107515703Y-62686827D01*
X107438258Y-62635080D01*
X127706120Y-62635080D01*
X127859194Y-62604632D01*
X127988963Y-62517923D01*
X132159643Y-58347243D01*
X132246352Y-58217474D01*
X132276800Y-58064400D01*
X132276800Y-57361406D01*
X135618806Y-54019400D01*
X138543714Y-54019400D01*
X139814123Y-55289809D01*
X139814123Y-56730000D01*
X139835042Y-56841173D01*
X139900745Y-56943279D01*
X140000997Y-57011778D01*
X140120000Y-57035877D01*
X141820000Y-57035877D01*
X141931173Y-57014958D01*
X142033279Y-56949255D01*
X142101778Y-56849003D01*
X142125877Y-56730000D01*
X142125877Y-55030000D01*
X142104958Y-54918827D01*
X142039255Y-54816721D01*
X141939003Y-54748222D01*
X141820000Y-54724123D01*
X140379809Y-54724123D01*
X138992243Y-53336557D01*
X138862474Y-53249848D01*
X138798284Y-53237080D01*
X141495194Y-53237080D01*
X143074440Y-54816326D01*
X143074440Y-75018314D01*
X142292754Y-75800000D01*
X142062965Y-75800000D01*
X142054991Y-75759914D01*
X141805703Y-75386827D01*
X141432616Y-75137539D01*
X140992530Y-75050000D01*
X140947470Y-75050000D01*
X140507384Y-75137539D01*
X140134297Y-75386827D01*
X139885009Y-75759914D01*
X139797470Y-76200000D01*
X139885009Y-76640086D01*
X140134297Y-77013173D01*
X140507384Y-77262461D01*
X140947470Y-77350000D01*
X140992530Y-77350000D01*
X141432616Y-77262461D01*
X141805703Y-77013173D01*
X142054991Y-76640086D01*
X142062965Y-76600000D01*
X142458440Y-76600000D01*
X142611514Y-76569552D01*
X142741283Y-76482843D01*
X143757283Y-75466843D01*
X143843992Y-75337074D01*
X143874440Y-75184000D01*
X143874440Y-72989059D01*
X143974329Y-73030536D01*
X144213024Y-73030744D01*
X144433629Y-72939592D01*
X144602559Y-72770957D01*
X144694096Y-72550511D01*
X144694304Y-72311816D01*
X144603152Y-72091211D01*
X144494200Y-71982068D01*
X144494200Y-54218840D01*
X144463752Y-54065767D01*
X144377043Y-53935997D01*
X144377040Y-53935995D01*
X142334883Y-51893837D01*
X142205114Y-51807128D01*
X142052040Y-51776680D01*
X133995160Y-51776680D01*
X133842086Y-51807128D01*
X133712317Y-51893837D01*
X132981114Y-52625040D01*
X128143000Y-52625040D01*
X127989926Y-52655488D01*
X127860157Y-52742197D01*
X125681479Y-54920875D01*
X125434172Y-54818185D01*
X125011682Y-54817816D01*
X124621211Y-54979155D01*
X124322205Y-55277640D01*
X124160185Y-55667828D01*
X124159816Y-56090318D01*
X124321155Y-56480789D01*
X124619640Y-56779795D01*
X125009828Y-56941815D01*
X125432318Y-56942184D01*
X125822789Y-56780845D01*
X126121795Y-56482360D01*
X126283815Y-56092172D01*
X126284184Y-55669682D01*
X126219819Y-55513907D01*
X128308686Y-53425040D01*
X133146800Y-53425040D01*
X133299874Y-53394592D01*
X133429643Y-53307883D01*
X134160846Y-52576680D01*
X134421394Y-52576680D01*
X131518074Y-55480000D01*
X128745809Y-55480000D01*
X128662845Y-55279211D01*
X128364360Y-54980205D01*
X127974172Y-54818185D01*
X127551682Y-54817816D01*
X127161211Y-54979155D01*
X126862205Y-55277640D01*
X126700185Y-55667828D01*
X126699816Y-56090318D01*
X126861155Y-56480789D01*
X127159640Y-56779795D01*
X127549828Y-56941815D01*
X127972318Y-56942184D01*
X128362789Y-56780845D01*
X128661795Y-56482360D01*
X128745822Y-56280000D01*
X131683760Y-56280000D01*
X131836834Y-56249552D01*
X131966603Y-56162843D01*
X134892366Y-53237080D01*
X135364236Y-53237080D01*
X135300046Y-53249848D01*
X135170277Y-53336557D01*
X131593957Y-56912877D01*
X131507248Y-57042646D01*
X131507248Y-57042647D01*
X131476800Y-57195720D01*
X131476800Y-57898714D01*
X127540434Y-61835080D01*
X107423052Y-61835080D01*
X107515703Y-61773173D01*
X107764991Y-61400086D01*
X107852530Y-60960000D01*
X107764991Y-60519914D01*
X107515703Y-60146827D01*
X107142616Y-59897539D01*
X106702530Y-59810000D01*
X106657470Y-59810000D01*
X106217384Y-59897539D01*
X105844297Y-60146827D01*
X105595009Y-60519914D01*
X105507470Y-60960000D01*
X105595009Y-61400086D01*
X105844297Y-61773173D01*
X105988021Y-61869206D01*
X105863757Y-61952237D01*
X105116997Y-62698997D01*
X105030288Y-62828766D01*
X105005577Y-62952997D01*
X104999840Y-62981840D01*
X104999840Y-63115015D01*
X104947677Y-63062761D01*
X104727231Y-62971224D01*
X104672080Y-62971176D01*
X104672080Y-58420000D01*
X105507470Y-58420000D01*
X105595009Y-58860086D01*
X105844297Y-59233173D01*
X106217384Y-59482461D01*
X106657470Y-59570000D01*
X106702530Y-59570000D01*
X107142616Y-59482461D01*
X107515703Y-59233173D01*
X107764991Y-58860086D01*
X107852530Y-58420000D01*
X107764991Y-57979914D01*
X107515703Y-57606827D01*
X107142616Y-57357539D01*
X106702530Y-57270000D01*
X106657470Y-57270000D01*
X106217384Y-57357539D01*
X105844297Y-57606827D01*
X105595009Y-57979914D01*
X105507470Y-58420000D01*
X104672080Y-58420000D01*
X104672080Y-56904206D01*
X105296285Y-56280000D01*
X105524123Y-56280000D01*
X105524123Y-56730000D01*
X105545042Y-56841173D01*
X105610745Y-56943279D01*
X105710997Y-57011778D01*
X105830000Y-57035877D01*
X107530000Y-57035877D01*
X107641173Y-57014958D01*
X107743279Y-56949255D01*
X107811778Y-56849003D01*
X107835877Y-56730000D01*
X107835877Y-56627104D01*
X119465606Y-56627104D01*
X119546673Y-56784463D01*
X119938112Y-56943437D01*
X120360591Y-56940512D01*
X120737327Y-56784463D01*
X120818394Y-56627104D01*
X120142000Y-55950711D01*
X119465606Y-56627104D01*
X107835877Y-56627104D01*
X107835877Y-55676112D01*
X119078563Y-55676112D01*
X119081488Y-56098591D01*
X119237537Y-56475327D01*
X119394896Y-56556394D01*
X120071289Y-55880000D01*
X120212711Y-55880000D01*
X120889104Y-56556394D01*
X121046463Y-56475327D01*
X121202825Y-56090318D01*
X121619816Y-56090318D01*
X121781155Y-56480789D01*
X122079640Y-56779795D01*
X122469828Y-56941815D01*
X122892318Y-56942184D01*
X123282789Y-56780845D01*
X123581795Y-56482360D01*
X123743815Y-56092172D01*
X123744184Y-55669682D01*
X123582845Y-55279211D01*
X123284360Y-54980205D01*
X122894172Y-54818185D01*
X122471682Y-54817816D01*
X122081211Y-54979155D01*
X121782205Y-55277640D01*
X121620185Y-55667828D01*
X121619816Y-56090318D01*
X121202825Y-56090318D01*
X121205437Y-56083888D01*
X121202512Y-55661409D01*
X121046463Y-55284673D01*
X120889104Y-55203606D01*
X120212711Y-55880000D01*
X120071289Y-55880000D01*
X119394896Y-55203606D01*
X119237537Y-55284673D01*
X119078563Y-55676112D01*
X107835877Y-55676112D01*
X107835877Y-55132896D01*
X119465606Y-55132896D01*
X120142000Y-55809289D01*
X120818394Y-55132896D01*
X120737327Y-54975537D01*
X120345888Y-54816563D01*
X119923409Y-54819488D01*
X119546673Y-54975537D01*
X119465606Y-55132896D01*
X107835877Y-55132896D01*
X107835877Y-55030000D01*
X107814958Y-54918827D01*
X107749255Y-54816721D01*
X107649003Y-54748222D01*
X107530000Y-54724123D01*
X105830000Y-54724123D01*
X105718827Y-54745042D01*
X105616721Y-54810745D01*
X105548222Y-54910997D01*
X105524123Y-55030000D01*
X105524123Y-55480000D01*
X105130605Y-55480000D01*
X105130600Y-55479999D01*
X104977526Y-55510448D01*
X104912642Y-55553803D01*
X104847757Y-55597157D01*
X104847755Y-55597160D01*
X103989237Y-56455677D01*
X103902528Y-56585446D01*
X103902528Y-56585447D01*
X103872080Y-56738520D01*
X101975000Y-56738520D01*
X101975000Y-53376932D01*
X102146588Y-52514303D01*
X102614309Y-51814309D01*
X103314303Y-51346588D01*
X104176932Y-51175000D01*
X143473068Y-51175000D01*
X144335697Y-51346588D01*
M02*
