G04 #@! TF.FileFunction,Copper,L2,Bot,Signal*
%FSLAX46Y46*%
G04 Gerber Fmt 4.6, Leading zero omitted, Abs format (unit mm)*
G04 Created by KiCad (PCBNEW 4.0.7) date 08/30/18 10:37:52*
%MOMM*%
%LPD*%
G01*
G04 APERTURE LIST*
%ADD10C,0.100000*%
%ADD11R,0.800000X0.900000*%
%ADD12R,0.800000X0.200000*%
%ADD13R,0.800000X0.400000*%
%ADD14R,1.700000X1.700000*%
%ADD15O,1.700000X1.700000*%
%ADD16C,1.524000*%
%ADD17C,0.600000*%
%ADD18C,0.200000*%
G04 APERTURE END LIST*
D10*
D11*
X130114000Y-71898000D03*
X132014000Y-71898000D03*
X131064000Y-73898000D03*
D12*
X114928000Y-72730000D03*
X114928000Y-73130000D03*
X114928000Y-73530000D03*
X114928000Y-73930000D03*
X114928000Y-74330000D03*
X114928000Y-74730000D03*
X114928000Y-75130000D03*
X114928000Y-75530000D03*
X114928000Y-75930000D03*
X114928000Y-76330000D03*
X114928000Y-76730000D03*
X114928000Y-77130000D03*
X117228000Y-77130000D03*
X117228000Y-76730000D03*
X117228000Y-76330000D03*
X117228000Y-75930000D03*
X117228000Y-75530000D03*
X117228000Y-75130000D03*
X117228000Y-74730000D03*
X117228000Y-74330000D03*
X117228000Y-73930000D03*
X117228000Y-73530000D03*
X117228000Y-73130000D03*
X117228000Y-72730000D03*
D13*
X114928000Y-72230000D03*
X114928000Y-77630000D03*
X117228000Y-77630000D03*
X117228000Y-72230000D03*
D14*
X140970000Y-55880000D03*
D15*
X140970000Y-58420000D03*
X140970000Y-60960000D03*
X140970000Y-63500000D03*
X140970000Y-66040000D03*
X140970000Y-68580000D03*
X140970000Y-71120000D03*
X140970000Y-73660000D03*
X140970000Y-76200000D03*
D14*
X106680000Y-55880000D03*
D15*
X106680000Y-58420000D03*
X106680000Y-60960000D03*
X106680000Y-63500000D03*
X106680000Y-66040000D03*
X106680000Y-68580000D03*
X106680000Y-71120000D03*
X106680000Y-73660000D03*
X106680000Y-76200000D03*
X106680000Y-78740000D03*
D16*
X120142000Y-55880000D03*
X122682000Y-55880000D03*
X125222000Y-55880000D03*
X127762000Y-55880000D03*
D17*
X109438440Y-83845400D03*
X108549440Y-86771480D03*
X113538000Y-72425560D03*
X125282960Y-67904360D03*
X126964440Y-67533520D03*
X116047520Y-72085200D03*
X114691160Y-73731120D03*
X115148360Y-78445360D03*
X113822480Y-83662520D03*
X134691120Y-72496680D03*
X109448600Y-69230240D03*
X111389160Y-68808600D03*
X118150640Y-68092320D03*
X125125480Y-66548000D03*
X125303280Y-71749920D03*
X109098080Y-73644760D03*
X104607360Y-63571120D03*
X116072920Y-76575920D03*
X110855760Y-77241400D03*
X111434880Y-66344800D03*
X116159280Y-74823320D03*
X134828280Y-69367400D03*
X125491240Y-69504560D03*
X144094200Y-72430640D03*
D18*
X109438440Y-85882480D02*
X109438440Y-83845400D01*
X108549440Y-86771480D02*
X109438440Y-85882480D01*
X116370960Y-73130000D02*
X116370960Y-73820880D01*
X116480080Y-73930000D02*
X117228000Y-73930000D01*
X116370960Y-73820880D02*
X116480080Y-73930000D01*
X114928000Y-72730000D02*
X115970960Y-72730000D01*
X116370960Y-73130000D02*
X117228000Y-73130000D01*
X115970960Y-72730000D02*
X116370960Y-73130000D01*
X113538000Y-72425560D02*
X113578640Y-72466200D01*
X113578640Y-72466200D02*
X113776760Y-72466200D01*
X113776760Y-72466200D02*
X114040560Y-72730000D01*
X114040560Y-72730000D02*
X114928000Y-72730000D01*
X117228000Y-73130000D02*
X122856400Y-73130000D01*
X122856400Y-73130000D02*
X126304040Y-69682360D01*
X126304040Y-69682360D02*
X126304040Y-62179200D01*
X126304040Y-62179200D02*
X124820680Y-60695840D01*
X124820680Y-60695840D02*
X124510800Y-60695840D01*
X124510800Y-60695840D02*
X122682000Y-58867040D01*
X122682000Y-58867040D02*
X122682000Y-55880000D01*
X132014000Y-71898000D02*
X132014000Y-71435000D01*
X122245120Y-72212200D02*
X117245800Y-72212200D01*
X123515120Y-70942200D02*
X122245120Y-72212200D01*
X123515120Y-69672200D02*
X123515120Y-70942200D01*
X125282960Y-67904360D02*
X123515120Y-69672200D01*
X126964440Y-69550280D02*
X126964440Y-67533520D01*
X127060960Y-69646800D02*
X126964440Y-69550280D01*
X130225800Y-69646800D02*
X127060960Y-69646800D01*
X132014000Y-71435000D02*
X130225800Y-69646800D01*
X117245800Y-72212200D02*
X117228000Y-72230000D01*
X116047520Y-72085200D02*
X115752880Y-72085200D01*
X115608080Y-72230000D02*
X114928000Y-72230000D01*
X115752880Y-72085200D02*
X115608080Y-72230000D01*
X116192320Y-72230000D02*
X117228000Y-72230000D01*
X116047520Y-72085200D02*
X116192320Y-72230000D01*
X115651280Y-77630000D02*
X115651280Y-77942440D01*
X114691160Y-73731120D02*
X114928000Y-73731120D01*
X115651280Y-77942440D02*
X115148360Y-78445360D01*
X114928000Y-73731120D02*
X114874040Y-73731120D01*
X114874040Y-73731120D02*
X114928000Y-73731120D01*
X114928000Y-73530000D02*
X114928000Y-73731120D01*
X114928000Y-73731120D02*
X114928000Y-73930000D01*
X114010440Y-77388720D02*
X114010440Y-83474560D01*
X114010440Y-83474560D02*
X113822480Y-83662520D01*
X117228000Y-77630000D02*
X117228000Y-77130000D01*
X114928000Y-77630000D02*
X115651280Y-77630000D01*
X115651280Y-77630000D02*
X117228000Y-77630000D01*
X114928000Y-77630000D02*
X114251720Y-77630000D01*
X113659920Y-77038200D02*
X113659920Y-76330000D01*
X114251720Y-77630000D02*
X114010440Y-77388720D01*
X114010440Y-77388720D02*
X113659920Y-77038200D01*
X114928000Y-77130000D02*
X114203840Y-77130000D01*
X113919000Y-76845160D02*
X113919000Y-76330000D01*
X114203840Y-77130000D02*
X113919000Y-76845160D01*
X114928000Y-76730000D02*
X114313560Y-76730000D01*
X114178080Y-76594520D02*
X114178080Y-76330000D01*
X114313560Y-76730000D02*
X114178080Y-76594520D01*
X114928000Y-76330000D02*
X114178080Y-76330000D01*
X114178080Y-76330000D02*
X113919000Y-76330000D01*
X113919000Y-76330000D02*
X113659920Y-76330000D01*
X113659920Y-76330000D02*
X106810000Y-76330000D01*
X106810000Y-76330000D02*
X106680000Y-76200000D01*
X117228000Y-72230000D02*
X117228000Y-57930400D01*
X117228000Y-57930400D02*
X119278400Y-55880000D01*
X119278400Y-55880000D02*
X120142000Y-55880000D01*
X134092440Y-71898000D02*
X132014000Y-71898000D01*
X134691120Y-72496680D02*
X134092440Y-71898000D01*
X130114000Y-71898000D02*
X125451360Y-71898000D01*
X110967520Y-69230240D02*
X109448600Y-69230240D01*
X111389160Y-68808600D02*
X110967520Y-69230240D01*
X120507760Y-65735200D02*
X118150640Y-68092320D01*
X124312680Y-65735200D02*
X120507760Y-65735200D01*
X125125480Y-66548000D02*
X124312680Y-65735200D01*
X125451360Y-71898000D02*
X125303280Y-71749920D01*
X117228000Y-74330000D02*
X117876880Y-74330000D01*
X118008400Y-74198480D02*
X118008400Y-73530000D01*
X117876880Y-74330000D02*
X118008400Y-74198480D01*
X117228000Y-73530000D02*
X118008400Y-73530000D01*
X118008400Y-73530000D02*
X130629200Y-73530000D01*
X130629200Y-73530000D02*
X130997200Y-73898000D01*
X130997200Y-73898000D02*
X131064000Y-73898000D01*
X114928000Y-73130000D02*
X109538360Y-73130000D01*
X108950760Y-70566280D02*
X106964480Y-68580000D01*
X108950760Y-72542400D02*
X108950760Y-70566280D01*
X109538360Y-73130000D02*
X108950760Y-72542400D01*
X106964480Y-68580000D02*
X106680000Y-68580000D01*
X114928000Y-74330000D02*
X109183880Y-74330000D01*
X109098080Y-74244200D02*
X109098080Y-73644760D01*
X109183880Y-74330000D02*
X109098080Y-74244200D01*
X114928000Y-74730000D02*
X108928560Y-74730000D01*
X104607360Y-69235320D02*
X104607360Y-63571120D01*
X105227120Y-69855080D02*
X104607360Y-69235320D01*
X107543600Y-69855080D02*
X105227120Y-69855080D01*
X108549440Y-70860920D02*
X107543600Y-69855080D01*
X108549440Y-74350880D02*
X108549440Y-70860920D01*
X108928560Y-74730000D02*
X108549440Y-74350880D01*
X114928000Y-75130000D02*
X115460120Y-75130000D01*
X115874800Y-76377800D02*
X116072920Y-76575920D01*
X115874800Y-75544680D02*
X115874800Y-76377800D01*
X115460120Y-75130000D02*
X115874800Y-75544680D01*
X114928000Y-75530000D02*
X109007200Y-75530000D01*
X108508800Y-60248800D02*
X106680000Y-58420000D01*
X108508800Y-61691520D02*
X108508800Y-60248800D01*
X107944920Y-62255400D02*
X108508800Y-61691520D01*
X104912160Y-62255400D02*
X107944920Y-62255400D01*
X103967280Y-63200280D02*
X104912160Y-62255400D01*
X103967280Y-72440800D02*
X103967280Y-63200280D01*
X103916480Y-72491600D02*
X103967280Y-72440800D01*
X107350560Y-72491600D02*
X103916480Y-72491600D01*
X108112560Y-73253600D02*
X107350560Y-72491600D01*
X108112560Y-74635360D02*
X108112560Y-73253600D01*
X109007200Y-75530000D02*
X108112560Y-74635360D01*
X114928000Y-75930000D02*
X108589320Y-75930000D01*
X104236520Y-60960000D02*
X106680000Y-60960000D01*
X103337360Y-61859160D02*
X104236520Y-60960000D01*
X103337360Y-74792840D02*
X103337360Y-61859160D01*
X103550720Y-75006200D02*
X103337360Y-74792840D01*
X107665520Y-75006200D02*
X103550720Y-75006200D01*
X108589320Y-75930000D02*
X107665520Y-75006200D01*
X117228000Y-76730000D02*
X125985680Y-76730000D01*
X109956600Y-78140560D02*
X110855760Y-77241400D01*
X109956600Y-89702640D02*
X109956600Y-78140560D01*
X118186200Y-97932240D02*
X109956600Y-89702640D01*
X122905520Y-97932240D02*
X118186200Y-97932240D01*
X127629920Y-93207840D02*
X122905520Y-97932240D01*
X127629920Y-78374240D02*
X127629920Y-93207840D01*
X125985680Y-76730000D02*
X127629920Y-78374240D01*
X117228000Y-76330000D02*
X126163880Y-76330000D01*
X144277080Y-60960000D02*
X140970000Y-60960000D01*
X144871440Y-61554360D02*
X144277080Y-60960000D01*
X144871440Y-77475080D02*
X144871440Y-61554360D01*
X142941040Y-79405480D02*
X144871440Y-77475080D01*
X139618720Y-79405480D02*
X142941040Y-79405480D01*
X136911080Y-76697840D02*
X139618720Y-79405480D01*
X126531720Y-76697840D02*
X136911080Y-76697840D01*
X126163880Y-76330000D02*
X126531720Y-76697840D01*
X117228000Y-75930000D02*
X116468400Y-75930000D01*
X111130080Y-66040000D02*
X106680000Y-66040000D01*
X111434880Y-66344800D02*
X111130080Y-66040000D01*
X116311680Y-74975720D02*
X116159280Y-74823320D01*
X116311680Y-75773280D02*
X116311680Y-74975720D01*
X116468400Y-75930000D02*
X116311680Y-75773280D01*
X117228000Y-75530000D02*
X126843080Y-75530000D01*
X138201400Y-63500000D02*
X140970000Y-63500000D01*
X136458960Y-65242440D02*
X138201400Y-63500000D01*
X136458960Y-73670160D02*
X136458960Y-65242440D01*
X134147560Y-75981560D02*
X136458960Y-73670160D01*
X127294640Y-75981560D02*
X134147560Y-75981560D01*
X126843080Y-75530000D02*
X127294640Y-75981560D01*
X117228000Y-75130000D02*
X127419760Y-75130000D01*
X142321280Y-66040000D02*
X140970000Y-66040000D01*
X143184880Y-65176400D02*
X142321280Y-66040000D01*
X143184880Y-63017400D02*
X143184880Y-65176400D01*
X142427960Y-62260480D02*
X143184880Y-63017400D01*
X139948920Y-62260480D02*
X142427960Y-62260480D01*
X139847320Y-62362080D02*
X139948920Y-62260480D01*
X138343640Y-62362080D02*
X139847320Y-62362080D01*
X135813800Y-64891920D02*
X138343640Y-62362080D01*
X135813800Y-73588880D02*
X135813800Y-64891920D01*
X133889800Y-75512880D02*
X135813800Y-73588880D01*
X127802640Y-75512880D02*
X133889800Y-75512880D01*
X127419760Y-75130000D02*
X127802640Y-75512880D01*
X117228000Y-74730000D02*
X128221080Y-74730000D01*
X135346440Y-69885560D02*
X134828280Y-69367400D01*
X135346440Y-73030080D02*
X135346440Y-69885560D01*
X135239760Y-73136760D02*
X135346440Y-73030080D01*
X135239760Y-73279000D02*
X135239760Y-73136760D01*
X133573520Y-74945240D02*
X135239760Y-73279000D01*
X128436320Y-74945240D02*
X133573520Y-74945240D01*
X128221080Y-74730000D02*
X128436320Y-74945240D01*
X117228000Y-72730000D02*
X122738240Y-72730000D01*
X125491240Y-69977000D02*
X125491240Y-69504560D01*
X122738240Y-72730000D02*
X125491240Y-69977000D01*
X144094200Y-72430640D02*
X142864840Y-73660000D01*
X142864840Y-73660000D02*
X140970000Y-73660000D01*
G36*
X144335697Y-51346588D02*
X145035691Y-51814309D01*
X145503412Y-52514303D01*
X145675000Y-53376932D01*
X145675000Y-91440000D01*
X145682206Y-91476226D01*
X145682206Y-91513159D01*
X145875552Y-92485175D01*
X145931545Y-92620355D01*
X146482148Y-93444390D01*
X146585610Y-93547852D01*
X147409645Y-94098455D01*
X147544825Y-94154449D01*
X147544830Y-94154449D01*
X148516841Y-94347794D01*
X148553774Y-94347794D01*
X148590000Y-94355000D01*
X153633068Y-94355000D01*
X154495697Y-94526588D01*
X155195691Y-94994309D01*
X155663412Y-95694303D01*
X155835000Y-96556932D01*
X155835000Y-135853068D01*
X155834352Y-135856324D01*
X155675790Y-135059175D01*
X155205165Y-134354835D01*
X154500825Y-133884210D01*
X153670000Y-133718949D01*
X152839175Y-133884210D01*
X152134835Y-134354835D01*
X151664210Y-135059175D01*
X151498949Y-135890000D01*
X151664210Y-136720825D01*
X152134835Y-137425165D01*
X152839175Y-137895790D01*
X153636324Y-138054352D01*
X153633068Y-138055000D01*
X94016932Y-138055000D01*
X94013676Y-138054352D01*
X94810825Y-137895790D01*
X95515165Y-137425165D01*
X95985790Y-136720825D01*
X96151051Y-135890000D01*
X95985790Y-135059175D01*
X95515165Y-134354835D01*
X94810825Y-133884210D01*
X93980000Y-133718949D01*
X93149175Y-133884210D01*
X92444835Y-134354835D01*
X91974210Y-135059175D01*
X91815648Y-135856324D01*
X91815000Y-135853068D01*
X91815000Y-97790000D01*
X92335000Y-97790000D01*
X92335000Y-104140000D01*
X92342206Y-104176226D01*
X92342206Y-104213159D01*
X92438878Y-104699166D01*
X92438878Y-104699167D01*
X92494872Y-104834347D01*
X92770172Y-105246364D01*
X92873635Y-105349827D01*
X93285652Y-105625127D01*
X93285653Y-105625128D01*
X93420833Y-105681121D01*
X93906841Y-105777794D01*
X93943774Y-105777794D01*
X93980000Y-105785000D01*
X95250000Y-105785000D01*
X95286226Y-105777794D01*
X95323159Y-105777794D01*
X95809166Y-105681122D01*
X95809167Y-105681122D01*
X95944347Y-105625128D01*
X96356364Y-105349828D01*
X96459827Y-105246365D01*
X96735128Y-104834347D01*
X96791121Y-104699167D01*
X96791121Y-104699166D01*
X96887794Y-104213159D01*
X96887794Y-104176226D01*
X96895000Y-104140000D01*
X96895000Y-97790000D01*
X96887794Y-97753774D01*
X96887794Y-97716841D01*
X96791121Y-97230833D01*
X96735128Y-97095653D01*
X96459827Y-96683635D01*
X96356364Y-96580172D01*
X96266310Y-96520000D01*
X103511000Y-96520000D01*
X103511000Y-96774000D01*
X103518205Y-96810222D01*
X103518205Y-96847159D01*
X103556875Y-97041562D01*
X103556875Y-97041563D01*
X103612868Y-97176742D01*
X103722989Y-97341550D01*
X103758591Y-97377151D01*
X103826451Y-97445011D01*
X103991258Y-97555132D01*
X104009500Y-97562688D01*
X104126438Y-97611126D01*
X104320842Y-97649795D01*
X104357778Y-97649795D01*
X104394000Y-97657000D01*
X111252000Y-97657000D01*
X111288222Y-97649795D01*
X111325159Y-97649795D01*
X111519562Y-97611125D01*
X111519563Y-97611125D01*
X111654742Y-97555132D01*
X111819550Y-97445011D01*
X111887409Y-97377151D01*
X111923011Y-97341549D01*
X112033132Y-97176742D01*
X112064790Y-97100313D01*
X112089126Y-97041562D01*
X112127795Y-96847158D01*
X112127795Y-96810222D01*
X112135000Y-96774000D01*
X112135000Y-96520000D01*
X112127795Y-96483778D01*
X112127795Y-96446842D01*
X112089126Y-96252438D01*
X112047608Y-96152206D01*
X112033132Y-96117258D01*
X111923011Y-95952451D01*
X111871280Y-95900720D01*
X111819550Y-95848989D01*
X111654742Y-95738868D01*
X111519563Y-95682875D01*
X111519562Y-95682875D01*
X111325159Y-95644205D01*
X111288222Y-95644205D01*
X111252000Y-95637000D01*
X104394000Y-95637000D01*
X104357778Y-95644205D01*
X104320842Y-95644205D01*
X104126438Y-95682874D01*
X104084613Y-95700199D01*
X103991258Y-95738868D01*
X103826451Y-95848989D01*
X103774721Y-95900719D01*
X103722989Y-95952450D01*
X103612868Y-96117258D01*
X103558350Y-96248878D01*
X103556875Y-96252438D01*
X103518205Y-96446841D01*
X103518205Y-96483778D01*
X103511000Y-96520000D01*
X96266310Y-96520000D01*
X95944347Y-96304872D01*
X95809167Y-96248878D01*
X95809166Y-96248878D01*
X95323159Y-96152206D01*
X95286226Y-96152206D01*
X95250000Y-96145000D01*
X93980000Y-96145000D01*
X93943774Y-96152206D01*
X93906841Y-96152206D01*
X93420833Y-96248879D01*
X93285653Y-96304872D01*
X92873635Y-96580173D01*
X92770172Y-96683636D01*
X92494872Y-97095653D01*
X92438878Y-97230833D01*
X92438878Y-97230834D01*
X92342206Y-97716841D01*
X92342206Y-97753774D01*
X92335000Y-97790000D01*
X91815000Y-97790000D01*
X91815000Y-96556932D01*
X91986588Y-95694303D01*
X92454309Y-94994309D01*
X93154303Y-94526588D01*
X94016932Y-94355000D01*
X99060000Y-94355000D01*
X99096226Y-94347794D01*
X99133159Y-94347794D01*
X100105175Y-94154448D01*
X100240355Y-94098455D01*
X101064390Y-93547852D01*
X101167852Y-93444390D01*
X101658556Y-92710000D01*
X103238949Y-92710000D01*
X103404210Y-93540825D01*
X103874835Y-94245165D01*
X104579175Y-94715790D01*
X105410000Y-94881051D01*
X106240825Y-94715790D01*
X106945165Y-94245165D01*
X107415790Y-93540825D01*
X107581051Y-92710000D01*
X107415790Y-91879175D01*
X106945165Y-91174835D01*
X106240825Y-90704210D01*
X105410000Y-90538949D01*
X104579175Y-90704210D01*
X103874835Y-91174835D01*
X103404210Y-91879175D01*
X103238949Y-92710000D01*
X101658556Y-92710000D01*
X101718455Y-92620355D01*
X101774449Y-92485175D01*
X101774449Y-92485170D01*
X101967794Y-91513159D01*
X101967794Y-91476226D01*
X101975000Y-91440000D01*
X101975000Y-78740000D01*
X105507470Y-78740000D01*
X105595009Y-79180086D01*
X105844297Y-79553173D01*
X106217384Y-79802461D01*
X106657470Y-79890000D01*
X106702530Y-79890000D01*
X107142616Y-79802461D01*
X107515703Y-79553173D01*
X107764991Y-79180086D01*
X107852530Y-78740000D01*
X107764991Y-78299914D01*
X107515703Y-77926827D01*
X107142616Y-77677539D01*
X106702530Y-77590000D01*
X106657470Y-77590000D01*
X106217384Y-77677539D01*
X105844297Y-77926827D01*
X105595009Y-78299914D01*
X105507470Y-78740000D01*
X101975000Y-78740000D01*
X101975000Y-76429114D01*
X105553054Y-76429114D01*
X105721117Y-76834866D01*
X106037060Y-77153488D01*
X106450885Y-77326950D01*
X106630000Y-77273917D01*
X106630000Y-76250000D01*
X106730000Y-76250000D01*
X106730000Y-77273917D01*
X106909115Y-77326950D01*
X107322940Y-77153488D01*
X107638883Y-76834866D01*
X107806946Y-76429114D01*
X107753837Y-76250000D01*
X106730000Y-76250000D01*
X106630000Y-76250000D01*
X105606163Y-76250000D01*
X105553054Y-76429114D01*
X101975000Y-76429114D01*
X101975000Y-61859160D01*
X102937360Y-61859160D01*
X102937360Y-74792840D01*
X102967808Y-74945914D01*
X103054517Y-75075683D01*
X103267875Y-75289040D01*
X103267877Y-75289043D01*
X103393947Y-75373280D01*
X103397647Y-75375752D01*
X103550720Y-75406201D01*
X103550725Y-75406200D01*
X105878715Y-75406200D01*
X105721117Y-75565134D01*
X105553054Y-75970886D01*
X105606163Y-76150000D01*
X106630000Y-76150000D01*
X106630000Y-76130000D01*
X106730000Y-76130000D01*
X106730000Y-76150000D01*
X107753837Y-76150000D01*
X107806946Y-75970886D01*
X107638883Y-75565134D01*
X107481285Y-75406200D01*
X107499834Y-75406200D01*
X108306475Y-76212840D01*
X108306477Y-76212843D01*
X108436247Y-76299552D01*
X108589320Y-76330000D01*
X114468327Y-76330000D01*
X114358064Y-76375672D01*
X114353736Y-76380000D01*
X114303000Y-76380000D01*
X114228000Y-76455000D01*
X114228000Y-76489674D01*
X114244703Y-76530000D01*
X114228000Y-76570326D01*
X114228000Y-76605000D01*
X114303000Y-76680000D01*
X114353736Y-76680000D01*
X114358064Y-76684328D01*
X114468327Y-76730000D01*
X114358064Y-76775672D01*
X114353736Y-76780000D01*
X114303000Y-76780000D01*
X114228000Y-76855000D01*
X114228000Y-76889674D01*
X114244703Y-76930000D01*
X114228000Y-76970326D01*
X114228000Y-77005000D01*
X114303000Y-77080000D01*
X114353736Y-77080000D01*
X114358064Y-77084328D01*
X114468327Y-77130000D01*
X114358064Y-77175672D01*
X114353736Y-77180000D01*
X114303000Y-77180000D01*
X114228000Y-77255000D01*
X114228000Y-77289674D01*
X114244703Y-77330000D01*
X114228000Y-77370326D01*
X114228000Y-77505000D01*
X114303000Y-77580000D01*
X114878000Y-77580000D01*
X114878000Y-77180000D01*
X114853000Y-77180000D01*
X114803000Y-77130000D01*
X114853000Y-77080000D01*
X114878000Y-77080000D01*
X114878000Y-76780000D01*
X114853000Y-76780000D01*
X114803000Y-76730000D01*
X114853000Y-76680000D01*
X114878000Y-76680000D01*
X114878000Y-76660000D01*
X114978000Y-76660000D01*
X114978000Y-76680000D01*
X114998000Y-76680000D01*
X114998000Y-76780000D01*
X114978000Y-76780000D01*
X114978000Y-77080000D01*
X115003000Y-77080000D01*
X115053000Y-77130000D01*
X115003000Y-77180000D01*
X114978000Y-77180000D01*
X114978000Y-77580000D01*
X115553000Y-77580000D01*
X115628000Y-77505000D01*
X115628000Y-77370326D01*
X115611297Y-77330000D01*
X115628000Y-77289674D01*
X115628000Y-77255000D01*
X115553000Y-77180000D01*
X115502264Y-77180000D01*
X115497936Y-77175672D01*
X115387673Y-77130000D01*
X115497936Y-77084328D01*
X115502264Y-77080000D01*
X115553000Y-77080000D01*
X115628000Y-77005000D01*
X115628000Y-76979493D01*
X115732603Y-77084279D01*
X115953049Y-77175816D01*
X116191744Y-77176024D01*
X116412349Y-77084872D01*
X116528638Y-76968786D01*
X116528000Y-76970326D01*
X116528000Y-77005000D01*
X116603000Y-77080000D01*
X116662488Y-77080000D01*
X116708997Y-77111778D01*
X116798979Y-77130000D01*
X116768327Y-77130000D01*
X116658064Y-77175672D01*
X116653736Y-77180000D01*
X116603000Y-77180000D01*
X116528000Y-77255000D01*
X116528000Y-77289674D01*
X116544703Y-77330000D01*
X116528000Y-77370326D01*
X116528000Y-77505000D01*
X116603000Y-77580000D01*
X117178000Y-77580000D01*
X117178000Y-77560000D01*
X117278000Y-77560000D01*
X117278000Y-77580000D01*
X117853000Y-77580000D01*
X117928000Y-77505000D01*
X117928000Y-77370326D01*
X117911297Y-77330000D01*
X117928000Y-77289674D01*
X117928000Y-77255000D01*
X117853000Y-77180000D01*
X117802264Y-77180000D01*
X117797936Y-77175672D01*
X117687673Y-77130000D01*
X125819994Y-77130000D01*
X127229920Y-78539925D01*
X127229920Y-93042155D01*
X122739834Y-97532240D01*
X118351886Y-97532240D01*
X110669782Y-89850136D01*
X124242063Y-89850136D01*
X124371195Y-90162659D01*
X124610095Y-90401976D01*
X124922393Y-90531654D01*
X125260544Y-90531949D01*
X125573067Y-90402817D01*
X125812384Y-90163917D01*
X125942062Y-89851619D01*
X125942357Y-89513468D01*
X125813225Y-89200945D01*
X125574325Y-88961628D01*
X125262027Y-88831950D01*
X124923876Y-88831655D01*
X124611353Y-88960787D01*
X124372036Y-89199687D01*
X124242358Y-89511985D01*
X124242063Y-89850136D01*
X110669782Y-89850136D01*
X110356600Y-89536954D01*
X110356600Y-87129463D01*
X121725086Y-87129463D01*
X121828392Y-87379482D01*
X122019512Y-87570936D01*
X122269350Y-87674678D01*
X122539871Y-87674914D01*
X122789890Y-87571608D01*
X122981344Y-87380488D01*
X123085086Y-87130650D01*
X123085322Y-86860129D01*
X122982016Y-86610110D01*
X122790896Y-86418656D01*
X122541058Y-86314914D01*
X122270537Y-86314678D01*
X122020518Y-86417984D01*
X121829064Y-86609104D01*
X121725322Y-86858942D01*
X121725086Y-87129463D01*
X110356600Y-87129463D01*
X110356600Y-78306246D01*
X110821475Y-77841371D01*
X110974584Y-77841504D01*
X111183939Y-77755000D01*
X114228000Y-77755000D01*
X114228000Y-77889674D01*
X114273672Y-77999937D01*
X114358064Y-78084328D01*
X114468327Y-78130000D01*
X114803000Y-78130000D01*
X114878000Y-78055000D01*
X114878000Y-77680000D01*
X114978000Y-77680000D01*
X114978000Y-78055000D01*
X115053000Y-78130000D01*
X115387673Y-78130000D01*
X115497936Y-78084328D01*
X115582328Y-77999937D01*
X115628000Y-77889674D01*
X115628000Y-77755000D01*
X116528000Y-77755000D01*
X116528000Y-77889674D01*
X116573672Y-77999937D01*
X116658064Y-78084328D01*
X116768327Y-78130000D01*
X117103000Y-78130000D01*
X117178000Y-78055000D01*
X117178000Y-77680000D01*
X117278000Y-77680000D01*
X117278000Y-78055000D01*
X117353000Y-78130000D01*
X117687673Y-78130000D01*
X117797936Y-78084328D01*
X117882328Y-77999937D01*
X117928000Y-77889674D01*
X117928000Y-77755000D01*
X117853000Y-77680000D01*
X117278000Y-77680000D01*
X117178000Y-77680000D01*
X116603000Y-77680000D01*
X116528000Y-77755000D01*
X115628000Y-77755000D01*
X115553000Y-77680000D01*
X114978000Y-77680000D01*
X114878000Y-77680000D01*
X114303000Y-77680000D01*
X114228000Y-77755000D01*
X111183939Y-77755000D01*
X111195189Y-77750352D01*
X111364119Y-77581717D01*
X111455656Y-77361271D01*
X111455864Y-77122576D01*
X111364712Y-76901971D01*
X111196077Y-76733041D01*
X110975631Y-76641504D01*
X110736936Y-76641296D01*
X110516331Y-76732448D01*
X110347401Y-76901083D01*
X110255864Y-77121529D01*
X110255730Y-77275744D01*
X109673757Y-77857717D01*
X109587048Y-77987486D01*
X109556600Y-78140560D01*
X109556600Y-83245503D01*
X109319616Y-83245296D01*
X109099011Y-83336448D01*
X108930081Y-83505083D01*
X108838544Y-83725529D01*
X108838336Y-83964224D01*
X108929488Y-84184829D01*
X109038440Y-84293972D01*
X109038440Y-85716794D01*
X108583725Y-86171509D01*
X108430616Y-86171376D01*
X108210011Y-86262528D01*
X108041081Y-86431163D01*
X107949544Y-86651609D01*
X107949336Y-86890304D01*
X108040488Y-87110909D01*
X108209123Y-87279839D01*
X108429569Y-87371376D01*
X108668264Y-87371584D01*
X108888869Y-87280432D01*
X109057799Y-87111797D01*
X109149336Y-86891351D01*
X109149470Y-86737136D01*
X109556600Y-86330006D01*
X109556600Y-89702640D01*
X109587048Y-89855714D01*
X109673757Y-89985483D01*
X117903357Y-98215083D01*
X118033126Y-98301792D01*
X118186200Y-98332240D01*
X122905520Y-98332240D01*
X123058594Y-98301792D01*
X123188363Y-98215083D01*
X123613445Y-97790000D01*
X150755000Y-97790000D01*
X150755000Y-104140000D01*
X150762206Y-104176226D01*
X150762206Y-104213159D01*
X150858878Y-104699166D01*
X150858878Y-104699167D01*
X150914872Y-104834347D01*
X151190172Y-105246364D01*
X151293635Y-105349827D01*
X151705652Y-105625127D01*
X151705653Y-105625128D01*
X151840833Y-105681121D01*
X152326841Y-105777794D01*
X152363774Y-105777794D01*
X152400000Y-105785000D01*
X153670000Y-105785000D01*
X153706226Y-105777794D01*
X153743159Y-105777794D01*
X154229166Y-105681122D01*
X154229167Y-105681122D01*
X154364347Y-105625128D01*
X154776364Y-105349828D01*
X154879827Y-105246365D01*
X155155128Y-104834347D01*
X155211121Y-104699167D01*
X155211121Y-104699166D01*
X155307794Y-104213159D01*
X155307794Y-104176226D01*
X155315000Y-104140000D01*
X155315000Y-97790000D01*
X155307794Y-97753774D01*
X155307794Y-97716841D01*
X155211121Y-97230833D01*
X155155128Y-97095653D01*
X154879827Y-96683635D01*
X154776364Y-96580172D01*
X154364347Y-96304872D01*
X154229167Y-96248878D01*
X154229166Y-96248878D01*
X153743159Y-96152206D01*
X153706226Y-96152206D01*
X153670000Y-96145000D01*
X152400000Y-96145000D01*
X152363774Y-96152206D01*
X152326841Y-96152206D01*
X151840833Y-96248879D01*
X151705653Y-96304872D01*
X151293635Y-96580173D01*
X151190172Y-96683636D01*
X150914872Y-97095653D01*
X150858878Y-97230833D01*
X150858878Y-97230834D01*
X150762206Y-97716841D01*
X150762206Y-97753774D01*
X150755000Y-97790000D01*
X123613445Y-97790000D01*
X127912760Y-93490685D01*
X127912763Y-93490683D01*
X127999472Y-93360913D01*
X128029921Y-93207840D01*
X128029920Y-93207835D01*
X128029920Y-92710000D01*
X140068949Y-92710000D01*
X140234210Y-93540825D01*
X140704835Y-94245165D01*
X141409175Y-94715790D01*
X142240000Y-94881051D01*
X143070825Y-94715790D01*
X143775165Y-94245165D01*
X144245790Y-93540825D01*
X144411051Y-92710000D01*
X144245790Y-91879175D01*
X143775165Y-91174835D01*
X143070825Y-90704210D01*
X142240000Y-90538949D01*
X141409175Y-90704210D01*
X140704835Y-91174835D01*
X140234210Y-91879175D01*
X140068949Y-92710000D01*
X128029920Y-92710000D01*
X128029920Y-78374245D01*
X128029921Y-78374240D01*
X127999472Y-78221167D01*
X127945612Y-78140560D01*
X127912763Y-78091397D01*
X127912760Y-78091395D01*
X126919206Y-77097840D01*
X136745394Y-77097840D01*
X139335877Y-79688323D01*
X139465646Y-79775032D01*
X139618720Y-79805480D01*
X142941040Y-79805480D01*
X143094114Y-79775032D01*
X143223883Y-79688323D01*
X145154283Y-77757923D01*
X145240992Y-77628154D01*
X145271441Y-77475080D01*
X145271440Y-77475075D01*
X145271440Y-61554360D01*
X145240992Y-61401287D01*
X145240992Y-61401286D01*
X145154283Y-61271517D01*
X144559923Y-60677157D01*
X144430154Y-60590448D01*
X144277080Y-60560000D01*
X142062965Y-60560000D01*
X142054991Y-60519914D01*
X141805703Y-60146827D01*
X141432616Y-59897539D01*
X140992530Y-59810000D01*
X140947470Y-59810000D01*
X140507384Y-59897539D01*
X140134297Y-60146827D01*
X139885009Y-60519914D01*
X139797470Y-60960000D01*
X139885009Y-61400086D01*
X140134297Y-61773173D01*
X140264962Y-61860480D01*
X139948920Y-61860480D01*
X139795846Y-61890928D01*
X139689360Y-61962080D01*
X138343640Y-61962080D01*
X138190566Y-61992528D01*
X138060797Y-62079237D01*
X135530957Y-64609077D01*
X135444248Y-64738846D01*
X135444248Y-64738847D01*
X135413800Y-64891920D01*
X135413800Y-69213280D01*
X135337232Y-69027971D01*
X135168597Y-68859041D01*
X134948151Y-68767504D01*
X134709456Y-68767296D01*
X134488851Y-68858448D01*
X134319921Y-69027083D01*
X134228384Y-69247529D01*
X134228176Y-69486224D01*
X134319328Y-69706829D01*
X134487963Y-69875759D01*
X134708409Y-69967296D01*
X134862624Y-69967430D01*
X134946440Y-70051246D01*
X134946440Y-72869597D01*
X134870208Y-72983686D01*
X134858039Y-73044864D01*
X134845582Y-73107492D01*
X133407834Y-74545240D01*
X131692321Y-74545240D01*
X131745778Y-74467003D01*
X131769877Y-74348000D01*
X131769877Y-73448000D01*
X131748958Y-73336827D01*
X131683255Y-73234721D01*
X131583003Y-73166222D01*
X131464000Y-73142123D01*
X130690147Y-73142123D01*
X130629200Y-73130000D01*
X123422086Y-73130000D01*
X124703193Y-71848893D01*
X124703176Y-71868744D01*
X124794328Y-72089349D01*
X124962963Y-72258279D01*
X125183409Y-72349816D01*
X125422104Y-72350024D01*
X125548012Y-72298000D01*
X129408123Y-72298000D01*
X129408123Y-72348000D01*
X129429042Y-72459173D01*
X129494745Y-72561279D01*
X129594997Y-72629778D01*
X129714000Y-72653877D01*
X130514000Y-72653877D01*
X130625173Y-72632958D01*
X130727279Y-72567255D01*
X130795778Y-72467003D01*
X130819877Y-72348000D01*
X130819877Y-72023000D01*
X131314000Y-72023000D01*
X131314000Y-72407674D01*
X131359672Y-72517937D01*
X131444064Y-72602328D01*
X131554327Y-72648000D01*
X131889000Y-72648000D01*
X131964000Y-72573000D01*
X131964000Y-71948000D01*
X132064000Y-71948000D01*
X132064000Y-72573000D01*
X132139000Y-72648000D01*
X132473673Y-72648000D01*
X132583936Y-72602328D01*
X132668328Y-72517937D01*
X132714000Y-72407674D01*
X132714000Y-72023000D01*
X132639000Y-71948000D01*
X132064000Y-71948000D01*
X131964000Y-71948000D01*
X131389000Y-71948000D01*
X131314000Y-72023000D01*
X130819877Y-72023000D01*
X130819877Y-71448000D01*
X130808649Y-71388326D01*
X131314000Y-71388326D01*
X131314000Y-71773000D01*
X131389000Y-71848000D01*
X131964000Y-71848000D01*
X131964000Y-71223000D01*
X132064000Y-71223000D01*
X132064000Y-71848000D01*
X132639000Y-71848000D01*
X132714000Y-71773000D01*
X132714000Y-71388326D01*
X132668328Y-71278063D01*
X132583936Y-71193672D01*
X132473673Y-71148000D01*
X132139000Y-71148000D01*
X132064000Y-71223000D01*
X131964000Y-71223000D01*
X131889000Y-71148000D01*
X131554327Y-71148000D01*
X131444064Y-71193672D01*
X131359672Y-71278063D01*
X131314000Y-71388326D01*
X130808649Y-71388326D01*
X130798958Y-71336827D01*
X130733255Y-71234721D01*
X130633003Y-71166222D01*
X130514000Y-71142123D01*
X129714000Y-71142123D01*
X129602827Y-71163042D01*
X129500721Y-71228745D01*
X129432222Y-71328997D01*
X129408123Y-71448000D01*
X129408123Y-71498000D01*
X125848390Y-71498000D01*
X125812232Y-71410491D01*
X125643597Y-71241561D01*
X125423151Y-71150024D01*
X125402080Y-71150006D01*
X126586883Y-69965203D01*
X126673592Y-69835434D01*
X126704040Y-69682360D01*
X126704040Y-62179205D01*
X126704041Y-62179200D01*
X126673592Y-62026126D01*
X126586883Y-61896357D01*
X125103523Y-60412997D01*
X124973754Y-60326288D01*
X124820680Y-60295840D01*
X124676486Y-60295840D01*
X123082000Y-58701354D01*
X123082000Y-58420000D01*
X139797470Y-58420000D01*
X139885009Y-58860086D01*
X140134297Y-59233173D01*
X140507384Y-59482461D01*
X140947470Y-59570000D01*
X140992530Y-59570000D01*
X141432616Y-59482461D01*
X141805703Y-59233173D01*
X142054991Y-58860086D01*
X142142530Y-58420000D01*
X142054991Y-57979914D01*
X141805703Y-57606827D01*
X141432616Y-57357539D01*
X140992530Y-57270000D01*
X140947470Y-57270000D01*
X140507384Y-57357539D01*
X140134297Y-57606827D01*
X139885009Y-57979914D01*
X139797470Y-58420000D01*
X123082000Y-58420000D01*
X123082000Y-56863809D01*
X123282789Y-56780845D01*
X123581795Y-56482360D01*
X123743815Y-56092172D01*
X123743816Y-56090318D01*
X124159816Y-56090318D01*
X124321155Y-56480789D01*
X124619640Y-56779795D01*
X125009828Y-56941815D01*
X125432318Y-56942184D01*
X125822789Y-56780845D01*
X126121795Y-56482360D01*
X126283815Y-56092172D01*
X126283816Y-56090318D01*
X126699816Y-56090318D01*
X126861155Y-56480789D01*
X127159640Y-56779795D01*
X127549828Y-56941815D01*
X127972318Y-56942184D01*
X128362789Y-56780845D01*
X128661795Y-56482360D01*
X128823815Y-56092172D01*
X128824184Y-55669682D01*
X128662845Y-55279211D01*
X128414069Y-55030000D01*
X139814123Y-55030000D01*
X139814123Y-56730000D01*
X139835042Y-56841173D01*
X139900745Y-56943279D01*
X140000997Y-57011778D01*
X140120000Y-57035877D01*
X141820000Y-57035877D01*
X141931173Y-57014958D01*
X142033279Y-56949255D01*
X142101778Y-56849003D01*
X142125877Y-56730000D01*
X142125877Y-55030000D01*
X142104958Y-54918827D01*
X142039255Y-54816721D01*
X141939003Y-54748222D01*
X141820000Y-54724123D01*
X140120000Y-54724123D01*
X140008827Y-54745042D01*
X139906721Y-54810745D01*
X139838222Y-54910997D01*
X139814123Y-55030000D01*
X128414069Y-55030000D01*
X128364360Y-54980205D01*
X127974172Y-54818185D01*
X127551682Y-54817816D01*
X127161211Y-54979155D01*
X126862205Y-55277640D01*
X126700185Y-55667828D01*
X126699816Y-56090318D01*
X126283816Y-56090318D01*
X126284184Y-55669682D01*
X126122845Y-55279211D01*
X125824360Y-54980205D01*
X125434172Y-54818185D01*
X125011682Y-54817816D01*
X124621211Y-54979155D01*
X124322205Y-55277640D01*
X124160185Y-55667828D01*
X124159816Y-56090318D01*
X123743816Y-56090318D01*
X123744184Y-55669682D01*
X123582845Y-55279211D01*
X123284360Y-54980205D01*
X122894172Y-54818185D01*
X122471682Y-54817816D01*
X122081211Y-54979155D01*
X121782205Y-55277640D01*
X121620185Y-55667828D01*
X121619816Y-56090318D01*
X121781155Y-56480789D01*
X122079640Y-56779795D01*
X122282000Y-56863822D01*
X122282000Y-58867040D01*
X122312448Y-59020114D01*
X122399157Y-59149883D01*
X124227957Y-60978683D01*
X124357726Y-61065392D01*
X124510800Y-61095841D01*
X124510805Y-61095840D01*
X124654994Y-61095840D01*
X125904040Y-62344886D01*
X125904040Y-69068811D01*
X125831557Y-68996201D01*
X125611111Y-68904664D01*
X125372416Y-68904456D01*
X125151811Y-68995608D01*
X124982881Y-69164243D01*
X124891344Y-69384689D01*
X124891136Y-69623384D01*
X124982288Y-69843989D01*
X125020393Y-69882161D01*
X122572554Y-72330000D01*
X117903000Y-72330000D01*
X117853000Y-72280000D01*
X117278000Y-72280000D01*
X117278000Y-72300000D01*
X117178000Y-72300000D01*
X117178000Y-72280000D01*
X116603000Y-72280000D01*
X116528000Y-72355000D01*
X116528000Y-72489674D01*
X116543139Y-72526222D01*
X116522123Y-72630000D01*
X116522123Y-72715478D01*
X116253803Y-72447157D01*
X116124034Y-72360448D01*
X115970960Y-72330000D01*
X115603000Y-72330000D01*
X115553000Y-72280000D01*
X114978000Y-72280000D01*
X114978000Y-72300000D01*
X114878000Y-72300000D01*
X114878000Y-72280000D01*
X114303000Y-72280000D01*
X114253000Y-72330000D01*
X114206245Y-72330000D01*
X114106504Y-72230258D01*
X114046952Y-72086131D01*
X113931350Y-71970326D01*
X114228000Y-71970326D01*
X114228000Y-72105000D01*
X114303000Y-72180000D01*
X114878000Y-72180000D01*
X114878000Y-71805000D01*
X114978000Y-71805000D01*
X114978000Y-72180000D01*
X115553000Y-72180000D01*
X115628000Y-72105000D01*
X115628000Y-71970326D01*
X116528000Y-71970326D01*
X116528000Y-72105000D01*
X116603000Y-72180000D01*
X117178000Y-72180000D01*
X117178000Y-71805000D01*
X117278000Y-71805000D01*
X117278000Y-72180000D01*
X117853000Y-72180000D01*
X117928000Y-72105000D01*
X117928000Y-71970326D01*
X117882328Y-71860063D01*
X117797936Y-71775672D01*
X117687673Y-71730000D01*
X117353000Y-71730000D01*
X117278000Y-71805000D01*
X117178000Y-71805000D01*
X117103000Y-71730000D01*
X116768327Y-71730000D01*
X116658064Y-71775672D01*
X116573672Y-71860063D01*
X116528000Y-71970326D01*
X115628000Y-71970326D01*
X115582328Y-71860063D01*
X115497936Y-71775672D01*
X115387673Y-71730000D01*
X115053000Y-71730000D01*
X114978000Y-71805000D01*
X114878000Y-71805000D01*
X114803000Y-71730000D01*
X114468327Y-71730000D01*
X114358064Y-71775672D01*
X114273672Y-71860063D01*
X114228000Y-71970326D01*
X113931350Y-71970326D01*
X113878317Y-71917201D01*
X113657871Y-71825664D01*
X113419176Y-71825456D01*
X113198571Y-71916608D01*
X113029641Y-72085243D01*
X112938104Y-72305689D01*
X112937896Y-72544384D01*
X113014591Y-72730000D01*
X109704046Y-72730000D01*
X109350760Y-72376714D01*
X109350760Y-70566280D01*
X109320312Y-70413207D01*
X109320312Y-70413206D01*
X109233603Y-70283437D01*
X108299230Y-69349064D01*
X108848496Y-69349064D01*
X108939648Y-69569669D01*
X109108283Y-69738599D01*
X109328729Y-69830136D01*
X109567424Y-69830344D01*
X109788029Y-69739192D01*
X109897172Y-69630240D01*
X110967520Y-69630240D01*
X111120594Y-69599792D01*
X111250363Y-69513083D01*
X111354875Y-69408571D01*
X111507984Y-69408704D01*
X111728589Y-69317552D01*
X111897519Y-69148917D01*
X111989056Y-68928471D01*
X111989264Y-68689776D01*
X111898112Y-68469171D01*
X111729477Y-68300241D01*
X111514908Y-68211144D01*
X117550536Y-68211144D01*
X117641688Y-68431749D01*
X117810323Y-68600679D01*
X118030769Y-68692216D01*
X118269464Y-68692424D01*
X118490069Y-68601272D01*
X118658999Y-68432637D01*
X118750536Y-68212191D01*
X118750670Y-68057976D01*
X120673446Y-66135200D01*
X124146994Y-66135200D01*
X124525509Y-66513715D01*
X124525376Y-66666824D01*
X124616528Y-66887429D01*
X124785163Y-67056359D01*
X125005609Y-67147896D01*
X125244304Y-67148104D01*
X125464909Y-67056952D01*
X125633839Y-66888317D01*
X125725376Y-66667871D01*
X125725584Y-66429176D01*
X125634432Y-66208571D01*
X125465797Y-66039641D01*
X125245351Y-65948104D01*
X125091136Y-65947970D01*
X124595523Y-65452357D01*
X124465754Y-65365648D01*
X124312680Y-65335200D01*
X120507760Y-65335200D01*
X120354686Y-65365648D01*
X120224917Y-65452357D01*
X118184925Y-67492349D01*
X118031816Y-67492216D01*
X117811211Y-67583368D01*
X117642281Y-67752003D01*
X117550744Y-67972449D01*
X117550536Y-68211144D01*
X111514908Y-68211144D01*
X111509031Y-68208704D01*
X111270336Y-68208496D01*
X111049731Y-68299648D01*
X110880801Y-68468283D01*
X110789264Y-68688729D01*
X110789141Y-68830240D01*
X109897087Y-68830240D01*
X109788917Y-68721881D01*
X109568471Y-68630344D01*
X109329776Y-68630136D01*
X109109171Y-68721288D01*
X108940241Y-68889923D01*
X108848704Y-69110369D01*
X108848496Y-69349064D01*
X108299230Y-69349064D01*
X107799046Y-68848880D01*
X107852530Y-68580000D01*
X107764991Y-68139914D01*
X107515703Y-67766827D01*
X107142616Y-67517539D01*
X106702530Y-67430000D01*
X106657470Y-67430000D01*
X106217384Y-67517539D01*
X105844297Y-67766827D01*
X105595009Y-68139914D01*
X105507470Y-68580000D01*
X105595009Y-69020086D01*
X105844297Y-69393173D01*
X105936948Y-69455080D01*
X105392806Y-69455080D01*
X105007360Y-69069634D01*
X105007360Y-66040000D01*
X105507470Y-66040000D01*
X105595009Y-66480086D01*
X105844297Y-66853173D01*
X106217384Y-67102461D01*
X106657470Y-67190000D01*
X106702530Y-67190000D01*
X107142616Y-67102461D01*
X107515703Y-66853173D01*
X107764991Y-66480086D01*
X107772965Y-66440000D01*
X110834797Y-66440000D01*
X110834776Y-66463624D01*
X110925928Y-66684229D01*
X111094563Y-66853159D01*
X111315009Y-66944696D01*
X111553704Y-66944904D01*
X111774309Y-66853752D01*
X111943239Y-66685117D01*
X112034776Y-66464671D01*
X112034984Y-66225976D01*
X111943832Y-66005371D01*
X111775197Y-65836441D01*
X111554751Y-65744904D01*
X111394376Y-65744764D01*
X111283154Y-65670448D01*
X111130080Y-65640000D01*
X107772965Y-65640000D01*
X107764991Y-65599914D01*
X107515703Y-65226827D01*
X107142616Y-64977539D01*
X106702530Y-64890000D01*
X106657470Y-64890000D01*
X106217384Y-64977539D01*
X105844297Y-65226827D01*
X105595009Y-65599914D01*
X105507470Y-66040000D01*
X105007360Y-66040000D01*
X105007360Y-64019607D01*
X105115719Y-63911437D01*
X105207256Y-63690991D01*
X105207464Y-63452296D01*
X105116312Y-63231691D01*
X104947677Y-63062761D01*
X104751814Y-62981432D01*
X105077846Y-62655400D01*
X105891331Y-62655400D01*
X105844297Y-62686827D01*
X105595009Y-63059914D01*
X105507470Y-63500000D01*
X105595009Y-63940086D01*
X105844297Y-64313173D01*
X106217384Y-64562461D01*
X106657470Y-64650000D01*
X106702530Y-64650000D01*
X107142616Y-64562461D01*
X107515703Y-64313173D01*
X107764991Y-63940086D01*
X107852530Y-63500000D01*
X107764991Y-63059914D01*
X107515703Y-62686827D01*
X107468669Y-62655400D01*
X107944920Y-62655400D01*
X108097994Y-62624952D01*
X108227763Y-62538243D01*
X108791643Y-61974363D01*
X108878352Y-61844594D01*
X108908801Y-61691520D01*
X108908800Y-61691515D01*
X108908800Y-60248805D01*
X108908801Y-60248800D01*
X108878352Y-60095726D01*
X108791643Y-59965957D01*
X107733260Y-58907574D01*
X107764991Y-58860086D01*
X107852530Y-58420000D01*
X107764991Y-57979914D01*
X107515703Y-57606827D01*
X107142616Y-57357539D01*
X106702530Y-57270000D01*
X106657470Y-57270000D01*
X106217384Y-57357539D01*
X105844297Y-57606827D01*
X105595009Y-57979914D01*
X105507470Y-58420000D01*
X105595009Y-58860086D01*
X105844297Y-59233173D01*
X106217384Y-59482461D01*
X106657470Y-59570000D01*
X106702530Y-59570000D01*
X107142616Y-59482461D01*
X107163093Y-59468779D01*
X108108800Y-60414486D01*
X108108800Y-61525834D01*
X107779234Y-61855400D01*
X107392641Y-61855400D01*
X107515703Y-61773173D01*
X107764991Y-61400086D01*
X107852530Y-60960000D01*
X107764991Y-60519914D01*
X107515703Y-60146827D01*
X107142616Y-59897539D01*
X106702530Y-59810000D01*
X106657470Y-59810000D01*
X106217384Y-59897539D01*
X105844297Y-60146827D01*
X105595009Y-60519914D01*
X105587035Y-60560000D01*
X104236520Y-60560000D01*
X104083447Y-60590448D01*
X103996115Y-60648801D01*
X103953677Y-60677157D01*
X103054517Y-61576317D01*
X102967808Y-61706086D01*
X102940258Y-61844593D01*
X102937360Y-61859160D01*
X101975000Y-61859160D01*
X101975000Y-55030000D01*
X105524123Y-55030000D01*
X105524123Y-56730000D01*
X105545042Y-56841173D01*
X105610745Y-56943279D01*
X105710997Y-57011778D01*
X105830000Y-57035877D01*
X107530000Y-57035877D01*
X107641173Y-57014958D01*
X107743279Y-56949255D01*
X107811778Y-56849003D01*
X107835877Y-56730000D01*
X107835877Y-56627104D01*
X119465606Y-56627104D01*
X119546673Y-56784463D01*
X119938112Y-56943437D01*
X120360591Y-56940512D01*
X120737327Y-56784463D01*
X120818394Y-56627104D01*
X120142000Y-55950711D01*
X119465606Y-56627104D01*
X107835877Y-56627104D01*
X107835877Y-55676112D01*
X119078563Y-55676112D01*
X119081488Y-56098591D01*
X119237537Y-56475327D01*
X119394896Y-56556394D01*
X120071289Y-55880000D01*
X120212711Y-55880000D01*
X120889104Y-56556394D01*
X121046463Y-56475327D01*
X121205437Y-56083888D01*
X121202512Y-55661409D01*
X121046463Y-55284673D01*
X120889104Y-55203606D01*
X120212711Y-55880000D01*
X120071289Y-55880000D01*
X119394896Y-55203606D01*
X119237537Y-55284673D01*
X119078563Y-55676112D01*
X107835877Y-55676112D01*
X107835877Y-55132896D01*
X119465606Y-55132896D01*
X120142000Y-55809289D01*
X120818394Y-55132896D01*
X120737327Y-54975537D01*
X120345888Y-54816563D01*
X119923409Y-54819488D01*
X119546673Y-54975537D01*
X119465606Y-55132896D01*
X107835877Y-55132896D01*
X107835877Y-55030000D01*
X107814958Y-54918827D01*
X107749255Y-54816721D01*
X107649003Y-54748222D01*
X107530000Y-54724123D01*
X105830000Y-54724123D01*
X105718827Y-54745042D01*
X105616721Y-54810745D01*
X105548222Y-54910997D01*
X105524123Y-55030000D01*
X101975000Y-55030000D01*
X101975000Y-53376932D01*
X102146588Y-52514303D01*
X102614309Y-51814309D01*
X103314303Y-51346588D01*
X104176932Y-51175000D01*
X143473068Y-51175000D01*
X144335697Y-51346588D01*
X144335697Y-51346588D01*
G37*
X144335697Y-51346588D02*
X145035691Y-51814309D01*
X145503412Y-52514303D01*
X145675000Y-53376932D01*
X145675000Y-91440000D01*
X145682206Y-91476226D01*
X145682206Y-91513159D01*
X145875552Y-92485175D01*
X145931545Y-92620355D01*
X146482148Y-93444390D01*
X146585610Y-93547852D01*
X147409645Y-94098455D01*
X147544825Y-94154449D01*
X147544830Y-94154449D01*
X148516841Y-94347794D01*
X148553774Y-94347794D01*
X148590000Y-94355000D01*
X153633068Y-94355000D01*
X154495697Y-94526588D01*
X155195691Y-94994309D01*
X155663412Y-95694303D01*
X155835000Y-96556932D01*
X155835000Y-135853068D01*
X155834352Y-135856324D01*
X155675790Y-135059175D01*
X155205165Y-134354835D01*
X154500825Y-133884210D01*
X153670000Y-133718949D01*
X152839175Y-133884210D01*
X152134835Y-134354835D01*
X151664210Y-135059175D01*
X151498949Y-135890000D01*
X151664210Y-136720825D01*
X152134835Y-137425165D01*
X152839175Y-137895790D01*
X153636324Y-138054352D01*
X153633068Y-138055000D01*
X94016932Y-138055000D01*
X94013676Y-138054352D01*
X94810825Y-137895790D01*
X95515165Y-137425165D01*
X95985790Y-136720825D01*
X96151051Y-135890000D01*
X95985790Y-135059175D01*
X95515165Y-134354835D01*
X94810825Y-133884210D01*
X93980000Y-133718949D01*
X93149175Y-133884210D01*
X92444835Y-134354835D01*
X91974210Y-135059175D01*
X91815648Y-135856324D01*
X91815000Y-135853068D01*
X91815000Y-97790000D01*
X92335000Y-97790000D01*
X92335000Y-104140000D01*
X92342206Y-104176226D01*
X92342206Y-104213159D01*
X92438878Y-104699166D01*
X92438878Y-104699167D01*
X92494872Y-104834347D01*
X92770172Y-105246364D01*
X92873635Y-105349827D01*
X93285652Y-105625127D01*
X93285653Y-105625128D01*
X93420833Y-105681121D01*
X93906841Y-105777794D01*
X93943774Y-105777794D01*
X93980000Y-105785000D01*
X95250000Y-105785000D01*
X95286226Y-105777794D01*
X95323159Y-105777794D01*
X95809166Y-105681122D01*
X95809167Y-105681122D01*
X95944347Y-105625128D01*
X96356364Y-105349828D01*
X96459827Y-105246365D01*
X96735128Y-104834347D01*
X96791121Y-104699167D01*
X96791121Y-104699166D01*
X96887794Y-104213159D01*
X96887794Y-104176226D01*
X96895000Y-104140000D01*
X96895000Y-97790000D01*
X96887794Y-97753774D01*
X96887794Y-97716841D01*
X96791121Y-97230833D01*
X96735128Y-97095653D01*
X96459827Y-96683635D01*
X96356364Y-96580172D01*
X96266310Y-96520000D01*
X103511000Y-96520000D01*
X103511000Y-96774000D01*
X103518205Y-96810222D01*
X103518205Y-96847159D01*
X103556875Y-97041562D01*
X103556875Y-97041563D01*
X103612868Y-97176742D01*
X103722989Y-97341550D01*
X103758591Y-97377151D01*
X103826451Y-97445011D01*
X103991258Y-97555132D01*
X104009500Y-97562688D01*
X104126438Y-97611126D01*
X104320842Y-97649795D01*
X104357778Y-97649795D01*
X104394000Y-97657000D01*
X111252000Y-97657000D01*
X111288222Y-97649795D01*
X111325159Y-97649795D01*
X111519562Y-97611125D01*
X111519563Y-97611125D01*
X111654742Y-97555132D01*
X111819550Y-97445011D01*
X111887409Y-97377151D01*
X111923011Y-97341549D01*
X112033132Y-97176742D01*
X112064790Y-97100313D01*
X112089126Y-97041562D01*
X112127795Y-96847158D01*
X112127795Y-96810222D01*
X112135000Y-96774000D01*
X112135000Y-96520000D01*
X112127795Y-96483778D01*
X112127795Y-96446842D01*
X112089126Y-96252438D01*
X112047608Y-96152206D01*
X112033132Y-96117258D01*
X111923011Y-95952451D01*
X111871280Y-95900720D01*
X111819550Y-95848989D01*
X111654742Y-95738868D01*
X111519563Y-95682875D01*
X111519562Y-95682875D01*
X111325159Y-95644205D01*
X111288222Y-95644205D01*
X111252000Y-95637000D01*
X104394000Y-95637000D01*
X104357778Y-95644205D01*
X104320842Y-95644205D01*
X104126438Y-95682874D01*
X104084613Y-95700199D01*
X103991258Y-95738868D01*
X103826451Y-95848989D01*
X103774721Y-95900719D01*
X103722989Y-95952450D01*
X103612868Y-96117258D01*
X103558350Y-96248878D01*
X103556875Y-96252438D01*
X103518205Y-96446841D01*
X103518205Y-96483778D01*
X103511000Y-96520000D01*
X96266310Y-96520000D01*
X95944347Y-96304872D01*
X95809167Y-96248878D01*
X95809166Y-96248878D01*
X95323159Y-96152206D01*
X95286226Y-96152206D01*
X95250000Y-96145000D01*
X93980000Y-96145000D01*
X93943774Y-96152206D01*
X93906841Y-96152206D01*
X93420833Y-96248879D01*
X93285653Y-96304872D01*
X92873635Y-96580173D01*
X92770172Y-96683636D01*
X92494872Y-97095653D01*
X92438878Y-97230833D01*
X92438878Y-97230834D01*
X92342206Y-97716841D01*
X92342206Y-97753774D01*
X92335000Y-97790000D01*
X91815000Y-97790000D01*
X91815000Y-96556932D01*
X91986588Y-95694303D01*
X92454309Y-94994309D01*
X93154303Y-94526588D01*
X94016932Y-94355000D01*
X99060000Y-94355000D01*
X99096226Y-94347794D01*
X99133159Y-94347794D01*
X100105175Y-94154448D01*
X100240355Y-94098455D01*
X101064390Y-93547852D01*
X101167852Y-93444390D01*
X101658556Y-92710000D01*
X103238949Y-92710000D01*
X103404210Y-93540825D01*
X103874835Y-94245165D01*
X104579175Y-94715790D01*
X105410000Y-94881051D01*
X106240825Y-94715790D01*
X106945165Y-94245165D01*
X107415790Y-93540825D01*
X107581051Y-92710000D01*
X107415790Y-91879175D01*
X106945165Y-91174835D01*
X106240825Y-90704210D01*
X105410000Y-90538949D01*
X104579175Y-90704210D01*
X103874835Y-91174835D01*
X103404210Y-91879175D01*
X103238949Y-92710000D01*
X101658556Y-92710000D01*
X101718455Y-92620355D01*
X101774449Y-92485175D01*
X101774449Y-92485170D01*
X101967794Y-91513159D01*
X101967794Y-91476226D01*
X101975000Y-91440000D01*
X101975000Y-78740000D01*
X105507470Y-78740000D01*
X105595009Y-79180086D01*
X105844297Y-79553173D01*
X106217384Y-79802461D01*
X106657470Y-79890000D01*
X106702530Y-79890000D01*
X107142616Y-79802461D01*
X107515703Y-79553173D01*
X107764991Y-79180086D01*
X107852530Y-78740000D01*
X107764991Y-78299914D01*
X107515703Y-77926827D01*
X107142616Y-77677539D01*
X106702530Y-77590000D01*
X106657470Y-77590000D01*
X106217384Y-77677539D01*
X105844297Y-77926827D01*
X105595009Y-78299914D01*
X105507470Y-78740000D01*
X101975000Y-78740000D01*
X101975000Y-76429114D01*
X105553054Y-76429114D01*
X105721117Y-76834866D01*
X106037060Y-77153488D01*
X106450885Y-77326950D01*
X106630000Y-77273917D01*
X106630000Y-76250000D01*
X106730000Y-76250000D01*
X106730000Y-77273917D01*
X106909115Y-77326950D01*
X107322940Y-77153488D01*
X107638883Y-76834866D01*
X107806946Y-76429114D01*
X107753837Y-76250000D01*
X106730000Y-76250000D01*
X106630000Y-76250000D01*
X105606163Y-76250000D01*
X105553054Y-76429114D01*
X101975000Y-76429114D01*
X101975000Y-61859160D01*
X102937360Y-61859160D01*
X102937360Y-74792840D01*
X102967808Y-74945914D01*
X103054517Y-75075683D01*
X103267875Y-75289040D01*
X103267877Y-75289043D01*
X103393947Y-75373280D01*
X103397647Y-75375752D01*
X103550720Y-75406201D01*
X103550725Y-75406200D01*
X105878715Y-75406200D01*
X105721117Y-75565134D01*
X105553054Y-75970886D01*
X105606163Y-76150000D01*
X106630000Y-76150000D01*
X106630000Y-76130000D01*
X106730000Y-76130000D01*
X106730000Y-76150000D01*
X107753837Y-76150000D01*
X107806946Y-75970886D01*
X107638883Y-75565134D01*
X107481285Y-75406200D01*
X107499834Y-75406200D01*
X108306475Y-76212840D01*
X108306477Y-76212843D01*
X108436247Y-76299552D01*
X108589320Y-76330000D01*
X114468327Y-76330000D01*
X114358064Y-76375672D01*
X114353736Y-76380000D01*
X114303000Y-76380000D01*
X114228000Y-76455000D01*
X114228000Y-76489674D01*
X114244703Y-76530000D01*
X114228000Y-76570326D01*
X114228000Y-76605000D01*
X114303000Y-76680000D01*
X114353736Y-76680000D01*
X114358064Y-76684328D01*
X114468327Y-76730000D01*
X114358064Y-76775672D01*
X114353736Y-76780000D01*
X114303000Y-76780000D01*
X114228000Y-76855000D01*
X114228000Y-76889674D01*
X114244703Y-76930000D01*
X114228000Y-76970326D01*
X114228000Y-77005000D01*
X114303000Y-77080000D01*
X114353736Y-77080000D01*
X114358064Y-77084328D01*
X114468327Y-77130000D01*
X114358064Y-77175672D01*
X114353736Y-77180000D01*
X114303000Y-77180000D01*
X114228000Y-77255000D01*
X114228000Y-77289674D01*
X114244703Y-77330000D01*
X114228000Y-77370326D01*
X114228000Y-77505000D01*
X114303000Y-77580000D01*
X114878000Y-77580000D01*
X114878000Y-77180000D01*
X114853000Y-77180000D01*
X114803000Y-77130000D01*
X114853000Y-77080000D01*
X114878000Y-77080000D01*
X114878000Y-76780000D01*
X114853000Y-76780000D01*
X114803000Y-76730000D01*
X114853000Y-76680000D01*
X114878000Y-76680000D01*
X114878000Y-76660000D01*
X114978000Y-76660000D01*
X114978000Y-76680000D01*
X114998000Y-76680000D01*
X114998000Y-76780000D01*
X114978000Y-76780000D01*
X114978000Y-77080000D01*
X115003000Y-77080000D01*
X115053000Y-77130000D01*
X115003000Y-77180000D01*
X114978000Y-77180000D01*
X114978000Y-77580000D01*
X115553000Y-77580000D01*
X115628000Y-77505000D01*
X115628000Y-77370326D01*
X115611297Y-77330000D01*
X115628000Y-77289674D01*
X115628000Y-77255000D01*
X115553000Y-77180000D01*
X115502264Y-77180000D01*
X115497936Y-77175672D01*
X115387673Y-77130000D01*
X115497936Y-77084328D01*
X115502264Y-77080000D01*
X115553000Y-77080000D01*
X115628000Y-77005000D01*
X115628000Y-76979493D01*
X115732603Y-77084279D01*
X115953049Y-77175816D01*
X116191744Y-77176024D01*
X116412349Y-77084872D01*
X116528638Y-76968786D01*
X116528000Y-76970326D01*
X116528000Y-77005000D01*
X116603000Y-77080000D01*
X116662488Y-77080000D01*
X116708997Y-77111778D01*
X116798979Y-77130000D01*
X116768327Y-77130000D01*
X116658064Y-77175672D01*
X116653736Y-77180000D01*
X116603000Y-77180000D01*
X116528000Y-77255000D01*
X116528000Y-77289674D01*
X116544703Y-77330000D01*
X116528000Y-77370326D01*
X116528000Y-77505000D01*
X116603000Y-77580000D01*
X117178000Y-77580000D01*
X117178000Y-77560000D01*
X117278000Y-77560000D01*
X117278000Y-77580000D01*
X117853000Y-77580000D01*
X117928000Y-77505000D01*
X117928000Y-77370326D01*
X117911297Y-77330000D01*
X117928000Y-77289674D01*
X117928000Y-77255000D01*
X117853000Y-77180000D01*
X117802264Y-77180000D01*
X117797936Y-77175672D01*
X117687673Y-77130000D01*
X125819994Y-77130000D01*
X127229920Y-78539925D01*
X127229920Y-93042155D01*
X122739834Y-97532240D01*
X118351886Y-97532240D01*
X110669782Y-89850136D01*
X124242063Y-89850136D01*
X124371195Y-90162659D01*
X124610095Y-90401976D01*
X124922393Y-90531654D01*
X125260544Y-90531949D01*
X125573067Y-90402817D01*
X125812384Y-90163917D01*
X125942062Y-89851619D01*
X125942357Y-89513468D01*
X125813225Y-89200945D01*
X125574325Y-88961628D01*
X125262027Y-88831950D01*
X124923876Y-88831655D01*
X124611353Y-88960787D01*
X124372036Y-89199687D01*
X124242358Y-89511985D01*
X124242063Y-89850136D01*
X110669782Y-89850136D01*
X110356600Y-89536954D01*
X110356600Y-87129463D01*
X121725086Y-87129463D01*
X121828392Y-87379482D01*
X122019512Y-87570936D01*
X122269350Y-87674678D01*
X122539871Y-87674914D01*
X122789890Y-87571608D01*
X122981344Y-87380488D01*
X123085086Y-87130650D01*
X123085322Y-86860129D01*
X122982016Y-86610110D01*
X122790896Y-86418656D01*
X122541058Y-86314914D01*
X122270537Y-86314678D01*
X122020518Y-86417984D01*
X121829064Y-86609104D01*
X121725322Y-86858942D01*
X121725086Y-87129463D01*
X110356600Y-87129463D01*
X110356600Y-78306246D01*
X110821475Y-77841371D01*
X110974584Y-77841504D01*
X111183939Y-77755000D01*
X114228000Y-77755000D01*
X114228000Y-77889674D01*
X114273672Y-77999937D01*
X114358064Y-78084328D01*
X114468327Y-78130000D01*
X114803000Y-78130000D01*
X114878000Y-78055000D01*
X114878000Y-77680000D01*
X114978000Y-77680000D01*
X114978000Y-78055000D01*
X115053000Y-78130000D01*
X115387673Y-78130000D01*
X115497936Y-78084328D01*
X115582328Y-77999937D01*
X115628000Y-77889674D01*
X115628000Y-77755000D01*
X116528000Y-77755000D01*
X116528000Y-77889674D01*
X116573672Y-77999937D01*
X116658064Y-78084328D01*
X116768327Y-78130000D01*
X117103000Y-78130000D01*
X117178000Y-78055000D01*
X117178000Y-77680000D01*
X117278000Y-77680000D01*
X117278000Y-78055000D01*
X117353000Y-78130000D01*
X117687673Y-78130000D01*
X117797936Y-78084328D01*
X117882328Y-77999937D01*
X117928000Y-77889674D01*
X117928000Y-77755000D01*
X117853000Y-77680000D01*
X117278000Y-77680000D01*
X117178000Y-77680000D01*
X116603000Y-77680000D01*
X116528000Y-77755000D01*
X115628000Y-77755000D01*
X115553000Y-77680000D01*
X114978000Y-77680000D01*
X114878000Y-77680000D01*
X114303000Y-77680000D01*
X114228000Y-77755000D01*
X111183939Y-77755000D01*
X111195189Y-77750352D01*
X111364119Y-77581717D01*
X111455656Y-77361271D01*
X111455864Y-77122576D01*
X111364712Y-76901971D01*
X111196077Y-76733041D01*
X110975631Y-76641504D01*
X110736936Y-76641296D01*
X110516331Y-76732448D01*
X110347401Y-76901083D01*
X110255864Y-77121529D01*
X110255730Y-77275744D01*
X109673757Y-77857717D01*
X109587048Y-77987486D01*
X109556600Y-78140560D01*
X109556600Y-83245503D01*
X109319616Y-83245296D01*
X109099011Y-83336448D01*
X108930081Y-83505083D01*
X108838544Y-83725529D01*
X108838336Y-83964224D01*
X108929488Y-84184829D01*
X109038440Y-84293972D01*
X109038440Y-85716794D01*
X108583725Y-86171509D01*
X108430616Y-86171376D01*
X108210011Y-86262528D01*
X108041081Y-86431163D01*
X107949544Y-86651609D01*
X107949336Y-86890304D01*
X108040488Y-87110909D01*
X108209123Y-87279839D01*
X108429569Y-87371376D01*
X108668264Y-87371584D01*
X108888869Y-87280432D01*
X109057799Y-87111797D01*
X109149336Y-86891351D01*
X109149470Y-86737136D01*
X109556600Y-86330006D01*
X109556600Y-89702640D01*
X109587048Y-89855714D01*
X109673757Y-89985483D01*
X117903357Y-98215083D01*
X118033126Y-98301792D01*
X118186200Y-98332240D01*
X122905520Y-98332240D01*
X123058594Y-98301792D01*
X123188363Y-98215083D01*
X123613445Y-97790000D01*
X150755000Y-97790000D01*
X150755000Y-104140000D01*
X150762206Y-104176226D01*
X150762206Y-104213159D01*
X150858878Y-104699166D01*
X150858878Y-104699167D01*
X150914872Y-104834347D01*
X151190172Y-105246364D01*
X151293635Y-105349827D01*
X151705652Y-105625127D01*
X151705653Y-105625128D01*
X151840833Y-105681121D01*
X152326841Y-105777794D01*
X152363774Y-105777794D01*
X152400000Y-105785000D01*
X153670000Y-105785000D01*
X153706226Y-105777794D01*
X153743159Y-105777794D01*
X154229166Y-105681122D01*
X154229167Y-105681122D01*
X154364347Y-105625128D01*
X154776364Y-105349828D01*
X154879827Y-105246365D01*
X155155128Y-104834347D01*
X155211121Y-104699167D01*
X155211121Y-104699166D01*
X155307794Y-104213159D01*
X155307794Y-104176226D01*
X155315000Y-104140000D01*
X155315000Y-97790000D01*
X155307794Y-97753774D01*
X155307794Y-97716841D01*
X155211121Y-97230833D01*
X155155128Y-97095653D01*
X154879827Y-96683635D01*
X154776364Y-96580172D01*
X154364347Y-96304872D01*
X154229167Y-96248878D01*
X154229166Y-96248878D01*
X153743159Y-96152206D01*
X153706226Y-96152206D01*
X153670000Y-96145000D01*
X152400000Y-96145000D01*
X152363774Y-96152206D01*
X152326841Y-96152206D01*
X151840833Y-96248879D01*
X151705653Y-96304872D01*
X151293635Y-96580173D01*
X151190172Y-96683636D01*
X150914872Y-97095653D01*
X150858878Y-97230833D01*
X150858878Y-97230834D01*
X150762206Y-97716841D01*
X150762206Y-97753774D01*
X150755000Y-97790000D01*
X123613445Y-97790000D01*
X127912760Y-93490685D01*
X127912763Y-93490683D01*
X127999472Y-93360913D01*
X128029921Y-93207840D01*
X128029920Y-93207835D01*
X128029920Y-92710000D01*
X140068949Y-92710000D01*
X140234210Y-93540825D01*
X140704835Y-94245165D01*
X141409175Y-94715790D01*
X142240000Y-94881051D01*
X143070825Y-94715790D01*
X143775165Y-94245165D01*
X144245790Y-93540825D01*
X144411051Y-92710000D01*
X144245790Y-91879175D01*
X143775165Y-91174835D01*
X143070825Y-90704210D01*
X142240000Y-90538949D01*
X141409175Y-90704210D01*
X140704835Y-91174835D01*
X140234210Y-91879175D01*
X140068949Y-92710000D01*
X128029920Y-92710000D01*
X128029920Y-78374245D01*
X128029921Y-78374240D01*
X127999472Y-78221167D01*
X127945612Y-78140560D01*
X127912763Y-78091397D01*
X127912760Y-78091395D01*
X126919206Y-77097840D01*
X136745394Y-77097840D01*
X139335877Y-79688323D01*
X139465646Y-79775032D01*
X139618720Y-79805480D01*
X142941040Y-79805480D01*
X143094114Y-79775032D01*
X143223883Y-79688323D01*
X145154283Y-77757923D01*
X145240992Y-77628154D01*
X145271441Y-77475080D01*
X145271440Y-77475075D01*
X145271440Y-61554360D01*
X145240992Y-61401287D01*
X145240992Y-61401286D01*
X145154283Y-61271517D01*
X144559923Y-60677157D01*
X144430154Y-60590448D01*
X144277080Y-60560000D01*
X142062965Y-60560000D01*
X142054991Y-60519914D01*
X141805703Y-60146827D01*
X141432616Y-59897539D01*
X140992530Y-59810000D01*
X140947470Y-59810000D01*
X140507384Y-59897539D01*
X140134297Y-60146827D01*
X139885009Y-60519914D01*
X139797470Y-60960000D01*
X139885009Y-61400086D01*
X140134297Y-61773173D01*
X140264962Y-61860480D01*
X139948920Y-61860480D01*
X139795846Y-61890928D01*
X139689360Y-61962080D01*
X138343640Y-61962080D01*
X138190566Y-61992528D01*
X138060797Y-62079237D01*
X135530957Y-64609077D01*
X135444248Y-64738846D01*
X135444248Y-64738847D01*
X135413800Y-64891920D01*
X135413800Y-69213280D01*
X135337232Y-69027971D01*
X135168597Y-68859041D01*
X134948151Y-68767504D01*
X134709456Y-68767296D01*
X134488851Y-68858448D01*
X134319921Y-69027083D01*
X134228384Y-69247529D01*
X134228176Y-69486224D01*
X134319328Y-69706829D01*
X134487963Y-69875759D01*
X134708409Y-69967296D01*
X134862624Y-69967430D01*
X134946440Y-70051246D01*
X134946440Y-72869597D01*
X134870208Y-72983686D01*
X134858039Y-73044864D01*
X134845582Y-73107492D01*
X133407834Y-74545240D01*
X131692321Y-74545240D01*
X131745778Y-74467003D01*
X131769877Y-74348000D01*
X131769877Y-73448000D01*
X131748958Y-73336827D01*
X131683255Y-73234721D01*
X131583003Y-73166222D01*
X131464000Y-73142123D01*
X130690147Y-73142123D01*
X130629200Y-73130000D01*
X123422086Y-73130000D01*
X124703193Y-71848893D01*
X124703176Y-71868744D01*
X124794328Y-72089349D01*
X124962963Y-72258279D01*
X125183409Y-72349816D01*
X125422104Y-72350024D01*
X125548012Y-72298000D01*
X129408123Y-72298000D01*
X129408123Y-72348000D01*
X129429042Y-72459173D01*
X129494745Y-72561279D01*
X129594997Y-72629778D01*
X129714000Y-72653877D01*
X130514000Y-72653877D01*
X130625173Y-72632958D01*
X130727279Y-72567255D01*
X130795778Y-72467003D01*
X130819877Y-72348000D01*
X130819877Y-72023000D01*
X131314000Y-72023000D01*
X131314000Y-72407674D01*
X131359672Y-72517937D01*
X131444064Y-72602328D01*
X131554327Y-72648000D01*
X131889000Y-72648000D01*
X131964000Y-72573000D01*
X131964000Y-71948000D01*
X132064000Y-71948000D01*
X132064000Y-72573000D01*
X132139000Y-72648000D01*
X132473673Y-72648000D01*
X132583936Y-72602328D01*
X132668328Y-72517937D01*
X132714000Y-72407674D01*
X132714000Y-72023000D01*
X132639000Y-71948000D01*
X132064000Y-71948000D01*
X131964000Y-71948000D01*
X131389000Y-71948000D01*
X131314000Y-72023000D01*
X130819877Y-72023000D01*
X130819877Y-71448000D01*
X130808649Y-71388326D01*
X131314000Y-71388326D01*
X131314000Y-71773000D01*
X131389000Y-71848000D01*
X131964000Y-71848000D01*
X131964000Y-71223000D01*
X132064000Y-71223000D01*
X132064000Y-71848000D01*
X132639000Y-71848000D01*
X132714000Y-71773000D01*
X132714000Y-71388326D01*
X132668328Y-71278063D01*
X132583936Y-71193672D01*
X132473673Y-71148000D01*
X132139000Y-71148000D01*
X132064000Y-71223000D01*
X131964000Y-71223000D01*
X131889000Y-71148000D01*
X131554327Y-71148000D01*
X131444064Y-71193672D01*
X131359672Y-71278063D01*
X131314000Y-71388326D01*
X130808649Y-71388326D01*
X130798958Y-71336827D01*
X130733255Y-71234721D01*
X130633003Y-71166222D01*
X130514000Y-71142123D01*
X129714000Y-71142123D01*
X129602827Y-71163042D01*
X129500721Y-71228745D01*
X129432222Y-71328997D01*
X129408123Y-71448000D01*
X129408123Y-71498000D01*
X125848390Y-71498000D01*
X125812232Y-71410491D01*
X125643597Y-71241561D01*
X125423151Y-71150024D01*
X125402080Y-71150006D01*
X126586883Y-69965203D01*
X126673592Y-69835434D01*
X126704040Y-69682360D01*
X126704040Y-62179205D01*
X126704041Y-62179200D01*
X126673592Y-62026126D01*
X126586883Y-61896357D01*
X125103523Y-60412997D01*
X124973754Y-60326288D01*
X124820680Y-60295840D01*
X124676486Y-60295840D01*
X123082000Y-58701354D01*
X123082000Y-58420000D01*
X139797470Y-58420000D01*
X139885009Y-58860086D01*
X140134297Y-59233173D01*
X140507384Y-59482461D01*
X140947470Y-59570000D01*
X140992530Y-59570000D01*
X141432616Y-59482461D01*
X141805703Y-59233173D01*
X142054991Y-58860086D01*
X142142530Y-58420000D01*
X142054991Y-57979914D01*
X141805703Y-57606827D01*
X141432616Y-57357539D01*
X140992530Y-57270000D01*
X140947470Y-57270000D01*
X140507384Y-57357539D01*
X140134297Y-57606827D01*
X139885009Y-57979914D01*
X139797470Y-58420000D01*
X123082000Y-58420000D01*
X123082000Y-56863809D01*
X123282789Y-56780845D01*
X123581795Y-56482360D01*
X123743815Y-56092172D01*
X123743816Y-56090318D01*
X124159816Y-56090318D01*
X124321155Y-56480789D01*
X124619640Y-56779795D01*
X125009828Y-56941815D01*
X125432318Y-56942184D01*
X125822789Y-56780845D01*
X126121795Y-56482360D01*
X126283815Y-56092172D01*
X126283816Y-56090318D01*
X126699816Y-56090318D01*
X126861155Y-56480789D01*
X127159640Y-56779795D01*
X127549828Y-56941815D01*
X127972318Y-56942184D01*
X128362789Y-56780845D01*
X128661795Y-56482360D01*
X128823815Y-56092172D01*
X128824184Y-55669682D01*
X128662845Y-55279211D01*
X128414069Y-55030000D01*
X139814123Y-55030000D01*
X139814123Y-56730000D01*
X139835042Y-56841173D01*
X139900745Y-56943279D01*
X140000997Y-57011778D01*
X140120000Y-57035877D01*
X141820000Y-57035877D01*
X141931173Y-57014958D01*
X142033279Y-56949255D01*
X142101778Y-56849003D01*
X142125877Y-56730000D01*
X142125877Y-55030000D01*
X142104958Y-54918827D01*
X142039255Y-54816721D01*
X141939003Y-54748222D01*
X141820000Y-54724123D01*
X140120000Y-54724123D01*
X140008827Y-54745042D01*
X139906721Y-54810745D01*
X139838222Y-54910997D01*
X139814123Y-55030000D01*
X128414069Y-55030000D01*
X128364360Y-54980205D01*
X127974172Y-54818185D01*
X127551682Y-54817816D01*
X127161211Y-54979155D01*
X126862205Y-55277640D01*
X126700185Y-55667828D01*
X126699816Y-56090318D01*
X126283816Y-56090318D01*
X126284184Y-55669682D01*
X126122845Y-55279211D01*
X125824360Y-54980205D01*
X125434172Y-54818185D01*
X125011682Y-54817816D01*
X124621211Y-54979155D01*
X124322205Y-55277640D01*
X124160185Y-55667828D01*
X124159816Y-56090318D01*
X123743816Y-56090318D01*
X123744184Y-55669682D01*
X123582845Y-55279211D01*
X123284360Y-54980205D01*
X122894172Y-54818185D01*
X122471682Y-54817816D01*
X122081211Y-54979155D01*
X121782205Y-55277640D01*
X121620185Y-55667828D01*
X121619816Y-56090318D01*
X121781155Y-56480789D01*
X122079640Y-56779795D01*
X122282000Y-56863822D01*
X122282000Y-58867040D01*
X122312448Y-59020114D01*
X122399157Y-59149883D01*
X124227957Y-60978683D01*
X124357726Y-61065392D01*
X124510800Y-61095841D01*
X124510805Y-61095840D01*
X124654994Y-61095840D01*
X125904040Y-62344886D01*
X125904040Y-69068811D01*
X125831557Y-68996201D01*
X125611111Y-68904664D01*
X125372416Y-68904456D01*
X125151811Y-68995608D01*
X124982881Y-69164243D01*
X124891344Y-69384689D01*
X124891136Y-69623384D01*
X124982288Y-69843989D01*
X125020393Y-69882161D01*
X122572554Y-72330000D01*
X117903000Y-72330000D01*
X117853000Y-72280000D01*
X117278000Y-72280000D01*
X117278000Y-72300000D01*
X117178000Y-72300000D01*
X117178000Y-72280000D01*
X116603000Y-72280000D01*
X116528000Y-72355000D01*
X116528000Y-72489674D01*
X116543139Y-72526222D01*
X116522123Y-72630000D01*
X116522123Y-72715478D01*
X116253803Y-72447157D01*
X116124034Y-72360448D01*
X115970960Y-72330000D01*
X115603000Y-72330000D01*
X115553000Y-72280000D01*
X114978000Y-72280000D01*
X114978000Y-72300000D01*
X114878000Y-72300000D01*
X114878000Y-72280000D01*
X114303000Y-72280000D01*
X114253000Y-72330000D01*
X114206245Y-72330000D01*
X114106504Y-72230258D01*
X114046952Y-72086131D01*
X113931350Y-71970326D01*
X114228000Y-71970326D01*
X114228000Y-72105000D01*
X114303000Y-72180000D01*
X114878000Y-72180000D01*
X114878000Y-71805000D01*
X114978000Y-71805000D01*
X114978000Y-72180000D01*
X115553000Y-72180000D01*
X115628000Y-72105000D01*
X115628000Y-71970326D01*
X116528000Y-71970326D01*
X116528000Y-72105000D01*
X116603000Y-72180000D01*
X117178000Y-72180000D01*
X117178000Y-71805000D01*
X117278000Y-71805000D01*
X117278000Y-72180000D01*
X117853000Y-72180000D01*
X117928000Y-72105000D01*
X117928000Y-71970326D01*
X117882328Y-71860063D01*
X117797936Y-71775672D01*
X117687673Y-71730000D01*
X117353000Y-71730000D01*
X117278000Y-71805000D01*
X117178000Y-71805000D01*
X117103000Y-71730000D01*
X116768327Y-71730000D01*
X116658064Y-71775672D01*
X116573672Y-71860063D01*
X116528000Y-71970326D01*
X115628000Y-71970326D01*
X115582328Y-71860063D01*
X115497936Y-71775672D01*
X115387673Y-71730000D01*
X115053000Y-71730000D01*
X114978000Y-71805000D01*
X114878000Y-71805000D01*
X114803000Y-71730000D01*
X114468327Y-71730000D01*
X114358064Y-71775672D01*
X114273672Y-71860063D01*
X114228000Y-71970326D01*
X113931350Y-71970326D01*
X113878317Y-71917201D01*
X113657871Y-71825664D01*
X113419176Y-71825456D01*
X113198571Y-71916608D01*
X113029641Y-72085243D01*
X112938104Y-72305689D01*
X112937896Y-72544384D01*
X113014591Y-72730000D01*
X109704046Y-72730000D01*
X109350760Y-72376714D01*
X109350760Y-70566280D01*
X109320312Y-70413207D01*
X109320312Y-70413206D01*
X109233603Y-70283437D01*
X108299230Y-69349064D01*
X108848496Y-69349064D01*
X108939648Y-69569669D01*
X109108283Y-69738599D01*
X109328729Y-69830136D01*
X109567424Y-69830344D01*
X109788029Y-69739192D01*
X109897172Y-69630240D01*
X110967520Y-69630240D01*
X111120594Y-69599792D01*
X111250363Y-69513083D01*
X111354875Y-69408571D01*
X111507984Y-69408704D01*
X111728589Y-69317552D01*
X111897519Y-69148917D01*
X111989056Y-68928471D01*
X111989264Y-68689776D01*
X111898112Y-68469171D01*
X111729477Y-68300241D01*
X111514908Y-68211144D01*
X117550536Y-68211144D01*
X117641688Y-68431749D01*
X117810323Y-68600679D01*
X118030769Y-68692216D01*
X118269464Y-68692424D01*
X118490069Y-68601272D01*
X118658999Y-68432637D01*
X118750536Y-68212191D01*
X118750670Y-68057976D01*
X120673446Y-66135200D01*
X124146994Y-66135200D01*
X124525509Y-66513715D01*
X124525376Y-66666824D01*
X124616528Y-66887429D01*
X124785163Y-67056359D01*
X125005609Y-67147896D01*
X125244304Y-67148104D01*
X125464909Y-67056952D01*
X125633839Y-66888317D01*
X125725376Y-66667871D01*
X125725584Y-66429176D01*
X125634432Y-66208571D01*
X125465797Y-66039641D01*
X125245351Y-65948104D01*
X125091136Y-65947970D01*
X124595523Y-65452357D01*
X124465754Y-65365648D01*
X124312680Y-65335200D01*
X120507760Y-65335200D01*
X120354686Y-65365648D01*
X120224917Y-65452357D01*
X118184925Y-67492349D01*
X118031816Y-67492216D01*
X117811211Y-67583368D01*
X117642281Y-67752003D01*
X117550744Y-67972449D01*
X117550536Y-68211144D01*
X111514908Y-68211144D01*
X111509031Y-68208704D01*
X111270336Y-68208496D01*
X111049731Y-68299648D01*
X110880801Y-68468283D01*
X110789264Y-68688729D01*
X110789141Y-68830240D01*
X109897087Y-68830240D01*
X109788917Y-68721881D01*
X109568471Y-68630344D01*
X109329776Y-68630136D01*
X109109171Y-68721288D01*
X108940241Y-68889923D01*
X108848704Y-69110369D01*
X108848496Y-69349064D01*
X108299230Y-69349064D01*
X107799046Y-68848880D01*
X107852530Y-68580000D01*
X107764991Y-68139914D01*
X107515703Y-67766827D01*
X107142616Y-67517539D01*
X106702530Y-67430000D01*
X106657470Y-67430000D01*
X106217384Y-67517539D01*
X105844297Y-67766827D01*
X105595009Y-68139914D01*
X105507470Y-68580000D01*
X105595009Y-69020086D01*
X105844297Y-69393173D01*
X105936948Y-69455080D01*
X105392806Y-69455080D01*
X105007360Y-69069634D01*
X105007360Y-66040000D01*
X105507470Y-66040000D01*
X105595009Y-66480086D01*
X105844297Y-66853173D01*
X106217384Y-67102461D01*
X106657470Y-67190000D01*
X106702530Y-67190000D01*
X107142616Y-67102461D01*
X107515703Y-66853173D01*
X107764991Y-66480086D01*
X107772965Y-66440000D01*
X110834797Y-66440000D01*
X110834776Y-66463624D01*
X110925928Y-66684229D01*
X111094563Y-66853159D01*
X111315009Y-66944696D01*
X111553704Y-66944904D01*
X111774309Y-66853752D01*
X111943239Y-66685117D01*
X112034776Y-66464671D01*
X112034984Y-66225976D01*
X111943832Y-66005371D01*
X111775197Y-65836441D01*
X111554751Y-65744904D01*
X111394376Y-65744764D01*
X111283154Y-65670448D01*
X111130080Y-65640000D01*
X107772965Y-65640000D01*
X107764991Y-65599914D01*
X107515703Y-65226827D01*
X107142616Y-64977539D01*
X106702530Y-64890000D01*
X106657470Y-64890000D01*
X106217384Y-64977539D01*
X105844297Y-65226827D01*
X105595009Y-65599914D01*
X105507470Y-66040000D01*
X105007360Y-66040000D01*
X105007360Y-64019607D01*
X105115719Y-63911437D01*
X105207256Y-63690991D01*
X105207464Y-63452296D01*
X105116312Y-63231691D01*
X104947677Y-63062761D01*
X104751814Y-62981432D01*
X105077846Y-62655400D01*
X105891331Y-62655400D01*
X105844297Y-62686827D01*
X105595009Y-63059914D01*
X105507470Y-63500000D01*
X105595009Y-63940086D01*
X105844297Y-64313173D01*
X106217384Y-64562461D01*
X106657470Y-64650000D01*
X106702530Y-64650000D01*
X107142616Y-64562461D01*
X107515703Y-64313173D01*
X107764991Y-63940086D01*
X107852530Y-63500000D01*
X107764991Y-63059914D01*
X107515703Y-62686827D01*
X107468669Y-62655400D01*
X107944920Y-62655400D01*
X108097994Y-62624952D01*
X108227763Y-62538243D01*
X108791643Y-61974363D01*
X108878352Y-61844594D01*
X108908801Y-61691520D01*
X108908800Y-61691515D01*
X108908800Y-60248805D01*
X108908801Y-60248800D01*
X108878352Y-60095726D01*
X108791643Y-59965957D01*
X107733260Y-58907574D01*
X107764991Y-58860086D01*
X107852530Y-58420000D01*
X107764991Y-57979914D01*
X107515703Y-57606827D01*
X107142616Y-57357539D01*
X106702530Y-57270000D01*
X106657470Y-57270000D01*
X106217384Y-57357539D01*
X105844297Y-57606827D01*
X105595009Y-57979914D01*
X105507470Y-58420000D01*
X105595009Y-58860086D01*
X105844297Y-59233173D01*
X106217384Y-59482461D01*
X106657470Y-59570000D01*
X106702530Y-59570000D01*
X107142616Y-59482461D01*
X107163093Y-59468779D01*
X108108800Y-60414486D01*
X108108800Y-61525834D01*
X107779234Y-61855400D01*
X107392641Y-61855400D01*
X107515703Y-61773173D01*
X107764991Y-61400086D01*
X107852530Y-60960000D01*
X107764991Y-60519914D01*
X107515703Y-60146827D01*
X107142616Y-59897539D01*
X106702530Y-59810000D01*
X106657470Y-59810000D01*
X106217384Y-59897539D01*
X105844297Y-60146827D01*
X105595009Y-60519914D01*
X105587035Y-60560000D01*
X104236520Y-60560000D01*
X104083447Y-60590448D01*
X103996115Y-60648801D01*
X103953677Y-60677157D01*
X103054517Y-61576317D01*
X102967808Y-61706086D01*
X102940258Y-61844593D01*
X102937360Y-61859160D01*
X101975000Y-61859160D01*
X101975000Y-55030000D01*
X105524123Y-55030000D01*
X105524123Y-56730000D01*
X105545042Y-56841173D01*
X105610745Y-56943279D01*
X105710997Y-57011778D01*
X105830000Y-57035877D01*
X107530000Y-57035877D01*
X107641173Y-57014958D01*
X107743279Y-56949255D01*
X107811778Y-56849003D01*
X107835877Y-56730000D01*
X107835877Y-56627104D01*
X119465606Y-56627104D01*
X119546673Y-56784463D01*
X119938112Y-56943437D01*
X120360591Y-56940512D01*
X120737327Y-56784463D01*
X120818394Y-56627104D01*
X120142000Y-55950711D01*
X119465606Y-56627104D01*
X107835877Y-56627104D01*
X107835877Y-55676112D01*
X119078563Y-55676112D01*
X119081488Y-56098591D01*
X119237537Y-56475327D01*
X119394896Y-56556394D01*
X120071289Y-55880000D01*
X120212711Y-55880000D01*
X120889104Y-56556394D01*
X121046463Y-56475327D01*
X121205437Y-56083888D01*
X121202512Y-55661409D01*
X121046463Y-55284673D01*
X120889104Y-55203606D01*
X120212711Y-55880000D01*
X120071289Y-55880000D01*
X119394896Y-55203606D01*
X119237537Y-55284673D01*
X119078563Y-55676112D01*
X107835877Y-55676112D01*
X107835877Y-55132896D01*
X119465606Y-55132896D01*
X120142000Y-55809289D01*
X120818394Y-55132896D01*
X120737327Y-54975537D01*
X120345888Y-54816563D01*
X119923409Y-54819488D01*
X119546673Y-54975537D01*
X119465606Y-55132896D01*
X107835877Y-55132896D01*
X107835877Y-55030000D01*
X107814958Y-54918827D01*
X107749255Y-54816721D01*
X107649003Y-54748222D01*
X107530000Y-54724123D01*
X105830000Y-54724123D01*
X105718827Y-54745042D01*
X105616721Y-54810745D01*
X105548222Y-54910997D01*
X105524123Y-55030000D01*
X101975000Y-55030000D01*
X101975000Y-53376932D01*
X102146588Y-52514303D01*
X102614309Y-51814309D01*
X103314303Y-51346588D01*
X104176932Y-51175000D01*
X143473068Y-51175000D01*
X144335697Y-51346588D01*
M02*
