G04 #@! TF.FileFunction,Legend,Top*
%FSLAX46Y46*%
G04 Gerber Fmt 4.6, Leading zero omitted, Abs format (unit mm)*
G04 Created by KiCad (PCBNEW 4.0.7) date 08/30/18 10:37:52*
%MOMM*%
%LPD*%
G01*
G04 APERTURE LIST*
%ADD10C,0.100000*%
%ADD11C,0.120000*%
%ADD12C,0.150000*%
%ADD13C,0.010000*%
G04 APERTURE END LIST*
D10*
X112682189Y-101728819D02*
X112586951Y-101681200D01*
X112491713Y-101585962D01*
X112348856Y-101443105D01*
X112253617Y-101395486D01*
X112158379Y-101395486D01*
X112205998Y-101633581D02*
X112110760Y-101585962D01*
X112015522Y-101490724D01*
X111967903Y-101300248D01*
X111967903Y-100966914D01*
X112015522Y-100776438D01*
X112110760Y-100681200D01*
X112205998Y-100633581D01*
X112396475Y-100633581D01*
X112491713Y-100681200D01*
X112586951Y-100776438D01*
X112634570Y-100966914D01*
X112634570Y-101300248D01*
X112586951Y-101490724D01*
X112491713Y-101585962D01*
X112396475Y-101633581D01*
X112205998Y-101633581D01*
X113586951Y-101633581D02*
X113015522Y-101633581D01*
X113301236Y-101633581D02*
X113301236Y-100633581D01*
X113205998Y-100776438D01*
X113110760Y-100871676D01*
X113015522Y-100919295D01*
X114205998Y-100633581D02*
X114301237Y-100633581D01*
X114396475Y-100681200D01*
X114444094Y-100728819D01*
X114491713Y-100824057D01*
X114539332Y-101014533D01*
X114539332Y-101252629D01*
X114491713Y-101443105D01*
X114444094Y-101538343D01*
X114396475Y-101585962D01*
X114301237Y-101633581D01*
X114205998Y-101633581D01*
X114110760Y-101585962D01*
X114063141Y-101538343D01*
X114015522Y-101443105D01*
X113967903Y-101252629D01*
X113967903Y-101014533D01*
X114015522Y-100824057D01*
X114063141Y-100728819D01*
X114110760Y-100681200D01*
X114205998Y-100633581D01*
X115729808Y-101633581D02*
X115729808Y-100633581D01*
X116301237Y-101633581D02*
X115872665Y-101062152D01*
X116301237Y-100633581D02*
X115729808Y-101205010D01*
X117110761Y-101585962D02*
X117015523Y-101633581D01*
X116825046Y-101633581D01*
X116729808Y-101585962D01*
X116682189Y-101490724D01*
X116682189Y-101109771D01*
X116729808Y-101014533D01*
X116825046Y-100966914D01*
X117015523Y-100966914D01*
X117110761Y-101014533D01*
X117158380Y-101109771D01*
X117158380Y-101205010D01*
X116682189Y-101300248D01*
X117491713Y-100966914D02*
X117729808Y-101633581D01*
X117967904Y-100966914D02*
X117729808Y-101633581D01*
X117634570Y-101871676D01*
X117586951Y-101919295D01*
X117491713Y-101966914D01*
X118348856Y-101633581D02*
X118348856Y-100633581D01*
X118348856Y-101014533D02*
X118444094Y-100966914D01*
X118634571Y-100966914D01*
X118729809Y-101014533D01*
X118777428Y-101062152D01*
X118825047Y-101157390D01*
X118825047Y-101443105D01*
X118777428Y-101538343D01*
X118729809Y-101585962D01*
X118634571Y-101633581D01*
X118444094Y-101633581D01*
X118348856Y-101585962D01*
X119396475Y-101633581D02*
X119301237Y-101585962D01*
X119253618Y-101538343D01*
X119205999Y-101443105D01*
X119205999Y-101157390D01*
X119253618Y-101062152D01*
X119301237Y-101014533D01*
X119396475Y-100966914D01*
X119539333Y-100966914D01*
X119634571Y-101014533D01*
X119682190Y-101062152D01*
X119729809Y-101157390D01*
X119729809Y-101443105D01*
X119682190Y-101538343D01*
X119634571Y-101585962D01*
X119539333Y-101633581D01*
X119396475Y-101633581D01*
X120586952Y-101633581D02*
X120586952Y-101109771D01*
X120539333Y-101014533D01*
X120444095Y-100966914D01*
X120253618Y-100966914D01*
X120158380Y-101014533D01*
X120586952Y-101585962D02*
X120491714Y-101633581D01*
X120253618Y-101633581D01*
X120158380Y-101585962D01*
X120110761Y-101490724D01*
X120110761Y-101395486D01*
X120158380Y-101300248D01*
X120253618Y-101252629D01*
X120491714Y-101252629D01*
X120586952Y-101205010D01*
X121063142Y-101633581D02*
X121063142Y-100966914D01*
X121063142Y-101157390D02*
X121110761Y-101062152D01*
X121158380Y-101014533D01*
X121253618Y-100966914D01*
X121348857Y-100966914D01*
X122110762Y-101633581D02*
X122110762Y-100633581D01*
X122110762Y-101585962D02*
X122015524Y-101633581D01*
X121825047Y-101633581D01*
X121729809Y-101585962D01*
X121682190Y-101538343D01*
X121634571Y-101443105D01*
X121634571Y-101157390D01*
X121682190Y-101062152D01*
X121729809Y-101014533D01*
X121825047Y-100966914D01*
X122015524Y-100966914D01*
X122110762Y-101014533D01*
X123348857Y-101633581D02*
X123348857Y-100633581D01*
X123729810Y-100633581D01*
X123825048Y-100681200D01*
X123872667Y-100728819D01*
X123920286Y-100824057D01*
X123920286Y-100966914D01*
X123872667Y-101062152D01*
X123825048Y-101109771D01*
X123729810Y-101157390D01*
X123348857Y-101157390D01*
X124348857Y-101633581D02*
X124348857Y-100966914D01*
X124348857Y-101157390D02*
X124396476Y-101062152D01*
X124444095Y-101014533D01*
X124539333Y-100966914D01*
X124634572Y-100966914D01*
X125110762Y-101633581D02*
X125015524Y-101585962D01*
X124967905Y-101538343D01*
X124920286Y-101443105D01*
X124920286Y-101157390D01*
X124967905Y-101062152D01*
X125015524Y-101014533D01*
X125110762Y-100966914D01*
X125253620Y-100966914D01*
X125348858Y-101014533D01*
X125396477Y-101062152D01*
X125444096Y-101157390D01*
X125444096Y-101443105D01*
X125396477Y-101538343D01*
X125348858Y-101585962D01*
X125253620Y-101633581D01*
X125110762Y-101633581D01*
X125729810Y-100966914D02*
X126110762Y-100966914D01*
X125872667Y-100633581D02*
X125872667Y-101490724D01*
X125920286Y-101585962D01*
X126015524Y-101633581D01*
X126110762Y-101633581D01*
X126586953Y-101633581D02*
X126491715Y-101585962D01*
X126444096Y-101538343D01*
X126396477Y-101443105D01*
X126396477Y-101157390D01*
X126444096Y-101062152D01*
X126491715Y-101014533D01*
X126586953Y-100966914D01*
X126729811Y-100966914D01*
X126825049Y-101014533D01*
X126872668Y-101062152D01*
X126920287Y-101157390D01*
X126920287Y-101443105D01*
X126872668Y-101538343D01*
X126825049Y-101585962D01*
X126729811Y-101633581D01*
X126586953Y-101633581D01*
X127206001Y-100966914D02*
X127586953Y-100966914D01*
X127348858Y-100633581D02*
X127348858Y-101490724D01*
X127396477Y-101585962D01*
X127491715Y-101633581D01*
X127586953Y-101633581D01*
X127825049Y-100966914D02*
X128063144Y-101633581D01*
X128301240Y-100966914D02*
X128063144Y-101633581D01*
X127967906Y-101871676D01*
X127920287Y-101919295D01*
X127825049Y-101966914D01*
X128682192Y-100966914D02*
X128682192Y-101966914D01*
X128682192Y-101014533D02*
X128777430Y-100966914D01*
X128967907Y-100966914D01*
X129063145Y-101014533D01*
X129110764Y-101062152D01*
X129158383Y-101157390D01*
X129158383Y-101443105D01*
X129110764Y-101538343D01*
X129063145Y-101585962D01*
X128967907Y-101633581D01*
X128777430Y-101633581D01*
X128682192Y-101585962D01*
X129586954Y-101633581D02*
X129586954Y-100966914D01*
X129586954Y-100633581D02*
X129539335Y-100681200D01*
X129586954Y-100728819D01*
X129634573Y-100681200D01*
X129586954Y-100633581D01*
X129586954Y-100728819D01*
X130063144Y-100966914D02*
X130063144Y-101633581D01*
X130063144Y-101062152D02*
X130110763Y-101014533D01*
X130206001Y-100966914D01*
X130348859Y-100966914D01*
X130444097Y-101014533D01*
X130491716Y-101109771D01*
X130491716Y-101633581D01*
X131396478Y-100966914D02*
X131396478Y-101776438D01*
X131348859Y-101871676D01*
X131301240Y-101919295D01*
X131206001Y-101966914D01*
X131063144Y-101966914D01*
X130967906Y-101919295D01*
X131396478Y-101585962D02*
X131301240Y-101633581D01*
X131110763Y-101633581D01*
X131015525Y-101585962D01*
X130967906Y-101538343D01*
X130920287Y-101443105D01*
X130920287Y-101157390D01*
X130967906Y-101062152D01*
X131015525Y-101014533D01*
X131110763Y-100966914D01*
X131301240Y-100966914D01*
X131396478Y-101014533D01*
X132634573Y-101633581D02*
X132634573Y-100633581D01*
X132634573Y-101014533D02*
X132729811Y-100966914D01*
X132920288Y-100966914D01*
X133015526Y-101014533D01*
X133063145Y-101062152D01*
X133110764Y-101157390D01*
X133110764Y-101443105D01*
X133063145Y-101538343D01*
X133015526Y-101585962D01*
X132920288Y-101633581D01*
X132729811Y-101633581D01*
X132634573Y-101585962D01*
X133682192Y-101633581D02*
X133586954Y-101585962D01*
X133539335Y-101538343D01*
X133491716Y-101443105D01*
X133491716Y-101157390D01*
X133539335Y-101062152D01*
X133586954Y-101014533D01*
X133682192Y-100966914D01*
X133825050Y-100966914D01*
X133920288Y-101014533D01*
X133967907Y-101062152D01*
X134015526Y-101157390D01*
X134015526Y-101443105D01*
X133967907Y-101538343D01*
X133920288Y-101585962D01*
X133825050Y-101633581D01*
X133682192Y-101633581D01*
X134872669Y-101633581D02*
X134872669Y-101109771D01*
X134825050Y-101014533D01*
X134729812Y-100966914D01*
X134539335Y-100966914D01*
X134444097Y-101014533D01*
X134872669Y-101585962D02*
X134777431Y-101633581D01*
X134539335Y-101633581D01*
X134444097Y-101585962D01*
X134396478Y-101490724D01*
X134396478Y-101395486D01*
X134444097Y-101300248D01*
X134539335Y-101252629D01*
X134777431Y-101252629D01*
X134872669Y-101205010D01*
X135348859Y-101633581D02*
X135348859Y-100966914D01*
X135348859Y-101157390D02*
X135396478Y-101062152D01*
X135444097Y-101014533D01*
X135539335Y-100966914D01*
X135634574Y-100966914D01*
X136396479Y-101633581D02*
X136396479Y-100633581D01*
X136396479Y-101585962D02*
X136301241Y-101633581D01*
X136110764Y-101633581D01*
X136015526Y-101585962D01*
X135967907Y-101538343D01*
X135920288Y-101443105D01*
X135920288Y-101157390D01*
X135967907Y-101062152D01*
X136015526Y-101014533D01*
X136110764Y-100966914D01*
X136301241Y-100966914D01*
X136396479Y-101014533D01*
X114348857Y-102328819D02*
X114396476Y-102281200D01*
X114491714Y-102233581D01*
X114729810Y-102233581D01*
X114825048Y-102281200D01*
X114872667Y-102328819D01*
X114920286Y-102424057D01*
X114920286Y-102519295D01*
X114872667Y-102662152D01*
X114301238Y-103233581D01*
X114920286Y-103233581D01*
X115539333Y-102233581D02*
X115634572Y-102233581D01*
X115729810Y-102281200D01*
X115777429Y-102328819D01*
X115825048Y-102424057D01*
X115872667Y-102614533D01*
X115872667Y-102852629D01*
X115825048Y-103043105D01*
X115777429Y-103138343D01*
X115729810Y-103185962D01*
X115634572Y-103233581D01*
X115539333Y-103233581D01*
X115444095Y-103185962D01*
X115396476Y-103138343D01*
X115348857Y-103043105D01*
X115301238Y-102852629D01*
X115301238Y-102614533D01*
X115348857Y-102424057D01*
X115396476Y-102328819D01*
X115444095Y-102281200D01*
X115539333Y-102233581D01*
X116825048Y-103233581D02*
X116253619Y-103233581D01*
X116539333Y-103233581D02*
X116539333Y-102233581D01*
X116444095Y-102376438D01*
X116348857Y-102471676D01*
X116253619Y-102519295D01*
X117396476Y-102662152D02*
X117301238Y-102614533D01*
X117253619Y-102566914D01*
X117206000Y-102471676D01*
X117206000Y-102424057D01*
X117253619Y-102328819D01*
X117301238Y-102281200D01*
X117396476Y-102233581D01*
X117586953Y-102233581D01*
X117682191Y-102281200D01*
X117729810Y-102328819D01*
X117777429Y-102424057D01*
X117777429Y-102471676D01*
X117729810Y-102566914D01*
X117682191Y-102614533D01*
X117586953Y-102662152D01*
X117396476Y-102662152D01*
X117301238Y-102709771D01*
X117253619Y-102757390D01*
X117206000Y-102852629D01*
X117206000Y-103043105D01*
X117253619Y-103138343D01*
X117301238Y-103185962D01*
X117396476Y-103233581D01*
X117586953Y-103233581D01*
X117682191Y-103185962D01*
X117729810Y-103138343D01*
X117777429Y-103043105D01*
X117777429Y-102852629D01*
X117729810Y-102757390D01*
X117682191Y-102709771D01*
X117586953Y-102662152D01*
X118967905Y-102852629D02*
X119729810Y-102852629D01*
X120967905Y-103233581D02*
X120967905Y-102233581D01*
X121206000Y-102233581D01*
X121348858Y-102281200D01*
X121444096Y-102376438D01*
X121491715Y-102471676D01*
X121539334Y-102662152D01*
X121539334Y-102805010D01*
X121491715Y-102995486D01*
X121444096Y-103090724D01*
X121348858Y-103185962D01*
X121206000Y-103233581D01*
X120967905Y-103233581D01*
X121967905Y-103233581D02*
X121967905Y-102566914D01*
X121967905Y-102757390D02*
X122015524Y-102662152D01*
X122063143Y-102614533D01*
X122158381Y-102566914D01*
X122253620Y-102566914D01*
X123920287Y-103138343D02*
X123872668Y-103185962D01*
X123729811Y-103233581D01*
X123634573Y-103233581D01*
X123491715Y-103185962D01*
X123396477Y-103090724D01*
X123348858Y-102995486D01*
X123301239Y-102805010D01*
X123301239Y-102662152D01*
X123348858Y-102471676D01*
X123396477Y-102376438D01*
X123491715Y-102281200D01*
X123634573Y-102233581D01*
X123729811Y-102233581D01*
X123872668Y-102281200D01*
X123920287Y-102328819D01*
X124301239Y-102947867D02*
X124777430Y-102947867D01*
X124206001Y-103233581D02*
X124539334Y-102233581D01*
X124872668Y-103233581D01*
X125206001Y-103233581D02*
X125206001Y-102233581D01*
X125444096Y-102233581D01*
X125586954Y-102281200D01*
X125682192Y-102376438D01*
X125729811Y-102471676D01*
X125777430Y-102662152D01*
X125777430Y-102805010D01*
X125729811Y-102995486D01*
X125682192Y-103090724D01*
X125586954Y-103185962D01*
X125444096Y-103233581D01*
X125206001Y-103233581D01*
X126206001Y-103233581D02*
X126206001Y-102233581D01*
X127253620Y-103138343D02*
X127206001Y-103185962D01*
X127063144Y-103233581D01*
X126967906Y-103233581D01*
X126825048Y-103185962D01*
X126729810Y-103090724D01*
X126682191Y-102995486D01*
X126634572Y-102805010D01*
X126634572Y-102662152D01*
X126682191Y-102471676D01*
X126729810Y-102376438D01*
X126825048Y-102281200D01*
X126967906Y-102233581D01*
X127063144Y-102233581D01*
X127206001Y-102281200D01*
X127253620Y-102328819D01*
X128444096Y-103233581D02*
X128444096Y-102233581D01*
X128825049Y-102233581D01*
X128920287Y-102281200D01*
X128967906Y-102328819D01*
X129015525Y-102424057D01*
X129015525Y-102566914D01*
X128967906Y-102662152D01*
X128920287Y-102709771D01*
X128825049Y-102757390D01*
X128444096Y-102757390D01*
X129444096Y-103233581D02*
X129444096Y-102233581D01*
X129872668Y-103233581D02*
X129872668Y-102709771D01*
X129825049Y-102614533D01*
X129729811Y-102566914D01*
X129586953Y-102566914D01*
X129491715Y-102614533D01*
X129444096Y-102662152D01*
X130348858Y-103233581D02*
X130348858Y-102566914D01*
X130348858Y-102233581D02*
X130301239Y-102281200D01*
X130348858Y-102328819D01*
X130396477Y-102281200D01*
X130348858Y-102233581D01*
X130348858Y-102328819D01*
X130967905Y-103233581D02*
X130872667Y-103185962D01*
X130825048Y-103090724D01*
X130825048Y-102233581D01*
X131348858Y-103233581D02*
X131348858Y-102566914D01*
X131348858Y-102233581D02*
X131301239Y-102281200D01*
X131348858Y-102328819D01*
X131396477Y-102281200D01*
X131348858Y-102233581D01*
X131348858Y-102328819D01*
X131825048Y-102566914D02*
X131825048Y-103566914D01*
X131825048Y-102614533D02*
X131920286Y-102566914D01*
X132110763Y-102566914D01*
X132206001Y-102614533D01*
X132253620Y-102662152D01*
X132301239Y-102757390D01*
X132301239Y-103043105D01*
X132253620Y-103138343D01*
X132206001Y-103185962D01*
X132110763Y-103233581D01*
X131920286Y-103233581D01*
X131825048Y-103185962D01*
X132729810Y-102566914D02*
X132729810Y-103566914D01*
X132729810Y-102614533D02*
X132825048Y-102566914D01*
X133015525Y-102566914D01*
X133110763Y-102614533D01*
X133158382Y-102662152D01*
X133206001Y-102757390D01*
X133206001Y-103043105D01*
X133158382Y-103138343D01*
X133110763Y-103185962D01*
X133015525Y-103233581D01*
X132825048Y-103233581D01*
X132729810Y-103185962D01*
X134015525Y-103185962D02*
X133920287Y-103233581D01*
X133729810Y-103233581D01*
X133634572Y-103185962D01*
X133586953Y-103090724D01*
X133586953Y-102709771D01*
X133634572Y-102614533D01*
X133729810Y-102566914D01*
X133920287Y-102566914D01*
X134015525Y-102614533D01*
X134063144Y-102709771D01*
X134063144Y-102805010D01*
X133586953Y-102900248D01*
X117086953Y-104166914D02*
X117277429Y-104833581D01*
X117467906Y-104357390D01*
X117658382Y-104833581D01*
X117848858Y-104166914D01*
X118134572Y-104166914D02*
X118325048Y-104833581D01*
X118515525Y-104357390D01*
X118706001Y-104833581D01*
X118896477Y-104166914D01*
X119182191Y-104166914D02*
X119372667Y-104833581D01*
X119563144Y-104357390D01*
X119753620Y-104833581D01*
X119944096Y-104166914D01*
X120325048Y-104738343D02*
X120372667Y-104785962D01*
X120325048Y-104833581D01*
X120277429Y-104785962D01*
X120325048Y-104738343D01*
X120325048Y-104833581D01*
X120753619Y-104785962D02*
X120848857Y-104833581D01*
X121039333Y-104833581D01*
X121134572Y-104785962D01*
X121182191Y-104690724D01*
X121182191Y-104643105D01*
X121134572Y-104547867D01*
X121039333Y-104500248D01*
X120896476Y-104500248D01*
X120801238Y-104452629D01*
X120753619Y-104357390D01*
X120753619Y-104309771D01*
X120801238Y-104214533D01*
X120896476Y-104166914D01*
X121039333Y-104166914D01*
X121134572Y-104214533D01*
X121610762Y-104166914D02*
X121610762Y-104833581D01*
X121610762Y-104262152D02*
X121658381Y-104214533D01*
X121753619Y-104166914D01*
X121896477Y-104166914D01*
X121991715Y-104214533D01*
X122039334Y-104309771D01*
X122039334Y-104833581D01*
X122944096Y-104833581D02*
X122944096Y-104309771D01*
X122896477Y-104214533D01*
X122801239Y-104166914D01*
X122610762Y-104166914D01*
X122515524Y-104214533D01*
X122944096Y-104785962D02*
X122848858Y-104833581D01*
X122610762Y-104833581D01*
X122515524Y-104785962D01*
X122467905Y-104690724D01*
X122467905Y-104595486D01*
X122515524Y-104500248D01*
X122610762Y-104452629D01*
X122848858Y-104452629D01*
X122944096Y-104405010D01*
X123420286Y-104166914D02*
X123420286Y-105166914D01*
X123420286Y-104214533D02*
X123515524Y-104166914D01*
X123706001Y-104166914D01*
X123801239Y-104214533D01*
X123848858Y-104262152D01*
X123896477Y-104357390D01*
X123896477Y-104643105D01*
X123848858Y-104738343D01*
X123801239Y-104785962D01*
X123706001Y-104833581D01*
X123515524Y-104833581D01*
X123420286Y-104785962D01*
X124467905Y-104833581D02*
X124372667Y-104785962D01*
X124325048Y-104738343D01*
X124277429Y-104643105D01*
X124277429Y-104357390D01*
X124325048Y-104262152D01*
X124372667Y-104214533D01*
X124467905Y-104166914D01*
X124610763Y-104166914D01*
X124706001Y-104214533D01*
X124753620Y-104262152D01*
X124801239Y-104357390D01*
X124801239Y-104643105D01*
X124753620Y-104738343D01*
X124706001Y-104785962D01*
X124610763Y-104833581D01*
X124467905Y-104833581D01*
X125229810Y-104166914D02*
X125229810Y-104833581D01*
X125229810Y-104262152D02*
X125277429Y-104214533D01*
X125372667Y-104166914D01*
X125515525Y-104166914D01*
X125610763Y-104214533D01*
X125658382Y-104309771D01*
X125658382Y-104833581D01*
X126563144Y-104833581D02*
X126563144Y-104309771D01*
X126515525Y-104214533D01*
X126420287Y-104166914D01*
X126229810Y-104166914D01*
X126134572Y-104214533D01*
X126563144Y-104785962D02*
X126467906Y-104833581D01*
X126229810Y-104833581D01*
X126134572Y-104785962D01*
X126086953Y-104690724D01*
X126086953Y-104595486D01*
X126134572Y-104500248D01*
X126229810Y-104452629D01*
X126467906Y-104452629D01*
X126563144Y-104405010D01*
X127039334Y-104833581D02*
X127039334Y-104166914D01*
X127039334Y-103833581D02*
X126991715Y-103881200D01*
X127039334Y-103928819D01*
X127086953Y-103881200D01*
X127039334Y-103833581D01*
X127039334Y-103928819D01*
X127515524Y-104833581D02*
X127515524Y-104166914D01*
X127515524Y-104357390D02*
X127563143Y-104262152D01*
X127610762Y-104214533D01*
X127706000Y-104166914D01*
X127801239Y-104166914D01*
X128134572Y-104738343D02*
X128182191Y-104785962D01*
X128134572Y-104833581D01*
X128086953Y-104785962D01*
X128134572Y-104738343D01*
X128134572Y-104833581D01*
X129039334Y-104785962D02*
X128944096Y-104833581D01*
X128753619Y-104833581D01*
X128658381Y-104785962D01*
X128610762Y-104738343D01*
X128563143Y-104643105D01*
X128563143Y-104357390D01*
X128610762Y-104262152D01*
X128658381Y-104214533D01*
X128753619Y-104166914D01*
X128944096Y-104166914D01*
X129039334Y-104214533D01*
X129610762Y-104833581D02*
X129515524Y-104785962D01*
X129467905Y-104738343D01*
X129420286Y-104643105D01*
X129420286Y-104357390D01*
X129467905Y-104262152D01*
X129515524Y-104214533D01*
X129610762Y-104166914D01*
X129753620Y-104166914D01*
X129848858Y-104214533D01*
X129896477Y-104262152D01*
X129944096Y-104357390D01*
X129944096Y-104643105D01*
X129896477Y-104738343D01*
X129848858Y-104785962D01*
X129753620Y-104833581D01*
X129610762Y-104833581D01*
X130372667Y-104833581D02*
X130372667Y-104166914D01*
X130372667Y-104262152D02*
X130420286Y-104214533D01*
X130515524Y-104166914D01*
X130658382Y-104166914D01*
X130753620Y-104214533D01*
X130801239Y-104309771D01*
X130801239Y-104833581D01*
X130801239Y-104309771D02*
X130848858Y-104214533D01*
X130944096Y-104166914D01*
X131086953Y-104166914D01*
X131182191Y-104214533D01*
X131229810Y-104309771D01*
X131229810Y-104833581D01*
X114420285Y-105433581D02*
X114753618Y-106433581D01*
X115086952Y-105433581D01*
X115801238Y-106385962D02*
X115706000Y-106433581D01*
X115515523Y-106433581D01*
X115420285Y-106385962D01*
X115372666Y-106290724D01*
X115372666Y-105909771D01*
X115420285Y-105814533D01*
X115515523Y-105766914D01*
X115706000Y-105766914D01*
X115801238Y-105814533D01*
X115848857Y-105909771D01*
X115848857Y-106005010D01*
X115372666Y-106100248D01*
X116277428Y-106433581D02*
X116277428Y-105766914D01*
X116277428Y-105957390D02*
X116325047Y-105862152D01*
X116372666Y-105814533D01*
X116467904Y-105766914D01*
X116563143Y-105766914D01*
X116848857Y-106385962D02*
X116944095Y-106433581D01*
X117134571Y-106433581D01*
X117229810Y-106385962D01*
X117277429Y-106290724D01*
X117277429Y-106243105D01*
X117229810Y-106147867D01*
X117134571Y-106100248D01*
X116991714Y-106100248D01*
X116896476Y-106052629D01*
X116848857Y-105957390D01*
X116848857Y-105909771D01*
X116896476Y-105814533D01*
X116991714Y-105766914D01*
X117134571Y-105766914D01*
X117229810Y-105814533D01*
X117706000Y-106433581D02*
X117706000Y-105766914D01*
X117706000Y-105433581D02*
X117658381Y-105481200D01*
X117706000Y-105528819D01*
X117753619Y-105481200D01*
X117706000Y-105433581D01*
X117706000Y-105528819D01*
X118325047Y-106433581D02*
X118229809Y-106385962D01*
X118182190Y-106338343D01*
X118134571Y-106243105D01*
X118134571Y-105957390D01*
X118182190Y-105862152D01*
X118229809Y-105814533D01*
X118325047Y-105766914D01*
X118467905Y-105766914D01*
X118563143Y-105814533D01*
X118610762Y-105862152D01*
X118658381Y-105957390D01*
X118658381Y-106243105D01*
X118610762Y-106338343D01*
X118563143Y-106385962D01*
X118467905Y-106433581D01*
X118325047Y-106433581D01*
X119086952Y-105766914D02*
X119086952Y-106433581D01*
X119086952Y-105862152D02*
X119134571Y-105814533D01*
X119229809Y-105766914D01*
X119372667Y-105766914D01*
X119467905Y-105814533D01*
X119515524Y-105909771D01*
X119515524Y-106433581D01*
X121277429Y-106433581D02*
X120706000Y-106433581D01*
X120991714Y-106433581D02*
X120991714Y-105433581D01*
X120896476Y-105576438D01*
X120801238Y-105671676D01*
X120706000Y-105719295D01*
X121706000Y-106338343D02*
X121753619Y-106385962D01*
X121706000Y-106433581D01*
X121658381Y-106385962D01*
X121706000Y-106338343D01*
X121706000Y-106433581D01*
X122134571Y-105528819D02*
X122182190Y-105481200D01*
X122277428Y-105433581D01*
X122515524Y-105433581D01*
X122610762Y-105481200D01*
X122658381Y-105528819D01*
X122706000Y-105624057D01*
X122706000Y-105719295D01*
X122658381Y-105862152D01*
X122086952Y-106433581D01*
X122706000Y-106433581D01*
X124610762Y-105385962D02*
X123753619Y-106671676D01*
X125658381Y-106385962D02*
X125801238Y-106433581D01*
X126039334Y-106433581D01*
X126134572Y-106385962D01*
X126182191Y-106338343D01*
X126229810Y-106243105D01*
X126229810Y-106147867D01*
X126182191Y-106052629D01*
X126134572Y-106005010D01*
X126039334Y-105957390D01*
X125848857Y-105909771D01*
X125753619Y-105862152D01*
X125706000Y-105814533D01*
X125658381Y-105719295D01*
X125658381Y-105624057D01*
X125706000Y-105528819D01*
X125753619Y-105481200D01*
X125848857Y-105433581D01*
X126086953Y-105433581D01*
X126229810Y-105481200D01*
X127039334Y-106385962D02*
X126944096Y-106433581D01*
X126753619Y-106433581D01*
X126658381Y-106385962D01*
X126610762Y-106290724D01*
X126610762Y-105909771D01*
X126658381Y-105814533D01*
X126753619Y-105766914D01*
X126944096Y-105766914D01*
X127039334Y-105814533D01*
X127086953Y-105909771D01*
X127086953Y-106005010D01*
X126610762Y-106100248D01*
X127515524Y-105766914D02*
X127515524Y-106766914D01*
X127515524Y-105814533D02*
X127610762Y-105766914D01*
X127801239Y-105766914D01*
X127896477Y-105814533D01*
X127944096Y-105862152D01*
X127991715Y-105957390D01*
X127991715Y-106243105D01*
X127944096Y-106338343D01*
X127896477Y-106385962D01*
X127801239Y-106433581D01*
X127610762Y-106433581D01*
X127515524Y-106385962D01*
X128277429Y-105766914D02*
X128658381Y-105766914D01*
X128420286Y-105433581D02*
X128420286Y-106290724D01*
X128467905Y-106385962D01*
X128563143Y-106433581D01*
X128658381Y-106433581D01*
X130467906Y-105528819D02*
X130515525Y-105481200D01*
X130610763Y-105433581D01*
X130848859Y-105433581D01*
X130944097Y-105481200D01*
X130991716Y-105528819D01*
X131039335Y-105624057D01*
X131039335Y-105719295D01*
X130991716Y-105862152D01*
X130420287Y-106433581D01*
X131039335Y-106433581D01*
X131658382Y-105433581D02*
X131753621Y-105433581D01*
X131848859Y-105481200D01*
X131896478Y-105528819D01*
X131944097Y-105624057D01*
X131991716Y-105814533D01*
X131991716Y-106052629D01*
X131944097Y-106243105D01*
X131896478Y-106338343D01*
X131848859Y-106385962D01*
X131753621Y-106433581D01*
X131658382Y-106433581D01*
X131563144Y-106385962D01*
X131515525Y-106338343D01*
X131467906Y-106243105D01*
X131420287Y-106052629D01*
X131420287Y-105814533D01*
X131467906Y-105624057D01*
X131515525Y-105528819D01*
X131563144Y-105481200D01*
X131658382Y-105433581D01*
X132944097Y-106433581D02*
X132372668Y-106433581D01*
X132658382Y-106433581D02*
X132658382Y-105433581D01*
X132563144Y-105576438D01*
X132467906Y-105671676D01*
X132372668Y-105719295D01*
X133515525Y-105862152D02*
X133420287Y-105814533D01*
X133372668Y-105766914D01*
X133325049Y-105671676D01*
X133325049Y-105624057D01*
X133372668Y-105528819D01*
X133420287Y-105481200D01*
X133515525Y-105433581D01*
X133706002Y-105433581D01*
X133801240Y-105481200D01*
X133848859Y-105528819D01*
X133896478Y-105624057D01*
X133896478Y-105671676D01*
X133848859Y-105766914D01*
X133801240Y-105814533D01*
X133706002Y-105862152D01*
X133515525Y-105862152D01*
X133420287Y-105909771D01*
X133372668Y-105957390D01*
X133325049Y-106052629D01*
X133325049Y-106243105D01*
X133372668Y-106338343D01*
X133420287Y-106385962D01*
X133515525Y-106433581D01*
X133706002Y-106433581D01*
X133801240Y-106385962D01*
X133848859Y-106338343D01*
X133896478Y-106243105D01*
X133896478Y-106052629D01*
X133848859Y-105957390D01*
X133801240Y-105909771D01*
X133706002Y-105862152D01*
X142548486Y-76554371D02*
X142655629Y-76590086D01*
X142834200Y-76590086D01*
X142905629Y-76554371D01*
X142941343Y-76518657D01*
X142977058Y-76447229D01*
X142977058Y-76375800D01*
X142941343Y-76304371D01*
X142905629Y-76268657D01*
X142834200Y-76232943D01*
X142691343Y-76197229D01*
X142619915Y-76161514D01*
X142584200Y-76125800D01*
X142548486Y-76054371D01*
X142548486Y-75982943D01*
X142584200Y-75911514D01*
X142619915Y-75875800D01*
X142691343Y-75840086D01*
X142869915Y-75840086D01*
X142977058Y-75875800D01*
X143298486Y-76590086D02*
X143298486Y-75840086D01*
X143477058Y-75840086D01*
X143584201Y-75875800D01*
X143655629Y-75947229D01*
X143691344Y-76018657D01*
X143727058Y-76161514D01*
X143727058Y-76268657D01*
X143691344Y-76411514D01*
X143655629Y-76482943D01*
X143584201Y-76554371D01*
X143477058Y-76590086D01*
X143298486Y-76590086D01*
X144012772Y-76375800D02*
X144369915Y-76375800D01*
X143941344Y-76590086D02*
X144191344Y-75840086D01*
X144441344Y-76590086D01*
X142617143Y-73912771D02*
X142724286Y-73948486D01*
X142902857Y-73948486D01*
X142974286Y-73912771D01*
X143010000Y-73877057D01*
X143045715Y-73805629D01*
X143045715Y-73734200D01*
X143010000Y-73662771D01*
X142974286Y-73627057D01*
X142902857Y-73591343D01*
X142760000Y-73555629D01*
X142688572Y-73519914D01*
X142652857Y-73484200D01*
X142617143Y-73412771D01*
X142617143Y-73341343D01*
X142652857Y-73269914D01*
X142688572Y-73234200D01*
X142760000Y-73198486D01*
X142938572Y-73198486D01*
X143045715Y-73234200D01*
X143795715Y-73877057D02*
X143760001Y-73912771D01*
X143652858Y-73948486D01*
X143581429Y-73948486D01*
X143474286Y-73912771D01*
X143402858Y-73841343D01*
X143367143Y-73769914D01*
X143331429Y-73627057D01*
X143331429Y-73519914D01*
X143367143Y-73377057D01*
X143402858Y-73305629D01*
X143474286Y-73234200D01*
X143581429Y-73198486D01*
X143652858Y-73198486D01*
X143760001Y-73234200D01*
X143795715Y-73269914D01*
X144474286Y-73948486D02*
X144117143Y-73948486D01*
X144117143Y-73198486D01*
X142969972Y-71408486D02*
X142719972Y-71051343D01*
X142541400Y-71408486D02*
X142541400Y-70658486D01*
X142827115Y-70658486D01*
X142898543Y-70694200D01*
X142934258Y-70729914D01*
X142969972Y-70801343D01*
X142969972Y-70908486D01*
X142934258Y-70979914D01*
X142898543Y-71015629D01*
X142827115Y-71051343D01*
X142541400Y-71051343D01*
X143434258Y-70658486D02*
X143577115Y-70658486D01*
X143648543Y-70694200D01*
X143719972Y-70765629D01*
X143755686Y-70908486D01*
X143755686Y-71158486D01*
X143719972Y-71301343D01*
X143648543Y-71372771D01*
X143577115Y-71408486D01*
X143434258Y-71408486D01*
X143362829Y-71372771D01*
X143291400Y-71301343D01*
X143255686Y-71158486D01*
X143255686Y-70908486D01*
X143291400Y-70765629D01*
X143362829Y-70694200D01*
X143434258Y-70658486D01*
X144005686Y-70658486D02*
X144184257Y-71408486D01*
X144327114Y-70872771D01*
X144469972Y-71408486D01*
X144648543Y-70658486D01*
X144862829Y-70658486D02*
X145362829Y-70658486D01*
X145041400Y-71408486D01*
X142919172Y-68970086D02*
X142669172Y-68612943D01*
X142490600Y-68970086D02*
X142490600Y-68220086D01*
X142776315Y-68220086D01*
X142847743Y-68255800D01*
X142883458Y-68291514D01*
X142919172Y-68362943D01*
X142919172Y-68470086D01*
X142883458Y-68541514D01*
X142847743Y-68577229D01*
X142776315Y-68612943D01*
X142490600Y-68612943D01*
X143383458Y-68220086D02*
X143526315Y-68220086D01*
X143597743Y-68255800D01*
X143669172Y-68327229D01*
X143704886Y-68470086D01*
X143704886Y-68720086D01*
X143669172Y-68862943D01*
X143597743Y-68934371D01*
X143526315Y-68970086D01*
X143383458Y-68970086D01*
X143312029Y-68934371D01*
X143240600Y-68862943D01*
X143204886Y-68720086D01*
X143204886Y-68470086D01*
X143240600Y-68327229D01*
X143312029Y-68255800D01*
X143383458Y-68220086D01*
X143954886Y-68220086D02*
X144133457Y-68970086D01*
X144276314Y-68434371D01*
X144419172Y-68970086D01*
X144597743Y-68220086D01*
X145204886Y-68220086D02*
X145062029Y-68220086D01*
X144990600Y-68255800D01*
X144954886Y-68291514D01*
X144883457Y-68398657D01*
X144847743Y-68541514D01*
X144847743Y-68827229D01*
X144883457Y-68898657D01*
X144919172Y-68934371D01*
X144990600Y-68970086D01*
X145133457Y-68970086D01*
X145204886Y-68934371D01*
X145240600Y-68898657D01*
X145276315Y-68827229D01*
X145276315Y-68648657D01*
X145240600Y-68577229D01*
X145204886Y-68541514D01*
X145133457Y-68505800D01*
X144990600Y-68505800D01*
X144919172Y-68541514D01*
X144883457Y-68577229D01*
X144847743Y-68648657D01*
X142919172Y-66328486D02*
X142669172Y-65971343D01*
X142490600Y-66328486D02*
X142490600Y-65578486D01*
X142776315Y-65578486D01*
X142847743Y-65614200D01*
X142883458Y-65649914D01*
X142919172Y-65721343D01*
X142919172Y-65828486D01*
X142883458Y-65899914D01*
X142847743Y-65935629D01*
X142776315Y-65971343D01*
X142490600Y-65971343D01*
X143383458Y-65578486D02*
X143526315Y-65578486D01*
X143597743Y-65614200D01*
X143669172Y-65685629D01*
X143704886Y-65828486D01*
X143704886Y-66078486D01*
X143669172Y-66221343D01*
X143597743Y-66292771D01*
X143526315Y-66328486D01*
X143383458Y-66328486D01*
X143312029Y-66292771D01*
X143240600Y-66221343D01*
X143204886Y-66078486D01*
X143204886Y-65828486D01*
X143240600Y-65685629D01*
X143312029Y-65614200D01*
X143383458Y-65578486D01*
X143954886Y-65578486D02*
X144133457Y-66328486D01*
X144276314Y-65792771D01*
X144419172Y-66328486D01*
X144597743Y-65578486D01*
X145240600Y-65578486D02*
X144883457Y-65578486D01*
X144847743Y-65935629D01*
X144883457Y-65899914D01*
X144954886Y-65864200D01*
X145133457Y-65864200D01*
X145204886Y-65899914D01*
X145240600Y-65935629D01*
X145276315Y-66007057D01*
X145276315Y-66185629D01*
X145240600Y-66257057D01*
X145204886Y-66292771D01*
X145133457Y-66328486D01*
X144954886Y-66328486D01*
X144883457Y-66292771D01*
X144847743Y-66257057D01*
X142919172Y-63737686D02*
X142669172Y-63380543D01*
X142490600Y-63737686D02*
X142490600Y-62987686D01*
X142776315Y-62987686D01*
X142847743Y-63023400D01*
X142883458Y-63059114D01*
X142919172Y-63130543D01*
X142919172Y-63237686D01*
X142883458Y-63309114D01*
X142847743Y-63344829D01*
X142776315Y-63380543D01*
X142490600Y-63380543D01*
X143383458Y-62987686D02*
X143526315Y-62987686D01*
X143597743Y-63023400D01*
X143669172Y-63094829D01*
X143704886Y-63237686D01*
X143704886Y-63487686D01*
X143669172Y-63630543D01*
X143597743Y-63701971D01*
X143526315Y-63737686D01*
X143383458Y-63737686D01*
X143312029Y-63701971D01*
X143240600Y-63630543D01*
X143204886Y-63487686D01*
X143204886Y-63237686D01*
X143240600Y-63094829D01*
X143312029Y-63023400D01*
X143383458Y-62987686D01*
X143954886Y-62987686D02*
X144133457Y-63737686D01*
X144276314Y-63201971D01*
X144419172Y-63737686D01*
X144597743Y-62987686D01*
X145204886Y-63237686D02*
X145204886Y-63737686D01*
X145026315Y-62951971D02*
X144847743Y-63487686D01*
X145312029Y-63487686D01*
X142919172Y-61197686D02*
X142669172Y-60840543D01*
X142490600Y-61197686D02*
X142490600Y-60447686D01*
X142776315Y-60447686D01*
X142847743Y-60483400D01*
X142883458Y-60519114D01*
X142919172Y-60590543D01*
X142919172Y-60697686D01*
X142883458Y-60769114D01*
X142847743Y-60804829D01*
X142776315Y-60840543D01*
X142490600Y-60840543D01*
X143383458Y-60447686D02*
X143526315Y-60447686D01*
X143597743Y-60483400D01*
X143669172Y-60554829D01*
X143704886Y-60697686D01*
X143704886Y-60947686D01*
X143669172Y-61090543D01*
X143597743Y-61161971D01*
X143526315Y-61197686D01*
X143383458Y-61197686D01*
X143312029Y-61161971D01*
X143240600Y-61090543D01*
X143204886Y-60947686D01*
X143204886Y-60697686D01*
X143240600Y-60554829D01*
X143312029Y-60483400D01*
X143383458Y-60447686D01*
X143954886Y-60447686D02*
X144133457Y-61197686D01*
X144276314Y-60661971D01*
X144419172Y-61197686D01*
X144597743Y-60447686D01*
X144812029Y-60447686D02*
X145276315Y-60447686D01*
X145026315Y-60733400D01*
X145133457Y-60733400D01*
X145204886Y-60769114D01*
X145240600Y-60804829D01*
X145276315Y-60876257D01*
X145276315Y-61054829D01*
X145240600Y-61126257D01*
X145204886Y-61161971D01*
X145133457Y-61197686D01*
X144919172Y-61197686D01*
X144847743Y-61161971D01*
X144812029Y-61126257D01*
X142919172Y-58860886D02*
X142669172Y-58503743D01*
X142490600Y-58860886D02*
X142490600Y-58110886D01*
X142776315Y-58110886D01*
X142847743Y-58146600D01*
X142883458Y-58182314D01*
X142919172Y-58253743D01*
X142919172Y-58360886D01*
X142883458Y-58432314D01*
X142847743Y-58468029D01*
X142776315Y-58503743D01*
X142490600Y-58503743D01*
X143383458Y-58110886D02*
X143526315Y-58110886D01*
X143597743Y-58146600D01*
X143669172Y-58218029D01*
X143704886Y-58360886D01*
X143704886Y-58610886D01*
X143669172Y-58753743D01*
X143597743Y-58825171D01*
X143526315Y-58860886D01*
X143383458Y-58860886D01*
X143312029Y-58825171D01*
X143240600Y-58753743D01*
X143204886Y-58610886D01*
X143204886Y-58360886D01*
X143240600Y-58218029D01*
X143312029Y-58146600D01*
X143383458Y-58110886D01*
X143954886Y-58110886D02*
X144133457Y-58860886D01*
X144276314Y-58325171D01*
X144419172Y-58860886D01*
X144597743Y-58110886D01*
X144847743Y-58182314D02*
X144883457Y-58146600D01*
X144954886Y-58110886D01*
X145133457Y-58110886D01*
X145204886Y-58146600D01*
X145240600Y-58182314D01*
X145276315Y-58253743D01*
X145276315Y-58325171D01*
X145240600Y-58432314D01*
X144812029Y-58860886D01*
X145276315Y-58860886D01*
X142868372Y-56219286D02*
X142618372Y-55862143D01*
X142439800Y-56219286D02*
X142439800Y-55469286D01*
X142725515Y-55469286D01*
X142796943Y-55505000D01*
X142832658Y-55540714D01*
X142868372Y-55612143D01*
X142868372Y-55719286D01*
X142832658Y-55790714D01*
X142796943Y-55826429D01*
X142725515Y-55862143D01*
X142439800Y-55862143D01*
X143332658Y-55469286D02*
X143475515Y-55469286D01*
X143546943Y-55505000D01*
X143618372Y-55576429D01*
X143654086Y-55719286D01*
X143654086Y-55969286D01*
X143618372Y-56112143D01*
X143546943Y-56183571D01*
X143475515Y-56219286D01*
X143332658Y-56219286D01*
X143261229Y-56183571D01*
X143189800Y-56112143D01*
X143154086Y-55969286D01*
X143154086Y-55719286D01*
X143189800Y-55576429D01*
X143261229Y-55505000D01*
X143332658Y-55469286D01*
X143904086Y-55469286D02*
X144082657Y-56219286D01*
X144225514Y-55683571D01*
X144368372Y-56219286D01*
X144546943Y-55469286D01*
X145225515Y-56219286D02*
X144796943Y-56219286D01*
X145011229Y-56219286D02*
X145011229Y-55469286D01*
X144939800Y-55576429D01*
X144868372Y-55647857D01*
X144796943Y-55683571D01*
X102001458Y-78865000D02*
X102358601Y-78865000D01*
X101930030Y-79079286D02*
X102180030Y-78329286D01*
X102430030Y-79079286D01*
X102680029Y-78579286D02*
X102680029Y-79079286D01*
X102680029Y-78650714D02*
X102715744Y-78615000D01*
X102787172Y-78579286D01*
X102894315Y-78579286D01*
X102965744Y-78615000D01*
X103001458Y-78686429D01*
X103001458Y-79079286D01*
X103680029Y-79079286D02*
X103680029Y-78686429D01*
X103644315Y-78615000D01*
X103572886Y-78579286D01*
X103430029Y-78579286D01*
X103358600Y-78615000D01*
X103680029Y-79043571D02*
X103608600Y-79079286D01*
X103430029Y-79079286D01*
X103358600Y-79043571D01*
X103322886Y-78972143D01*
X103322886Y-78900714D01*
X103358600Y-78829286D01*
X103430029Y-78793571D01*
X103608600Y-78793571D01*
X103680029Y-78757857D01*
X104144314Y-79079286D02*
X104072886Y-79043571D01*
X104037171Y-78972143D01*
X104037171Y-78329286D01*
X104537171Y-79079286D02*
X104465743Y-79043571D01*
X104430028Y-79007857D01*
X104394314Y-78936429D01*
X104394314Y-78722143D01*
X104430028Y-78650714D01*
X104465743Y-78615000D01*
X104537171Y-78579286D01*
X104644314Y-78579286D01*
X104715743Y-78615000D01*
X104751457Y-78650714D01*
X104787171Y-78722143D01*
X104787171Y-78936429D01*
X104751457Y-79007857D01*
X104715743Y-79043571D01*
X104644314Y-79079286D01*
X104537171Y-79079286D01*
X105430028Y-78579286D02*
X105430028Y-79186429D01*
X105394314Y-79257857D01*
X105358599Y-79293571D01*
X105287171Y-79329286D01*
X105180028Y-79329286D01*
X105108599Y-79293571D01*
X105430028Y-79043571D02*
X105358599Y-79079286D01*
X105215742Y-79079286D01*
X105144314Y-79043571D01*
X105108599Y-79007857D01*
X105072885Y-78936429D01*
X105072885Y-78722143D01*
X105108599Y-78650714D01*
X105144314Y-78615000D01*
X105215742Y-78579286D01*
X105358599Y-78579286D01*
X105430028Y-78615000D01*
X103212972Y-75672600D02*
X103141543Y-75636886D01*
X103034400Y-75636886D01*
X102927257Y-75672600D01*
X102855829Y-75744029D01*
X102820114Y-75815457D01*
X102784400Y-75958314D01*
X102784400Y-76065457D01*
X102820114Y-76208314D01*
X102855829Y-76279743D01*
X102927257Y-76351171D01*
X103034400Y-76386886D01*
X103105829Y-76386886D01*
X103212972Y-76351171D01*
X103248686Y-76315457D01*
X103248686Y-76065457D01*
X103105829Y-76065457D01*
X103570114Y-76386886D02*
X103570114Y-75636886D01*
X103998686Y-76386886D01*
X103998686Y-75636886D01*
X104355828Y-76386886D02*
X104355828Y-75636886D01*
X104534400Y-75636886D01*
X104641543Y-75672600D01*
X104712971Y-75744029D01*
X104748686Y-75815457D01*
X104784400Y-75958314D01*
X104784400Y-76065457D01*
X104748686Y-76208314D01*
X104712971Y-76279743D01*
X104641543Y-76351171D01*
X104534400Y-76386886D01*
X104355828Y-76386886D01*
X102712971Y-73249286D02*
X103177257Y-73249286D01*
X102927257Y-73535000D01*
X103034399Y-73535000D01*
X103105828Y-73570714D01*
X103141542Y-73606429D01*
X103177257Y-73677857D01*
X103177257Y-73856429D01*
X103141542Y-73927857D01*
X103105828Y-73963571D01*
X103034399Y-73999286D01*
X102820114Y-73999286D01*
X102748685Y-73963571D01*
X102712971Y-73927857D01*
X103498685Y-73927857D02*
X103534400Y-73963571D01*
X103498685Y-73999286D01*
X103462971Y-73963571D01*
X103498685Y-73927857D01*
X103498685Y-73999286D01*
X103784400Y-73249286D02*
X104248686Y-73249286D01*
X103998686Y-73535000D01*
X104105828Y-73535000D01*
X104177257Y-73570714D01*
X104212971Y-73606429D01*
X104248686Y-73677857D01*
X104248686Y-73856429D01*
X104212971Y-73927857D01*
X104177257Y-73963571D01*
X104105828Y-73999286D01*
X103891543Y-73999286D01*
X103820114Y-73963571D01*
X103784400Y-73927857D01*
X104498686Y-73499286D02*
X104677257Y-73999286D01*
X104855829Y-73499286D01*
X102682800Y-71306886D02*
X102325657Y-71306886D01*
X102325657Y-70556886D01*
X102932800Y-71306886D02*
X102932800Y-70556886D01*
X103682801Y-70592600D02*
X103611372Y-70556886D01*
X103504229Y-70556886D01*
X103397086Y-70592600D01*
X103325658Y-70664029D01*
X103289943Y-70735457D01*
X103254229Y-70878314D01*
X103254229Y-70985457D01*
X103289943Y-71128314D01*
X103325658Y-71199743D01*
X103397086Y-71271171D01*
X103504229Y-71306886D01*
X103575658Y-71306886D01*
X103682801Y-71271171D01*
X103718515Y-71235457D01*
X103718515Y-70985457D01*
X103575658Y-70985457D01*
X104039943Y-71306886D02*
X104039943Y-70556886D01*
X104039943Y-70914029D02*
X104468515Y-70914029D01*
X104468515Y-71306886D02*
X104468515Y-70556886D01*
X104718515Y-70556886D02*
X105147086Y-70556886D01*
X104932800Y-71306886D02*
X104932800Y-70556886D01*
X103031628Y-68868486D02*
X103031628Y-68118486D01*
X103281628Y-68654200D01*
X103531628Y-68118486D01*
X103531628Y-68868486D01*
X103888771Y-68868486D02*
X103888771Y-68118486D01*
X104674486Y-68797057D02*
X104638772Y-68832771D01*
X104531629Y-68868486D01*
X104460200Y-68868486D01*
X104353057Y-68832771D01*
X104281629Y-68761343D01*
X104245914Y-68689914D01*
X104210200Y-68547057D01*
X104210200Y-68439914D01*
X104245914Y-68297057D01*
X104281629Y-68225629D01*
X104353057Y-68154200D01*
X104460200Y-68118486D01*
X104531629Y-68118486D01*
X104638772Y-68154200D01*
X104674486Y-68189914D01*
X102962972Y-66257057D02*
X102927258Y-66292771D01*
X102820115Y-66328486D01*
X102748686Y-66328486D01*
X102641543Y-66292771D01*
X102570115Y-66221343D01*
X102534400Y-66149914D01*
X102498686Y-66007057D01*
X102498686Y-65899914D01*
X102534400Y-65757057D01*
X102570115Y-65685629D01*
X102641543Y-65614200D01*
X102748686Y-65578486D01*
X102820115Y-65578486D01*
X102927258Y-65614200D01*
X102962972Y-65649914D01*
X103427258Y-65578486D02*
X103570115Y-65578486D01*
X103641543Y-65614200D01*
X103712972Y-65685629D01*
X103748686Y-65828486D01*
X103748686Y-66078486D01*
X103712972Y-66221343D01*
X103641543Y-66292771D01*
X103570115Y-66328486D01*
X103427258Y-66328486D01*
X103355829Y-66292771D01*
X103284400Y-66221343D01*
X103248686Y-66078486D01*
X103248686Y-65828486D01*
X103284400Y-65685629D01*
X103355829Y-65614200D01*
X103427258Y-65578486D01*
X104427257Y-66328486D02*
X104070114Y-66328486D01*
X104070114Y-65578486D01*
X105034400Y-65578486D02*
X104677257Y-65578486D01*
X104641543Y-65935629D01*
X104677257Y-65899914D01*
X104748686Y-65864200D01*
X104927257Y-65864200D01*
X104998686Y-65899914D01*
X105034400Y-65935629D01*
X105070115Y-66007057D01*
X105070115Y-66185629D01*
X105034400Y-66257057D01*
X104998686Y-66292771D01*
X104927257Y-66328486D01*
X104748686Y-66328486D01*
X104677257Y-66292771D01*
X104641543Y-66257057D01*
X102912172Y-63818657D02*
X102876458Y-63854371D01*
X102769315Y-63890086D01*
X102697886Y-63890086D01*
X102590743Y-63854371D01*
X102519315Y-63782943D01*
X102483600Y-63711514D01*
X102447886Y-63568657D01*
X102447886Y-63461514D01*
X102483600Y-63318657D01*
X102519315Y-63247229D01*
X102590743Y-63175800D01*
X102697886Y-63140086D01*
X102769315Y-63140086D01*
X102876458Y-63175800D01*
X102912172Y-63211514D01*
X103376458Y-63140086D02*
X103519315Y-63140086D01*
X103590743Y-63175800D01*
X103662172Y-63247229D01*
X103697886Y-63390086D01*
X103697886Y-63640086D01*
X103662172Y-63782943D01*
X103590743Y-63854371D01*
X103519315Y-63890086D01*
X103376458Y-63890086D01*
X103305029Y-63854371D01*
X103233600Y-63782943D01*
X103197886Y-63640086D01*
X103197886Y-63390086D01*
X103233600Y-63247229D01*
X103305029Y-63175800D01*
X103376458Y-63140086D01*
X104376457Y-63890086D02*
X104019314Y-63890086D01*
X104019314Y-63140086D01*
X104947886Y-63390086D02*
X104947886Y-63890086D01*
X104769315Y-63104371D02*
X104590743Y-63640086D01*
X105055029Y-63640086D01*
X102912172Y-61177057D02*
X102876458Y-61212771D01*
X102769315Y-61248486D01*
X102697886Y-61248486D01*
X102590743Y-61212771D01*
X102519315Y-61141343D01*
X102483600Y-61069914D01*
X102447886Y-60927057D01*
X102447886Y-60819914D01*
X102483600Y-60677057D01*
X102519315Y-60605629D01*
X102590743Y-60534200D01*
X102697886Y-60498486D01*
X102769315Y-60498486D01*
X102876458Y-60534200D01*
X102912172Y-60569914D01*
X103376458Y-60498486D02*
X103519315Y-60498486D01*
X103590743Y-60534200D01*
X103662172Y-60605629D01*
X103697886Y-60748486D01*
X103697886Y-60998486D01*
X103662172Y-61141343D01*
X103590743Y-61212771D01*
X103519315Y-61248486D01*
X103376458Y-61248486D01*
X103305029Y-61212771D01*
X103233600Y-61141343D01*
X103197886Y-60998486D01*
X103197886Y-60748486D01*
X103233600Y-60605629D01*
X103305029Y-60534200D01*
X103376458Y-60498486D01*
X104376457Y-61248486D02*
X104019314Y-61248486D01*
X104019314Y-60498486D01*
X104555029Y-60498486D02*
X105019315Y-60498486D01*
X104769315Y-60784200D01*
X104876457Y-60784200D01*
X104947886Y-60819914D01*
X104983600Y-60855629D01*
X105019315Y-60927057D01*
X105019315Y-61105629D01*
X104983600Y-61177057D01*
X104947886Y-61212771D01*
X104876457Y-61248486D01*
X104662172Y-61248486D01*
X104590743Y-61212771D01*
X104555029Y-61177057D01*
X102912172Y-58586257D02*
X102876458Y-58621971D01*
X102769315Y-58657686D01*
X102697886Y-58657686D01*
X102590743Y-58621971D01*
X102519315Y-58550543D01*
X102483600Y-58479114D01*
X102447886Y-58336257D01*
X102447886Y-58229114D01*
X102483600Y-58086257D01*
X102519315Y-58014829D01*
X102590743Y-57943400D01*
X102697886Y-57907686D01*
X102769315Y-57907686D01*
X102876458Y-57943400D01*
X102912172Y-57979114D01*
X103376458Y-57907686D02*
X103519315Y-57907686D01*
X103590743Y-57943400D01*
X103662172Y-58014829D01*
X103697886Y-58157686D01*
X103697886Y-58407686D01*
X103662172Y-58550543D01*
X103590743Y-58621971D01*
X103519315Y-58657686D01*
X103376458Y-58657686D01*
X103305029Y-58621971D01*
X103233600Y-58550543D01*
X103197886Y-58407686D01*
X103197886Y-58157686D01*
X103233600Y-58014829D01*
X103305029Y-57943400D01*
X103376458Y-57907686D01*
X104376457Y-58657686D02*
X104019314Y-58657686D01*
X104019314Y-57907686D01*
X104590743Y-57979114D02*
X104626457Y-57943400D01*
X104697886Y-57907686D01*
X104876457Y-57907686D01*
X104947886Y-57943400D01*
X104983600Y-57979114D01*
X105019315Y-58050543D01*
X105019315Y-58121971D01*
X104983600Y-58229114D01*
X104555029Y-58657686D01*
X105019315Y-58657686D01*
X102962972Y-56046257D02*
X102927258Y-56081971D01*
X102820115Y-56117686D01*
X102748686Y-56117686D01*
X102641543Y-56081971D01*
X102570115Y-56010543D01*
X102534400Y-55939114D01*
X102498686Y-55796257D01*
X102498686Y-55689114D01*
X102534400Y-55546257D01*
X102570115Y-55474829D01*
X102641543Y-55403400D01*
X102748686Y-55367686D01*
X102820115Y-55367686D01*
X102927258Y-55403400D01*
X102962972Y-55439114D01*
X103427258Y-55367686D02*
X103570115Y-55367686D01*
X103641543Y-55403400D01*
X103712972Y-55474829D01*
X103748686Y-55617686D01*
X103748686Y-55867686D01*
X103712972Y-56010543D01*
X103641543Y-56081971D01*
X103570115Y-56117686D01*
X103427258Y-56117686D01*
X103355829Y-56081971D01*
X103284400Y-56010543D01*
X103248686Y-55867686D01*
X103248686Y-55617686D01*
X103284400Y-55474829D01*
X103355829Y-55403400D01*
X103427258Y-55367686D01*
X104427257Y-56117686D02*
X104070114Y-56117686D01*
X104070114Y-55367686D01*
X105070115Y-56117686D02*
X104641543Y-56117686D01*
X104855829Y-56117686D02*
X104855829Y-55367686D01*
X104784400Y-55474829D01*
X104712972Y-55546257D01*
X104641543Y-55581971D01*
D11*
X112760000Y-82800000D02*
X110760000Y-82800000D01*
X110760000Y-84840000D02*
X112760000Y-84840000D01*
X112760000Y-89970000D02*
X110760000Y-89970000D01*
X110760000Y-87830000D02*
X112760000Y-87830000D01*
X139640000Y-57150000D02*
X139640000Y-77530000D01*
X139640000Y-77530000D02*
X142300000Y-77530000D01*
X142300000Y-77530000D02*
X142300000Y-57150000D01*
X142300000Y-57150000D02*
X139640000Y-57150000D01*
X139640000Y-55880000D02*
X139640000Y-54550000D01*
X139640000Y-54550000D02*
X140970000Y-54550000D01*
X105350000Y-57150000D02*
X105350000Y-80070000D01*
X105350000Y-80070000D02*
X108010000Y-80070000D01*
X108010000Y-80070000D02*
X108010000Y-57150000D01*
X108010000Y-57150000D02*
X105350000Y-57150000D01*
X105350000Y-55880000D02*
X105350000Y-54550000D01*
X105350000Y-54550000D02*
X106680000Y-54550000D01*
D12*
X131826000Y-81280000D02*
X137414000Y-81280000D01*
X110490000Y-81280000D02*
X115570000Y-81280000D01*
X115570000Y-81280000D02*
X115570000Y-80264000D01*
X115570000Y-80264000D02*
X131826000Y-80264000D01*
X131826000Y-80264000D02*
X131826000Y-81280000D01*
X111506000Y-60960000D02*
X136398000Y-60960000D01*
X136398000Y-60960000D02*
X136398000Y-71628000D01*
X136398000Y-71628000D02*
X111506000Y-71628000D01*
X111506000Y-71628000D02*
X111506000Y-60960000D01*
X110490000Y-58928000D02*
X137414000Y-58928000D01*
X137414000Y-58928000D02*
X137414000Y-77216000D01*
X137414000Y-77216000D02*
X110490000Y-77216000D01*
X110490000Y-77216000D02*
X110490000Y-58928000D01*
X137025923Y-79756000D02*
G75*
G03X137025923Y-79756000I-1135923J0D01*
G01*
X113149923Y-79756000D02*
G75*
G03X113149923Y-79756000I-1135923J0D01*
G01*
X113149923Y-55880000D02*
G75*
G03X113149923Y-55880000I-1135923J0D01*
G01*
X137025923Y-55880000D02*
G75*
G03X137025923Y-55880000I-1135923J0D01*
G01*
X110490000Y-81280000D02*
X110490000Y-54356000D01*
X110490000Y-54356000D02*
X137414000Y-54356000D01*
X137414000Y-54356000D02*
X137414000Y-81280000D01*
D11*
X136890000Y-84890000D02*
X134890000Y-84890000D01*
X134890000Y-82750000D02*
X136890000Y-82750000D01*
X110760000Y-91640000D02*
X112760000Y-91640000D01*
X112760000Y-93780000D02*
X110760000Y-93780000D01*
X136890000Y-87430000D02*
X134890000Y-87430000D01*
X134890000Y-85290000D02*
X136890000Y-85290000D01*
X136890000Y-89970000D02*
X134890000Y-89970000D01*
X134890000Y-87830000D02*
X136890000Y-87830000D01*
X107750000Y-84090000D02*
X107750000Y-86090000D01*
X105610000Y-86090000D02*
X105610000Y-84090000D01*
D10*
X116889771Y-87489771D02*
X123536575Y-80842967D01*
X123536575Y-80842967D02*
X131244039Y-88550431D01*
X131244039Y-88550431D02*
X123890128Y-95904342D01*
X123890128Y-95904342D02*
X116182664Y-88196878D01*
X116182664Y-88196878D02*
X116889771Y-87489771D01*
D13*
G36*
X147563621Y-124793592D02*
X147581862Y-124802874D01*
X147719194Y-124955277D01*
X147723444Y-125151864D01*
X147616334Y-125306667D01*
X147522395Y-125464738D01*
X147489334Y-125655700D01*
X147501317Y-125805587D01*
X147567849Y-125876584D01*
X147734805Y-125898027D01*
X147870334Y-125899333D01*
X148251334Y-125899333D01*
X148251334Y-132672667D01*
X145535094Y-132672667D01*
X143390558Y-133604000D01*
X142740777Y-133885917D01*
X142229615Y-134106614D01*
X141840484Y-134272574D01*
X141556795Y-134390281D01*
X141361957Y-134466219D01*
X141239383Y-134506874D01*
X141172482Y-134518729D01*
X141144667Y-134508268D01*
X141139334Y-134483942D01*
X141184979Y-134398038D01*
X141242139Y-134308403D01*
X141393334Y-134308403D01*
X141467142Y-134286311D01*
X141674756Y-134203735D01*
X141995460Y-134069447D01*
X142408537Y-133892222D01*
X142893271Y-133680832D01*
X143319500Y-133492675D01*
X145245667Y-132638008D01*
X146685000Y-132591837D01*
X148124334Y-132545667D01*
X148146506Y-129307167D01*
X148168679Y-126068667D01*
X141585683Y-126068667D01*
X141531842Y-126461484D01*
X141518926Y-126639641D01*
X141507122Y-126963930D01*
X141496813Y-127411151D01*
X141488383Y-127958103D01*
X141482214Y-128581586D01*
X141478691Y-129258400D01*
X141478000Y-129721150D01*
X141478000Y-132588000D01*
X141929556Y-132588000D01*
X142192568Y-132597445D01*
X142380629Y-132621679D01*
X142435480Y-132642368D01*
X142411727Y-132728992D01*
X142306133Y-132923118D01*
X142136131Y-133195069D01*
X141941591Y-133483100D01*
X141723434Y-133799236D01*
X141546441Y-134061876D01*
X141430094Y-134241695D01*
X141393334Y-134308403D01*
X141242139Y-134308403D01*
X141308906Y-134203705D01*
X141491602Y-133930756D01*
X141689667Y-133643210D01*
X141908445Y-133325417D01*
X142086007Y-133059877D01*
X142202857Y-132876263D01*
X142240000Y-132805601D01*
X142163805Y-132778059D01*
X141969000Y-132760584D01*
X141816667Y-132757333D01*
X141393334Y-132757333D01*
X141393334Y-125899333D01*
X141732000Y-125899333D01*
X141948836Y-125890362D01*
X142045200Y-125834970D01*
X142069910Y-125690441D01*
X142070667Y-125603000D01*
X142051669Y-125407100D01*
X142004959Y-125309214D01*
X141995059Y-125306666D01*
X141899485Y-125235982D01*
X141851197Y-125077470D01*
X141854100Y-125052667D01*
X141986000Y-125052667D01*
X142028852Y-125191627D01*
X142134167Y-125205882D01*
X142260126Y-125122396D01*
X142282334Y-125052667D01*
X142211949Y-124933118D01*
X142134167Y-124899451D01*
X142014155Y-124928903D01*
X141986000Y-125052667D01*
X141854100Y-125052667D01*
X141868204Y-124932213D01*
X141996513Y-124784539D01*
X142191168Y-124775090D01*
X142371174Y-124871490D01*
X142571973Y-125029438D01*
X142378444Y-125211249D01*
X142233116Y-125419575D01*
X142222067Y-125646197D01*
X142259219Y-125899333D01*
X147404667Y-125899333D01*
X147404667Y-125671957D01*
X147347274Y-125448475D01*
X147214167Y-125241431D01*
X147066304Y-125083749D01*
X147258875Y-125083749D01*
X147276005Y-125134644D01*
X147399723Y-125205022D01*
X147552668Y-125172369D01*
X147637525Y-125073878D01*
X147607640Y-124964242D01*
X147484617Y-124904051D01*
X147343284Y-124921299D01*
X147304753Y-124949380D01*
X147258875Y-125083749D01*
X147066304Y-125083749D01*
X147023667Y-125038282D01*
X147222029Y-124877370D01*
X147404168Y-124771085D01*
X147563621Y-124793592D01*
X147563621Y-124793592D01*
G37*
X147563621Y-124793592D02*
X147581862Y-124802874D01*
X147719194Y-124955277D01*
X147723444Y-125151864D01*
X147616334Y-125306667D01*
X147522395Y-125464738D01*
X147489334Y-125655700D01*
X147501317Y-125805587D01*
X147567849Y-125876584D01*
X147734805Y-125898027D01*
X147870334Y-125899333D01*
X148251334Y-125899333D01*
X148251334Y-132672667D01*
X145535094Y-132672667D01*
X143390558Y-133604000D01*
X142740777Y-133885917D01*
X142229615Y-134106614D01*
X141840484Y-134272574D01*
X141556795Y-134390281D01*
X141361957Y-134466219D01*
X141239383Y-134506874D01*
X141172482Y-134518729D01*
X141144667Y-134508268D01*
X141139334Y-134483942D01*
X141184979Y-134398038D01*
X141242139Y-134308403D01*
X141393334Y-134308403D01*
X141467142Y-134286311D01*
X141674756Y-134203735D01*
X141995460Y-134069447D01*
X142408537Y-133892222D01*
X142893271Y-133680832D01*
X143319500Y-133492675D01*
X145245667Y-132638008D01*
X146685000Y-132591837D01*
X148124334Y-132545667D01*
X148146506Y-129307167D01*
X148168679Y-126068667D01*
X141585683Y-126068667D01*
X141531842Y-126461484D01*
X141518926Y-126639641D01*
X141507122Y-126963930D01*
X141496813Y-127411151D01*
X141488383Y-127958103D01*
X141482214Y-128581586D01*
X141478691Y-129258400D01*
X141478000Y-129721150D01*
X141478000Y-132588000D01*
X141929556Y-132588000D01*
X142192568Y-132597445D01*
X142380629Y-132621679D01*
X142435480Y-132642368D01*
X142411727Y-132728992D01*
X142306133Y-132923118D01*
X142136131Y-133195069D01*
X141941591Y-133483100D01*
X141723434Y-133799236D01*
X141546441Y-134061876D01*
X141430094Y-134241695D01*
X141393334Y-134308403D01*
X141242139Y-134308403D01*
X141308906Y-134203705D01*
X141491602Y-133930756D01*
X141689667Y-133643210D01*
X141908445Y-133325417D01*
X142086007Y-133059877D01*
X142202857Y-132876263D01*
X142240000Y-132805601D01*
X142163805Y-132778059D01*
X141969000Y-132760584D01*
X141816667Y-132757333D01*
X141393334Y-132757333D01*
X141393334Y-125899333D01*
X141732000Y-125899333D01*
X141948836Y-125890362D01*
X142045200Y-125834970D01*
X142069910Y-125690441D01*
X142070667Y-125603000D01*
X142051669Y-125407100D01*
X142004959Y-125309214D01*
X141995059Y-125306666D01*
X141899485Y-125235982D01*
X141851197Y-125077470D01*
X141854100Y-125052667D01*
X141986000Y-125052667D01*
X142028852Y-125191627D01*
X142134167Y-125205882D01*
X142260126Y-125122396D01*
X142282334Y-125052667D01*
X142211949Y-124933118D01*
X142134167Y-124899451D01*
X142014155Y-124928903D01*
X141986000Y-125052667D01*
X141854100Y-125052667D01*
X141868204Y-124932213D01*
X141996513Y-124784539D01*
X142191168Y-124775090D01*
X142371174Y-124871490D01*
X142571973Y-125029438D01*
X142378444Y-125211249D01*
X142233116Y-125419575D01*
X142222067Y-125646197D01*
X142259219Y-125899333D01*
X147404667Y-125899333D01*
X147404667Y-125671957D01*
X147347274Y-125448475D01*
X147214167Y-125241431D01*
X147066304Y-125083749D01*
X147258875Y-125083749D01*
X147276005Y-125134644D01*
X147399723Y-125205022D01*
X147552668Y-125172369D01*
X147637525Y-125073878D01*
X147607640Y-124964242D01*
X147484617Y-124904051D01*
X147343284Y-124921299D01*
X147304753Y-124949380D01*
X147258875Y-125083749D01*
X147066304Y-125083749D01*
X147023667Y-125038282D01*
X147222029Y-124877370D01*
X147404168Y-124771085D01*
X147563621Y-124793592D01*
G36*
X136552582Y-133333106D02*
X136567334Y-133392333D01*
X136499561Y-133504582D01*
X136440334Y-133519333D01*
X136328085Y-133451560D01*
X136313334Y-133392333D01*
X136381106Y-133280085D01*
X136440334Y-133265333D01*
X136552582Y-133333106D01*
X136552582Y-133333106D01*
G37*
X136552582Y-133333106D02*
X136567334Y-133392333D01*
X136499561Y-133504582D01*
X136440334Y-133519333D01*
X136328085Y-133451560D01*
X136313334Y-133392333D01*
X136381106Y-133280085D01*
X136440334Y-133265333D01*
X136552582Y-133333106D01*
G36*
X137799978Y-132743929D02*
X137915510Y-132849425D01*
X137922000Y-132885946D01*
X137875772Y-132997579D01*
X137837334Y-133011333D01*
X137755127Y-132946904D01*
X137752667Y-132926667D01*
X137678238Y-132870704D01*
X137495223Y-132842731D01*
X137456334Y-132842000D01*
X137257239Y-132856159D01*
X137175578Y-132927979D01*
X137160000Y-133096000D01*
X137176520Y-133266653D01*
X137260310Y-133336647D01*
X137456334Y-133350000D01*
X137652182Y-133327485D01*
X137750100Y-133272120D01*
X137752667Y-133260336D01*
X137804537Y-133209770D01*
X137837334Y-133223000D01*
X137915238Y-133345502D01*
X137922000Y-133397330D01*
X137875391Y-133471469D01*
X137716174Y-133509588D01*
X137451695Y-133519333D01*
X136981389Y-133519333D01*
X137007195Y-133117167D01*
X137031763Y-132872297D01*
X137084164Y-132748874D01*
X137194333Y-132699023D01*
X137276064Y-132687222D01*
X137572595Y-132685482D01*
X137799978Y-132743929D01*
X137799978Y-132743929D01*
G37*
X137799978Y-132743929D02*
X137915510Y-132849425D01*
X137922000Y-132885946D01*
X137875772Y-132997579D01*
X137837334Y-133011333D01*
X137755127Y-132946904D01*
X137752667Y-132926667D01*
X137678238Y-132870704D01*
X137495223Y-132842731D01*
X137456334Y-132842000D01*
X137257239Y-132856159D01*
X137175578Y-132927979D01*
X137160000Y-133096000D01*
X137176520Y-133266653D01*
X137260310Y-133336647D01*
X137456334Y-133350000D01*
X137652182Y-133327485D01*
X137750100Y-133272120D01*
X137752667Y-133260336D01*
X137804537Y-133209770D01*
X137837334Y-133223000D01*
X137915238Y-133345502D01*
X137922000Y-133397330D01*
X137875391Y-133471469D01*
X137716174Y-133509588D01*
X137451695Y-133519333D01*
X136981389Y-133519333D01*
X137007195Y-133117167D01*
X137031763Y-132872297D01*
X137084164Y-132748874D01*
X137194333Y-132699023D01*
X137276064Y-132687222D01*
X137572595Y-132685482D01*
X137799978Y-132743929D01*
G36*
X139260139Y-133117167D02*
X139285945Y-133519333D01*
X138251389Y-133519333D01*
X138277195Y-133117167D01*
X138278553Y-133096000D01*
X138430000Y-133096000D01*
X138443374Y-133258867D01*
X138515846Y-133331268D01*
X138695945Y-133349599D01*
X138768667Y-133350000D01*
X138985822Y-133339970D01*
X139082357Y-133285615D01*
X139106799Y-133150541D01*
X139107334Y-133096000D01*
X139093960Y-132933133D01*
X139021487Y-132860732D01*
X138841389Y-132842401D01*
X138768667Y-132842000D01*
X138551511Y-132852030D01*
X138454976Y-132906385D01*
X138430534Y-133041458D01*
X138430000Y-133096000D01*
X138278553Y-133096000D01*
X138303000Y-132715000D01*
X139234334Y-132715000D01*
X139260139Y-133117167D01*
X139260139Y-133117167D01*
G37*
X139260139Y-133117167D02*
X139285945Y-133519333D01*
X138251389Y-133519333D01*
X138277195Y-133117167D01*
X138278553Y-133096000D01*
X138430000Y-133096000D01*
X138443374Y-133258867D01*
X138515846Y-133331268D01*
X138695945Y-133349599D01*
X138768667Y-133350000D01*
X138985822Y-133339970D01*
X139082357Y-133285615D01*
X139106799Y-133150541D01*
X139107334Y-133096000D01*
X139093960Y-132933133D01*
X139021487Y-132860732D01*
X138841389Y-132842401D01*
X138768667Y-132842000D01*
X138551511Y-132852030D01*
X138454976Y-132906385D01*
X138430534Y-133041458D01*
X138430000Y-133096000D01*
X138278553Y-133096000D01*
X138303000Y-132715000D01*
X139234334Y-132715000D01*
X139260139Y-133117167D01*
G36*
X140713518Y-133074833D02*
X140700364Y-133323143D01*
X140663914Y-133484481D01*
X140631334Y-133519333D01*
X140572888Y-133445509D01*
X140546762Y-133266555D01*
X140546667Y-133253915D01*
X140546667Y-132988497D01*
X140361873Y-133223424D01*
X140177079Y-133458352D01*
X139981294Y-133213676D01*
X139785508Y-132969000D01*
X139785087Y-133244167D01*
X139762022Y-133431464D01*
X139706404Y-133518548D01*
X139700000Y-133519333D01*
X139649228Y-133443720D01*
X139619007Y-133252674D01*
X139615334Y-133143330D01*
X139636290Y-132857499D01*
X139702797Y-132733113D01*
X139820311Y-132767098D01*
X139979981Y-132937914D01*
X140188838Y-133204784D01*
X140449937Y-132917559D01*
X140711036Y-132630333D01*
X140713518Y-133074833D01*
X140713518Y-133074833D01*
G37*
X140713518Y-133074833D02*
X140700364Y-133323143D01*
X140663914Y-133484481D01*
X140631334Y-133519333D01*
X140572888Y-133445509D01*
X140546762Y-133266555D01*
X140546667Y-133253915D01*
X140546667Y-132988497D01*
X140361873Y-133223424D01*
X140177079Y-133458352D01*
X139981294Y-133213676D01*
X139785508Y-132969000D01*
X139785087Y-133244167D01*
X139762022Y-133431464D01*
X139706404Y-133518548D01*
X139700000Y-133519333D01*
X139649228Y-133443720D01*
X139619007Y-133252674D01*
X139615334Y-133143330D01*
X139636290Y-132857499D01*
X139702797Y-132733113D01*
X139820311Y-132767098D01*
X139979981Y-132937914D01*
X140188838Y-133204784D01*
X140449937Y-132917559D01*
X140711036Y-132630333D01*
X140713518Y-133074833D01*
G36*
X134592364Y-129643527D02*
X134796340Y-129691593D01*
X134857067Y-129726267D01*
X134904970Y-129855742D01*
X134937442Y-130136803D01*
X134954990Y-130575758D01*
X134958667Y-130993288D01*
X134956812Y-131461922D01*
X134948789Y-131789472D01*
X134930906Y-132004168D01*
X134899476Y-132134241D01*
X134850808Y-132207921D01*
X134794900Y-132246354D01*
X134543119Y-132315015D01*
X134221626Y-132319882D01*
X133917580Y-132260924D01*
X133879167Y-132246695D01*
X133803399Y-132209093D01*
X133750951Y-132149017D01*
X133717540Y-132038416D01*
X133698883Y-131849240D01*
X133690698Y-131553438D01*
X133689803Y-131360424D01*
X134207322Y-131360424D01*
X134221315Y-131676455D01*
X134258427Y-131848576D01*
X134320643Y-131888957D01*
X134372007Y-131853860D01*
X134408305Y-131732936D01*
X134430526Y-131479467D01*
X134436225Y-131129840D01*
X134432731Y-130950271D01*
X134409037Y-130515729D01*
X134372575Y-130240555D01*
X134329336Y-130126450D01*
X134285316Y-130175115D01*
X134246506Y-130388251D01*
X134218901Y-130767560D01*
X134214460Y-130888315D01*
X134207322Y-131360424D01*
X133689803Y-131360424D01*
X133688701Y-131122960D01*
X133688667Y-130998995D01*
X133695713Y-130441427D01*
X133717194Y-130046151D01*
X133753627Y-129806697D01*
X133790267Y-129726267D01*
X133929207Y-129667481D01*
X134170172Y-129630796D01*
X134323667Y-129624667D01*
X134592364Y-129643527D01*
X134592364Y-129643527D01*
G37*
X134592364Y-129643527D02*
X134796340Y-129691593D01*
X134857067Y-129726267D01*
X134904970Y-129855742D01*
X134937442Y-130136803D01*
X134954990Y-130575758D01*
X134958667Y-130993288D01*
X134956812Y-131461922D01*
X134948789Y-131789472D01*
X134930906Y-132004168D01*
X134899476Y-132134241D01*
X134850808Y-132207921D01*
X134794900Y-132246354D01*
X134543119Y-132315015D01*
X134221626Y-132319882D01*
X133917580Y-132260924D01*
X133879167Y-132246695D01*
X133803399Y-132209093D01*
X133750951Y-132149017D01*
X133717540Y-132038416D01*
X133698883Y-131849240D01*
X133690698Y-131553438D01*
X133689803Y-131360424D01*
X134207322Y-131360424D01*
X134221315Y-131676455D01*
X134258427Y-131848576D01*
X134320643Y-131888957D01*
X134372007Y-131853860D01*
X134408305Y-131732936D01*
X134430526Y-131479467D01*
X134436225Y-131129840D01*
X134432731Y-130950271D01*
X134409037Y-130515729D01*
X134372575Y-130240555D01*
X134329336Y-130126450D01*
X134285316Y-130175115D01*
X134246506Y-130388251D01*
X134218901Y-130767560D01*
X134214460Y-130888315D01*
X134207322Y-131360424D01*
X133689803Y-131360424D01*
X133688701Y-131122960D01*
X133688667Y-130998995D01*
X133695713Y-130441427D01*
X133717194Y-130046151D01*
X133753627Y-129806697D01*
X133790267Y-129726267D01*
X133929207Y-129667481D01*
X134170172Y-129630796D01*
X134323667Y-129624667D01*
X134592364Y-129643527D01*
G36*
X135686698Y-129636650D02*
X135773710Y-129699029D01*
X135834634Y-129851445D01*
X135893290Y-130111500D01*
X135964567Y-130450171D01*
X136009571Y-130626200D01*
X136034853Y-130643066D01*
X136046962Y-130504249D01*
X136052448Y-130213229D01*
X136052649Y-130196167D01*
X136059334Y-129624667D01*
X136567334Y-129624667D01*
X136567334Y-132334000D01*
X136322392Y-132334000D01*
X136166354Y-132318688D01*
X136066093Y-132249355D01*
X135999547Y-132090901D01*
X135944652Y-131808228D01*
X135929375Y-131708783D01*
X135870339Y-131416608D01*
X135811673Y-131290771D01*
X135761757Y-131328464D01*
X135728972Y-131526882D01*
X135720667Y-131778670D01*
X135717034Y-132076159D01*
X135696456Y-132242421D01*
X135644416Y-132315544D01*
X135546397Y-132333617D01*
X135509000Y-132334000D01*
X135297334Y-132334000D01*
X135297334Y-129624667D01*
X135545262Y-129624667D01*
X135686698Y-129636650D01*
X135686698Y-129636650D01*
G37*
X135686698Y-129636650D02*
X135773710Y-129699029D01*
X135834634Y-129851445D01*
X135893290Y-130111500D01*
X135964567Y-130450171D01*
X136009571Y-130626200D01*
X136034853Y-130643066D01*
X136046962Y-130504249D01*
X136052448Y-130213229D01*
X136052649Y-130196167D01*
X136059334Y-129624667D01*
X136567334Y-129624667D01*
X136567334Y-132334000D01*
X136322392Y-132334000D01*
X136166354Y-132318688D01*
X136066093Y-132249355D01*
X135999547Y-132090901D01*
X135944652Y-131808228D01*
X135929375Y-131708783D01*
X135870339Y-131416608D01*
X135811673Y-131290771D01*
X135761757Y-131328464D01*
X135728972Y-131526882D01*
X135720667Y-131778670D01*
X135717034Y-132076159D01*
X135696456Y-132242421D01*
X135644416Y-132315544D01*
X135546397Y-132333617D01*
X135509000Y-132334000D01*
X135297334Y-132334000D01*
X135297334Y-129624667D01*
X135545262Y-129624667D01*
X135686698Y-129636650D01*
G36*
X137817770Y-129648782D02*
X137920520Y-129720688D01*
X137922000Y-129734017D01*
X137932923Y-129871363D01*
X137962190Y-130135710D01*
X138004551Y-130486375D01*
X138054756Y-130882679D01*
X138107554Y-131283940D01*
X138157695Y-131649477D01*
X138199929Y-131938608D01*
X138228281Y-132107130D01*
X138248152Y-132267442D01*
X138188067Y-132325455D01*
X138005075Y-132319895D01*
X137993537Y-132318797D01*
X137796488Y-132279426D01*
X137710594Y-132175078D01*
X137683419Y-132011360D01*
X137632082Y-131814409D01*
X137551505Y-131769149D01*
X137472630Y-131868994D01*
X137429802Y-132065353D01*
X137391451Y-132251661D01*
X137288875Y-132323594D01*
X137129267Y-132334000D01*
X136855263Y-132334000D01*
X137021496Y-130979333D01*
X137029288Y-130915833D01*
X137505351Y-130915833D01*
X137514224Y-131150251D01*
X137544302Y-131295198D01*
X137566332Y-131318000D01*
X137602326Y-131243829D01*
X137607211Y-131059723D01*
X137602529Y-131000500D01*
X137568796Y-130723585D01*
X137539987Y-130609495D01*
X137518341Y-130660181D01*
X137506097Y-130877591D01*
X137505351Y-130915833D01*
X137029288Y-130915833D01*
X137187729Y-129624667D01*
X137554864Y-129624667D01*
X137817770Y-129648782D01*
X137817770Y-129648782D01*
G37*
X137817770Y-129648782D02*
X137920520Y-129720688D01*
X137922000Y-129734017D01*
X137932923Y-129871363D01*
X137962190Y-130135710D01*
X138004551Y-130486375D01*
X138054756Y-130882679D01*
X138107554Y-131283940D01*
X138157695Y-131649477D01*
X138199929Y-131938608D01*
X138228281Y-132107130D01*
X138248152Y-132267442D01*
X138188067Y-132325455D01*
X138005075Y-132319895D01*
X137993537Y-132318797D01*
X137796488Y-132279426D01*
X137710594Y-132175078D01*
X137683419Y-132011360D01*
X137632082Y-131814409D01*
X137551505Y-131769149D01*
X137472630Y-131868994D01*
X137429802Y-132065353D01*
X137391451Y-132251661D01*
X137288875Y-132323594D01*
X137129267Y-132334000D01*
X136855263Y-132334000D01*
X137021496Y-130979333D01*
X137029288Y-130915833D01*
X137505351Y-130915833D01*
X137514224Y-131150251D01*
X137544302Y-131295198D01*
X137566332Y-131318000D01*
X137602326Y-131243829D01*
X137607211Y-131059723D01*
X137602529Y-131000500D01*
X137568796Y-130723585D01*
X137539987Y-130609495D01*
X137518341Y-130660181D01*
X137506097Y-130877591D01*
X137505351Y-130915833D01*
X137029288Y-130915833D01*
X137187729Y-129624667D01*
X137554864Y-129624667D01*
X137817770Y-129648782D01*
G36*
X139107334Y-132334000D02*
X138514667Y-132334000D01*
X138514667Y-129624667D01*
X139107334Y-129624667D01*
X139107334Y-132334000D01*
X139107334Y-132334000D01*
G37*
X139107334Y-132334000D02*
X138514667Y-132334000D01*
X138514667Y-129624667D01*
X139107334Y-129624667D01*
X139107334Y-132334000D01*
G36*
X140265925Y-129639518D02*
X140509874Y-129679467D01*
X140614400Y-129726267D01*
X140675746Y-129874912D01*
X140707974Y-130126378D01*
X140711085Y-130416676D01*
X140685079Y-130681817D01*
X140629955Y-130857809D01*
X140614400Y-130877733D01*
X140556395Y-130992947D01*
X140614400Y-131080933D01*
X140669813Y-131220507D01*
X140705813Y-131482884D01*
X140716000Y-131758266D01*
X140716000Y-132334000D01*
X140123334Y-132334000D01*
X140123334Y-131783667D01*
X140111371Y-131496084D01*
X140079681Y-131299190D01*
X140038667Y-131233333D01*
X139994423Y-131311091D01*
X139964132Y-131517073D01*
X139954000Y-131783667D01*
X139951046Y-132079272D01*
X139931040Y-132243890D01*
X139877268Y-132315865D01*
X139773015Y-132333543D01*
X139714111Y-132334000D01*
X139520203Y-132315867D01*
X139417778Y-132277555D01*
X139398248Y-132177431D01*
X139381646Y-131938629D01*
X139369250Y-131591796D01*
X139362338Y-131167579D01*
X139361334Y-130922889D01*
X139361334Y-130505612D01*
X139955755Y-130505612D01*
X139978206Y-130683954D01*
X140010445Y-130753555D01*
X140076213Y-130800738D01*
X140110083Y-130752574D01*
X140122228Y-130579822D01*
X140123334Y-130429000D01*
X140106517Y-130201780D01*
X140063970Y-130065482D01*
X140038667Y-130048000D01*
X139988649Y-130121043D01*
X139960124Y-130295777D01*
X139955755Y-130505612D01*
X139361334Y-130505612D01*
X139361334Y-129624667D01*
X139937067Y-129624667D01*
X140265925Y-129639518D01*
X140265925Y-129639518D01*
G37*
X140265925Y-129639518D02*
X140509874Y-129679467D01*
X140614400Y-129726267D01*
X140675746Y-129874912D01*
X140707974Y-130126378D01*
X140711085Y-130416676D01*
X140685079Y-130681817D01*
X140629955Y-130857809D01*
X140614400Y-130877733D01*
X140556395Y-130992947D01*
X140614400Y-131080933D01*
X140669813Y-131220507D01*
X140705813Y-131482884D01*
X140716000Y-131758266D01*
X140716000Y-132334000D01*
X140123334Y-132334000D01*
X140123334Y-131783667D01*
X140111371Y-131496084D01*
X140079681Y-131299190D01*
X140038667Y-131233333D01*
X139994423Y-131311091D01*
X139964132Y-131517073D01*
X139954000Y-131783667D01*
X139951046Y-132079272D01*
X139931040Y-132243890D01*
X139877268Y-132315865D01*
X139773015Y-132333543D01*
X139714111Y-132334000D01*
X139520203Y-132315867D01*
X139417778Y-132277555D01*
X139398248Y-132177431D01*
X139381646Y-131938629D01*
X139369250Y-131591796D01*
X139362338Y-131167579D01*
X139361334Y-130922889D01*
X139361334Y-130505612D01*
X139955755Y-130505612D01*
X139978206Y-130683954D01*
X140010445Y-130753555D01*
X140076213Y-130800738D01*
X140110083Y-130752574D01*
X140122228Y-130579822D01*
X140123334Y-130429000D01*
X140106517Y-130201780D01*
X140063970Y-130065482D01*
X140038667Y-130048000D01*
X139988649Y-130121043D01*
X139960124Y-130295777D01*
X139955755Y-130505612D01*
X139361334Y-130505612D01*
X139361334Y-129624667D01*
X139937067Y-129624667D01*
X140265925Y-129639518D01*
G36*
X134831876Y-126223983D02*
X135057961Y-126325777D01*
X135175799Y-126526316D01*
X135212429Y-126850866D01*
X135212667Y-126889182D01*
X135212667Y-127254000D01*
X134874000Y-127254000D01*
X134657164Y-127245029D01*
X134560801Y-127189637D01*
X134536091Y-127045107D01*
X134535334Y-126957667D01*
X134514068Y-126761799D01*
X134461778Y-126663893D01*
X134450667Y-126661333D01*
X134394625Y-126735743D01*
X134366702Y-126918629D01*
X134366000Y-126956604D01*
X134388817Y-127158181D01*
X134484188Y-127304942D01*
X134692495Y-127457970D01*
X134701026Y-127463368D01*
X134967571Y-127659719D01*
X135123710Y-127866950D01*
X135196376Y-128138667D01*
X135212667Y-128481667D01*
X135199298Y-128855541D01*
X135139623Y-129091914D01*
X135004292Y-129221768D01*
X134763955Y-129276083D01*
X134450667Y-129286000D01*
X134128492Y-129278617D01*
X133933606Y-129249723D01*
X133824349Y-129189201D01*
X133776312Y-129122233D01*
X133727131Y-128947716D01*
X133695331Y-128676276D01*
X133688667Y-128482122D01*
X133688667Y-128005778D01*
X134006167Y-128032056D01*
X134206151Y-128059092D01*
X134302212Y-128129939D01*
X134339647Y-128295506D01*
X134349702Y-128418167D01*
X134390084Y-128674598D01*
X134448248Y-128768398D01*
X134503189Y-128701768D01*
X134533901Y-128476908D01*
X134535334Y-128398721D01*
X134523049Y-128156070D01*
X134457899Y-128012845D01*
X134297441Y-127899458D01*
X134199498Y-127848111D01*
X133934178Y-127682426D01*
X133777695Y-127488311D01*
X133704494Y-127217784D01*
X133688667Y-126888933D01*
X133711639Y-126560356D01*
X133800115Y-126353194D01*
X133983440Y-126241429D01*
X134290954Y-126199042D01*
X134470505Y-126195667D01*
X134831876Y-126223983D01*
X134831876Y-126223983D01*
G37*
X134831876Y-126223983D02*
X135057961Y-126325777D01*
X135175799Y-126526316D01*
X135212429Y-126850866D01*
X135212667Y-126889182D01*
X135212667Y-127254000D01*
X134874000Y-127254000D01*
X134657164Y-127245029D01*
X134560801Y-127189637D01*
X134536091Y-127045107D01*
X134535334Y-126957667D01*
X134514068Y-126761799D01*
X134461778Y-126663893D01*
X134450667Y-126661333D01*
X134394625Y-126735743D01*
X134366702Y-126918629D01*
X134366000Y-126956604D01*
X134388817Y-127158181D01*
X134484188Y-127304942D01*
X134692495Y-127457970D01*
X134701026Y-127463368D01*
X134967571Y-127659719D01*
X135123710Y-127866950D01*
X135196376Y-128138667D01*
X135212667Y-128481667D01*
X135199298Y-128855541D01*
X135139623Y-129091914D01*
X135004292Y-129221768D01*
X134763955Y-129276083D01*
X134450667Y-129286000D01*
X134128492Y-129278617D01*
X133933606Y-129249723D01*
X133824349Y-129189201D01*
X133776312Y-129122233D01*
X133727131Y-128947716D01*
X133695331Y-128676276D01*
X133688667Y-128482122D01*
X133688667Y-128005778D01*
X134006167Y-128032056D01*
X134206151Y-128059092D01*
X134302212Y-128129939D01*
X134339647Y-128295506D01*
X134349702Y-128418167D01*
X134390084Y-128674598D01*
X134448248Y-128768398D01*
X134503189Y-128701768D01*
X134533901Y-128476908D01*
X134535334Y-128398721D01*
X134523049Y-128156070D01*
X134457899Y-128012845D01*
X134297441Y-127899458D01*
X134199498Y-127848111D01*
X133934178Y-127682426D01*
X133777695Y-127488311D01*
X133704494Y-127217784D01*
X133688667Y-126888933D01*
X133711639Y-126560356D01*
X133800115Y-126353194D01*
X133983440Y-126241429D01*
X134290954Y-126199042D01*
X134470505Y-126195667D01*
X134831876Y-126223983D01*
G36*
X136757834Y-126169135D02*
X137033000Y-126195667D01*
X137056077Y-127740833D01*
X137079153Y-129286000D01*
X136421138Y-129286000D01*
X136312574Y-128756833D01*
X136226371Y-128374665D01*
X136158769Y-128160519D01*
X136109306Y-128114161D01*
X136077520Y-128235358D01*
X136062949Y-128523874D01*
X136061908Y-128629833D01*
X136059334Y-129286000D01*
X135551334Y-129286000D01*
X135551334Y-126153333D01*
X135841664Y-126153333D01*
X136005484Y-126161316D01*
X136102255Y-126211717D01*
X136163584Y-126344219D01*
X136221077Y-126598501D01*
X136229436Y-126640167D01*
X136318061Y-127067331D01*
X136382404Y-127331505D01*
X136426392Y-127436664D01*
X136453952Y-127386786D01*
X136469014Y-127185845D01*
X136475031Y-126888802D01*
X136482667Y-126142604D01*
X136757834Y-126169135D01*
X136757834Y-126169135D01*
G37*
X136757834Y-126169135D02*
X137033000Y-126195667D01*
X137056077Y-127740833D01*
X137079153Y-129286000D01*
X136421138Y-129286000D01*
X136312574Y-128756833D01*
X136226371Y-128374665D01*
X136158769Y-128160519D01*
X136109306Y-128114161D01*
X136077520Y-128235358D01*
X136062949Y-128523874D01*
X136061908Y-128629833D01*
X136059334Y-129286000D01*
X135551334Y-129286000D01*
X135551334Y-126153333D01*
X135841664Y-126153333D01*
X136005484Y-126161316D01*
X136102255Y-126211717D01*
X136163584Y-126344219D01*
X136221077Y-126598501D01*
X136229436Y-126640167D01*
X136318061Y-127067331D01*
X136382404Y-127331505D01*
X136426392Y-127436664D01*
X136453952Y-127386786D01*
X136469014Y-127185845D01*
X136475031Y-126888802D01*
X136482667Y-126142604D01*
X136757834Y-126169135D01*
G36*
X138576384Y-126165213D02*
X138599334Y-126173533D01*
X138610221Y-126270821D01*
X138639778Y-126501517D01*
X138683345Y-126831310D01*
X138736264Y-127225890D01*
X138793876Y-127650946D01*
X138851523Y-128072168D01*
X138904545Y-128455244D01*
X138948285Y-128765864D01*
X138978083Y-128969717D01*
X138984579Y-129010833D01*
X139004869Y-129186216D01*
X138958954Y-129264702D01*
X138804806Y-129285262D01*
X138687837Y-129286000D01*
X138469398Y-129277317D01*
X138371704Y-129223263D01*
X138346199Y-129081826D01*
X138345334Y-128989667D01*
X138314049Y-128763544D01*
X138227392Y-128693333D01*
X138095453Y-128769794D01*
X138018505Y-128973896D01*
X138006667Y-129123591D01*
X137971466Y-129235277D01*
X137836948Y-129280762D01*
X137704241Y-129286000D01*
X137401816Y-129286000D01*
X137462300Y-128799167D01*
X137497523Y-128518731D01*
X137547513Y-128124704D01*
X137552827Y-128083061D01*
X138104129Y-128083061D01*
X138147209Y-128172723D01*
X138197167Y-128185449D01*
X138257812Y-128130326D01*
X138278163Y-127949841D01*
X138267497Y-127698615D01*
X138231995Y-127211667D01*
X138166543Y-127550333D01*
X138111006Y-127884552D01*
X138104129Y-128083061D01*
X137552827Y-128083061D01*
X137605354Y-127671436D01*
X137658893Y-127254000D01*
X137795000Y-126195667D01*
X138197167Y-126169861D01*
X138431409Y-126160384D01*
X138576384Y-126165213D01*
X138576384Y-126165213D01*
G37*
X138576384Y-126165213D02*
X138599334Y-126173533D01*
X138610221Y-126270821D01*
X138639778Y-126501517D01*
X138683345Y-126831310D01*
X138736264Y-127225890D01*
X138793876Y-127650946D01*
X138851523Y-128072168D01*
X138904545Y-128455244D01*
X138948285Y-128765864D01*
X138978083Y-128969717D01*
X138984579Y-129010833D01*
X139004869Y-129186216D01*
X138958954Y-129264702D01*
X138804806Y-129285262D01*
X138687837Y-129286000D01*
X138469398Y-129277317D01*
X138371704Y-129223263D01*
X138346199Y-129081826D01*
X138345334Y-128989667D01*
X138314049Y-128763544D01*
X138227392Y-128693333D01*
X138095453Y-128769794D01*
X138018505Y-128973896D01*
X138006667Y-129123591D01*
X137971466Y-129235277D01*
X137836948Y-129280762D01*
X137704241Y-129286000D01*
X137401816Y-129286000D01*
X137462300Y-128799167D01*
X137497523Y-128518731D01*
X137547513Y-128124704D01*
X137552827Y-128083061D01*
X138104129Y-128083061D01*
X138147209Y-128172723D01*
X138197167Y-128185449D01*
X138257812Y-128130326D01*
X138278163Y-127949841D01*
X138267497Y-127698615D01*
X138231995Y-127211667D01*
X138166543Y-127550333D01*
X138111006Y-127884552D01*
X138104129Y-128083061D01*
X137552827Y-128083061D01*
X137605354Y-127671436D01*
X137658893Y-127254000D01*
X137795000Y-126195667D01*
X138197167Y-126169861D01*
X138431409Y-126160384D01*
X138576384Y-126165213D01*
G36*
X139908600Y-126171620D02*
X140234402Y-126205338D01*
X140503655Y-126256374D01*
X140662720Y-126314274D01*
X140670600Y-126320121D01*
X140738285Y-126422318D01*
X140779160Y-126612468D01*
X140797981Y-126921749D01*
X140800667Y-127172775D01*
X140795226Y-127524308D01*
X140780712Y-127819796D01*
X140759838Y-128011621D01*
X140750834Y-128047345D01*
X140637306Y-128143484D01*
X140408543Y-128218617D01*
X140327501Y-128233217D01*
X139954000Y-128289227D01*
X139954000Y-129286000D01*
X139276667Y-129286000D01*
X139276667Y-127211667D01*
X139954000Y-127211667D01*
X139965963Y-127499249D01*
X139997652Y-127696143D01*
X140038667Y-127762000D01*
X140082910Y-127684242D01*
X140113202Y-127478260D01*
X140123334Y-127211667D01*
X140111371Y-126924084D01*
X140079681Y-126727190D01*
X140038667Y-126661333D01*
X139994423Y-126739091D01*
X139964132Y-126945073D01*
X139954000Y-127211667D01*
X139276667Y-127211667D01*
X139276667Y-126131065D01*
X139908600Y-126171620D01*
X139908600Y-126171620D01*
G37*
X139908600Y-126171620D02*
X140234402Y-126205338D01*
X140503655Y-126256374D01*
X140662720Y-126314274D01*
X140670600Y-126320121D01*
X140738285Y-126422318D01*
X140779160Y-126612468D01*
X140797981Y-126921749D01*
X140800667Y-127172775D01*
X140795226Y-127524308D01*
X140780712Y-127819796D01*
X140759838Y-128011621D01*
X140750834Y-128047345D01*
X140637306Y-128143484D01*
X140408543Y-128218617D01*
X140327501Y-128233217D01*
X139954000Y-128289227D01*
X139954000Y-129286000D01*
X139276667Y-129286000D01*
X139276667Y-127211667D01*
X139954000Y-127211667D01*
X139965963Y-127499249D01*
X139997652Y-127696143D01*
X140038667Y-127762000D01*
X140082910Y-127684242D01*
X140113202Y-127478260D01*
X140123334Y-127211667D01*
X140111371Y-126924084D01*
X140079681Y-126727190D01*
X140038667Y-126661333D01*
X139994423Y-126739091D01*
X139964132Y-126945073D01*
X139954000Y-127211667D01*
X139276667Y-127211667D01*
X139276667Y-126131065D01*
X139908600Y-126171620D01*
G36*
X144652596Y-124454549D02*
X144682060Y-124670819D01*
X144695051Y-124992074D01*
X144695334Y-125052667D01*
X144685431Y-125388099D01*
X144658398Y-125623813D01*
X144618241Y-125727742D01*
X144610667Y-125730000D01*
X144568738Y-125650784D01*
X144539273Y-125434514D01*
X144526282Y-125113259D01*
X144526000Y-125052667D01*
X144535902Y-124717234D01*
X144562936Y-124481520D01*
X144603093Y-124377591D01*
X144610667Y-124375333D01*
X144652596Y-124454549D01*
X144652596Y-124454549D01*
G37*
X144652596Y-124454549D02*
X144682060Y-124670819D01*
X144695051Y-124992074D01*
X144695334Y-125052667D01*
X144685431Y-125388099D01*
X144658398Y-125623813D01*
X144618241Y-125727742D01*
X144610667Y-125730000D01*
X144568738Y-125650784D01*
X144539273Y-125434514D01*
X144526282Y-125113259D01*
X144526000Y-125052667D01*
X144535902Y-124717234D01*
X144562936Y-124481520D01*
X144603093Y-124377591D01*
X144610667Y-124375333D01*
X144652596Y-124454549D01*
G36*
X144320298Y-124705480D02*
X144350953Y-124900175D01*
X144356667Y-125052667D01*
X144341437Y-125294154D01*
X144302498Y-125447431D01*
X144272000Y-125476000D01*
X144223703Y-125399853D01*
X144193047Y-125205158D01*
X144187334Y-125052667D01*
X144202563Y-124811179D01*
X144241502Y-124657902D01*
X144272000Y-124629333D01*
X144320298Y-124705480D01*
X144320298Y-124705480D01*
G37*
X144320298Y-124705480D02*
X144350953Y-124900175D01*
X144356667Y-125052667D01*
X144341437Y-125294154D01*
X144302498Y-125447431D01*
X144272000Y-125476000D01*
X144223703Y-125399853D01*
X144193047Y-125205158D01*
X144187334Y-125052667D01*
X144202563Y-124811179D01*
X144241502Y-124657902D01*
X144272000Y-124629333D01*
X144320298Y-124705480D01*
G36*
X145071532Y-124674653D02*
X145110540Y-124831560D01*
X145118667Y-125052667D01*
X145105071Y-125318885D01*
X145057999Y-125448911D01*
X144991667Y-125476000D01*
X144911801Y-125430680D01*
X144872794Y-125273773D01*
X144864667Y-125052667D01*
X144878263Y-124786448D01*
X144925335Y-124656422D01*
X144991667Y-124629333D01*
X145071532Y-124674653D01*
X145071532Y-124674653D01*
G37*
X145071532Y-124674653D02*
X145110540Y-124831560D01*
X145118667Y-125052667D01*
X145105071Y-125318885D01*
X145057999Y-125448911D01*
X144991667Y-125476000D01*
X144911801Y-125430680D01*
X144872794Y-125273773D01*
X144864667Y-125052667D01*
X144878263Y-124786448D01*
X144925335Y-124656422D01*
X144991667Y-124629333D01*
X145071532Y-124674653D01*
G36*
X143523165Y-124732499D02*
X143595370Y-124826166D01*
X143627036Y-124998354D01*
X143617169Y-125177990D01*
X143564781Y-125294001D01*
X143531167Y-125306673D01*
X143455465Y-125229242D01*
X143425432Y-125018971D01*
X143425334Y-125003278D01*
X143448998Y-124794145D01*
X143515558Y-124730544D01*
X143523165Y-124732499D01*
X143523165Y-124732499D01*
G37*
X143523165Y-124732499D02*
X143595370Y-124826166D01*
X143627036Y-124998354D01*
X143617169Y-125177990D01*
X143564781Y-125294001D01*
X143531167Y-125306673D01*
X143455465Y-125229242D01*
X143425432Y-125018971D01*
X143425334Y-125003278D01*
X143448998Y-124794145D01*
X143515558Y-124730544D01*
X143523165Y-124732499D01*
G36*
X145431160Y-124874395D02*
X145457334Y-125052667D01*
X145419469Y-125254319D01*
X145330334Y-125306667D01*
X145229507Y-125230938D01*
X145203334Y-125052667D01*
X145241198Y-124851014D01*
X145330334Y-124798667D01*
X145431160Y-124874395D01*
X145431160Y-124874395D01*
G37*
X145431160Y-124874395D02*
X145457334Y-125052667D01*
X145419469Y-125254319D01*
X145330334Y-125306667D01*
X145229507Y-125230938D01*
X145203334Y-125052667D01*
X145241198Y-124851014D01*
X145330334Y-124798667D01*
X145431160Y-124874395D01*
G36*
X146492477Y-124921884D02*
X146515667Y-125052667D01*
X146475755Y-125220239D01*
X146409834Y-125285500D01*
X146329545Y-125241442D01*
X146304000Y-125052667D01*
X146331956Y-124858588D01*
X146409834Y-124819833D01*
X146492477Y-124921884D01*
X146492477Y-124921884D01*
G37*
X146492477Y-124921884D02*
X146515667Y-125052667D01*
X146475755Y-125220239D01*
X146409834Y-125285500D01*
X146329545Y-125241442D01*
X146304000Y-125052667D01*
X146331956Y-124858588D01*
X146409834Y-124819833D01*
X146492477Y-124921884D01*
G36*
X143240124Y-124954246D02*
X143256000Y-125052667D01*
X143220544Y-125190247D01*
X143171334Y-125222000D01*
X143102543Y-125151087D01*
X143086667Y-125052667D01*
X143122123Y-124915086D01*
X143171334Y-124883333D01*
X143240124Y-124954246D01*
X143240124Y-124954246D01*
G37*
X143240124Y-124954246D02*
X143256000Y-125052667D01*
X143220544Y-125190247D01*
X143171334Y-125222000D01*
X143102543Y-125151087D01*
X143086667Y-125052667D01*
X143122123Y-124915086D01*
X143171334Y-124883333D01*
X143240124Y-124954246D01*
G36*
X143994428Y-124953919D02*
X144018000Y-125052667D01*
X143965061Y-125190571D01*
X143891000Y-125222000D01*
X143787572Y-125151414D01*
X143764000Y-125052667D01*
X143816940Y-124914762D01*
X143891000Y-124883333D01*
X143994428Y-124953919D01*
X143994428Y-124953919D01*
G37*
X143994428Y-124953919D02*
X144018000Y-125052667D01*
X143965061Y-125190571D01*
X143891000Y-125222000D01*
X143787572Y-125151414D01*
X143764000Y-125052667D01*
X143816940Y-124914762D01*
X143891000Y-124883333D01*
X143994428Y-124953919D01*
G36*
X145780124Y-124954246D02*
X145796000Y-125052667D01*
X145760544Y-125190247D01*
X145711334Y-125222000D01*
X145642543Y-125151087D01*
X145626667Y-125052667D01*
X145662123Y-124915086D01*
X145711334Y-124883333D01*
X145780124Y-124954246D01*
X145780124Y-124954246D01*
G37*
X145780124Y-124954246D02*
X145796000Y-125052667D01*
X145760544Y-125190247D01*
X145711334Y-125222000D01*
X145642543Y-125151087D01*
X145626667Y-125052667D01*
X145662123Y-124915086D01*
X145711334Y-124883333D01*
X145780124Y-124954246D01*
G36*
X146881743Y-124954291D02*
X146896667Y-125052667D01*
X146851990Y-125196737D01*
X146752581Y-125208070D01*
X146685000Y-125137333D01*
X146674590Y-124997229D01*
X146767282Y-124893533D01*
X146816997Y-124883333D01*
X146881743Y-124954291D01*
X146881743Y-124954291D01*
G37*
X146881743Y-124954291D02*
X146896667Y-125052667D01*
X146851990Y-125196737D01*
X146752581Y-125208070D01*
X146685000Y-125137333D01*
X146674590Y-124997229D01*
X146767282Y-124893533D01*
X146816997Y-124883333D01*
X146881743Y-124954291D01*
G36*
X142903005Y-125013717D02*
X142917334Y-125052667D01*
X142848757Y-125127781D01*
X142790334Y-125137333D01*
X142677662Y-125091616D01*
X142663334Y-125052667D01*
X142731910Y-124977552D01*
X142790334Y-124968000D01*
X142903005Y-125013717D01*
X142903005Y-125013717D01*
G37*
X142903005Y-125013717D02*
X142917334Y-125052667D01*
X142848757Y-125127781D01*
X142790334Y-125137333D01*
X142677662Y-125091616D01*
X142663334Y-125052667D01*
X142731910Y-124977552D01*
X142790334Y-124968000D01*
X142903005Y-125013717D01*
G36*
X146132207Y-125032429D02*
X146134667Y-125052667D01*
X146070238Y-125134873D01*
X146050000Y-125137333D01*
X145967794Y-125072904D01*
X145965334Y-125052667D01*
X146029763Y-124970460D01*
X146050000Y-124968000D01*
X146132207Y-125032429D01*
X146132207Y-125032429D01*
G37*
X146132207Y-125032429D02*
X146134667Y-125052667D01*
X146070238Y-125134873D01*
X146050000Y-125137333D01*
X145967794Y-125072904D01*
X145965334Y-125052667D01*
X146029763Y-124970460D01*
X146050000Y-124968000D01*
X146132207Y-125032429D01*
G36*
X145796000Y-131343539D02*
X145476930Y-131472432D01*
X145148721Y-131522933D01*
X144907385Y-131490731D01*
X144848450Y-131448766D01*
X144933735Y-131412962D01*
X145161385Y-131379378D01*
X145457099Y-131339417D01*
X145715403Y-131294883D01*
X145796000Y-131277075D01*
X146007667Y-131223599D01*
X145796000Y-131343539D01*
X145796000Y-131343539D01*
G37*
X145796000Y-131343539D02*
X145476930Y-131472432D01*
X145148721Y-131522933D01*
X144907385Y-131490731D01*
X144848450Y-131448766D01*
X144933735Y-131412962D01*
X145161385Y-131379378D01*
X145457099Y-131339417D01*
X145715403Y-131294883D01*
X145796000Y-131277075D01*
X146007667Y-131223599D01*
X145796000Y-131343539D01*
G36*
X147517378Y-127387506D02*
X147608526Y-127532976D01*
X147669054Y-127782966D01*
X147686558Y-128103778D01*
X147603023Y-128808436D01*
X147394817Y-129464201D01*
X147076061Y-130036101D01*
X146758097Y-130403046D01*
X146307027Y-130723506D01*
X145752722Y-130957056D01*
X145142090Y-131095084D01*
X144522043Y-131128975D01*
X143939489Y-131050116D01*
X143682255Y-130967831D01*
X143206487Y-130701477D01*
X142753934Y-130307245D01*
X142471813Y-129964989D01*
X142663334Y-129964989D01*
X142726614Y-130066146D01*
X142888242Y-130225806D01*
X143105898Y-130408204D01*
X143337260Y-130577573D01*
X143517612Y-130686936D01*
X144045191Y-130871014D01*
X144650748Y-130930506D01*
X145297297Y-130865154D01*
X145872780Y-130703432D01*
X146141938Y-130574317D01*
X146419390Y-130393850D01*
X146674819Y-130189140D01*
X146877910Y-129987296D01*
X146998343Y-129815429D01*
X147005803Y-129700649D01*
X147000707Y-129694840D01*
X146847956Y-129627700D01*
X146576725Y-129581857D01*
X146236840Y-129559972D01*
X145878126Y-129564701D01*
X145550406Y-129598703D01*
X145473262Y-129613341D01*
X145145450Y-129661973D01*
X144843767Y-129645184D01*
X144549814Y-129581067D01*
X144204773Y-129515578D01*
X143888463Y-129496754D01*
X143766264Y-129507673D01*
X143519692Y-129568812D01*
X143239785Y-129663353D01*
X142973184Y-129771958D01*
X142766527Y-129875289D01*
X142666454Y-129954008D01*
X142663334Y-129964989D01*
X142471813Y-129964989D01*
X142357500Y-129826311D01*
X142050089Y-129299853D01*
X141864605Y-128769049D01*
X141852341Y-128704789D01*
X142075672Y-128704789D01*
X142128399Y-128959946D01*
X142172342Y-129089489D01*
X142244893Y-129248031D01*
X142344979Y-129337865D01*
X142508204Y-129366462D01*
X142770174Y-129341294D01*
X143096277Y-129283362D01*
X143420662Y-129224867D01*
X143729826Y-129174837D01*
X143851147Y-129157714D01*
X144111523Y-129117827D01*
X144440242Y-129059158D01*
X144613147Y-129025368D01*
X144937471Y-128964308D01*
X145245719Y-128913876D01*
X145372667Y-128896685D01*
X145644447Y-128855718D01*
X145880667Y-128806114D01*
X146057136Y-128766823D01*
X146139746Y-128758749D01*
X146240401Y-128749765D01*
X146463070Y-128718216D01*
X146762934Y-128670537D01*
X146817079Y-128661506D01*
X147447000Y-128555736D01*
X147472591Y-128116535D01*
X147498183Y-127677333D01*
X147211536Y-127677333D01*
X147000941Y-127692457D01*
X146873693Y-127729270D01*
X146868923Y-127733300D01*
X146750381Y-127780153D01*
X146579645Y-127805552D01*
X146377463Y-127828213D01*
X146075532Y-127871652D01*
X145753667Y-127924037D01*
X145417821Y-127981269D01*
X145116833Y-128031390D01*
X144923786Y-128062308D01*
X144711454Y-128096431D01*
X144408088Y-128147308D01*
X144161786Y-128189647D01*
X143825739Y-128246458D01*
X143509496Y-128297247D01*
X143340667Y-128322521D01*
X143102370Y-128364553D01*
X142925303Y-128410239D01*
X142917334Y-128413193D01*
X142820797Y-128444362D01*
X142692419Y-128467379D01*
X142481204Y-128489639D01*
X142261167Y-128508370D01*
X142118793Y-128561687D01*
X142075672Y-128704789D01*
X141852341Y-128704789D01*
X141845573Y-128669328D01*
X141826229Y-128582568D01*
X141809972Y-128512553D01*
X141812436Y-128454874D01*
X141849252Y-128405122D01*
X141936055Y-128358887D01*
X142088477Y-128311760D01*
X142322152Y-128259333D01*
X142652713Y-128197194D01*
X143095792Y-128120935D01*
X143667024Y-128026148D01*
X144382040Y-127908421D01*
X144771800Y-127843980D01*
X145412077Y-127736970D01*
X145998260Y-127637314D01*
X146509541Y-127548684D01*
X146925111Y-127474751D01*
X147224160Y-127419185D01*
X147385880Y-127385657D01*
X147408040Y-127378915D01*
X147517378Y-127387506D01*
X147517378Y-127387506D01*
G37*
X147517378Y-127387506D02*
X147608526Y-127532976D01*
X147669054Y-127782966D01*
X147686558Y-128103778D01*
X147603023Y-128808436D01*
X147394817Y-129464201D01*
X147076061Y-130036101D01*
X146758097Y-130403046D01*
X146307027Y-130723506D01*
X145752722Y-130957056D01*
X145142090Y-131095084D01*
X144522043Y-131128975D01*
X143939489Y-131050116D01*
X143682255Y-130967831D01*
X143206487Y-130701477D01*
X142753934Y-130307245D01*
X142471813Y-129964989D01*
X142663334Y-129964989D01*
X142726614Y-130066146D01*
X142888242Y-130225806D01*
X143105898Y-130408204D01*
X143337260Y-130577573D01*
X143517612Y-130686936D01*
X144045191Y-130871014D01*
X144650748Y-130930506D01*
X145297297Y-130865154D01*
X145872780Y-130703432D01*
X146141938Y-130574317D01*
X146419390Y-130393850D01*
X146674819Y-130189140D01*
X146877910Y-129987296D01*
X146998343Y-129815429D01*
X147005803Y-129700649D01*
X147000707Y-129694840D01*
X146847956Y-129627700D01*
X146576725Y-129581857D01*
X146236840Y-129559972D01*
X145878126Y-129564701D01*
X145550406Y-129598703D01*
X145473262Y-129613341D01*
X145145450Y-129661973D01*
X144843767Y-129645184D01*
X144549814Y-129581067D01*
X144204773Y-129515578D01*
X143888463Y-129496754D01*
X143766264Y-129507673D01*
X143519692Y-129568812D01*
X143239785Y-129663353D01*
X142973184Y-129771958D01*
X142766527Y-129875289D01*
X142666454Y-129954008D01*
X142663334Y-129964989D01*
X142471813Y-129964989D01*
X142357500Y-129826311D01*
X142050089Y-129299853D01*
X141864605Y-128769049D01*
X141852341Y-128704789D01*
X142075672Y-128704789D01*
X142128399Y-128959946D01*
X142172342Y-129089489D01*
X142244893Y-129248031D01*
X142344979Y-129337865D01*
X142508204Y-129366462D01*
X142770174Y-129341294D01*
X143096277Y-129283362D01*
X143420662Y-129224867D01*
X143729826Y-129174837D01*
X143851147Y-129157714D01*
X144111523Y-129117827D01*
X144440242Y-129059158D01*
X144613147Y-129025368D01*
X144937471Y-128964308D01*
X145245719Y-128913876D01*
X145372667Y-128896685D01*
X145644447Y-128855718D01*
X145880667Y-128806114D01*
X146057136Y-128766823D01*
X146139746Y-128758749D01*
X146240401Y-128749765D01*
X146463070Y-128718216D01*
X146762934Y-128670537D01*
X146817079Y-128661506D01*
X147447000Y-128555736D01*
X147472591Y-128116535D01*
X147498183Y-127677333D01*
X147211536Y-127677333D01*
X147000941Y-127692457D01*
X146873693Y-127729270D01*
X146868923Y-127733300D01*
X146750381Y-127780153D01*
X146579645Y-127805552D01*
X146377463Y-127828213D01*
X146075532Y-127871652D01*
X145753667Y-127924037D01*
X145417821Y-127981269D01*
X145116833Y-128031390D01*
X144923786Y-128062308D01*
X144711454Y-128096431D01*
X144408088Y-128147308D01*
X144161786Y-128189647D01*
X143825739Y-128246458D01*
X143509496Y-128297247D01*
X143340667Y-128322521D01*
X143102370Y-128364553D01*
X142925303Y-128410239D01*
X142917334Y-128413193D01*
X142820797Y-128444362D01*
X142692419Y-128467379D01*
X142481204Y-128489639D01*
X142261167Y-128508370D01*
X142118793Y-128561687D01*
X142075672Y-128704789D01*
X141852341Y-128704789D01*
X141845573Y-128669328D01*
X141826229Y-128582568D01*
X141809972Y-128512553D01*
X141812436Y-128454874D01*
X141849252Y-128405122D01*
X141936055Y-128358887D01*
X142088477Y-128311760D01*
X142322152Y-128259333D01*
X142652713Y-128197194D01*
X143095792Y-128120935D01*
X143667024Y-128026148D01*
X144382040Y-127908421D01*
X144771800Y-127843980D01*
X145412077Y-127736970D01*
X145998260Y-127637314D01*
X146509541Y-127548684D01*
X146925111Y-127474751D01*
X147224160Y-127419185D01*
X147385880Y-127385657D01*
X147408040Y-127378915D01*
X147517378Y-127387506D01*
G36*
X142655545Y-127852185D02*
X142663334Y-127865596D01*
X142591423Y-127917419D01*
X142472834Y-127932581D01*
X142152165Y-128005298D01*
X141877717Y-128191420D01*
X141756084Y-128356335D01*
X141679955Y-128496958D01*
X141652651Y-128491054D01*
X141648582Y-128379131D01*
X141725015Y-128145812D01*
X141932629Y-127957933D01*
X142233975Y-127845512D01*
X142331818Y-127831473D01*
X142540547Y-127826330D01*
X142655545Y-127852185D01*
X142655545Y-127852185D01*
G37*
X142655545Y-127852185D02*
X142663334Y-127865596D01*
X142591423Y-127917419D01*
X142472834Y-127932581D01*
X142152165Y-128005298D01*
X141877717Y-128191420D01*
X141756084Y-128356335D01*
X141679955Y-128496958D01*
X141652651Y-128491054D01*
X141648582Y-128379131D01*
X141725015Y-128145812D01*
X141932629Y-127957933D01*
X142233975Y-127845512D01*
X142331818Y-127831473D01*
X142540547Y-127826330D01*
X142655545Y-127852185D01*
G36*
X147712843Y-127082410D02*
X147940959Y-127273781D01*
X148061411Y-127462386D01*
X148067855Y-127534375D01*
X147974255Y-127484018D01*
X147813146Y-127326202D01*
X147665367Y-127181409D01*
X147524538Y-127114802D01*
X147324577Y-127106513D01*
X147135812Y-127122562D01*
X146891409Y-127145004D01*
X146801759Y-127144288D01*
X146853428Y-127116928D01*
X146968988Y-127079276D01*
X147380748Y-127010435D01*
X147712843Y-127082410D01*
X147712843Y-127082410D01*
G37*
X147712843Y-127082410D02*
X147940959Y-127273781D01*
X148061411Y-127462386D01*
X148067855Y-127534375D01*
X147974255Y-127484018D01*
X147813146Y-127326202D01*
X147665367Y-127181409D01*
X147524538Y-127114802D01*
X147324577Y-127106513D01*
X147135812Y-127122562D01*
X146891409Y-127145004D01*
X146801759Y-127144288D01*
X146853428Y-127116928D01*
X146968988Y-127079276D01*
X147380748Y-127010435D01*
X147712843Y-127082410D01*
D12*
X111593334Y-82427143D02*
X111545715Y-82474762D01*
X111402858Y-82522381D01*
X111307620Y-82522381D01*
X111164762Y-82474762D01*
X111069524Y-82379524D01*
X111021905Y-82284286D01*
X110974286Y-82093810D01*
X110974286Y-81950952D01*
X111021905Y-81760476D01*
X111069524Y-81665238D01*
X111164762Y-81570000D01*
X111307620Y-81522381D01*
X111402858Y-81522381D01*
X111545715Y-81570000D01*
X111593334Y-81617619D01*
X112545715Y-82522381D02*
X111974286Y-82522381D01*
X112260000Y-82522381D02*
X112260000Y-81522381D01*
X112164762Y-81665238D01*
X112069524Y-81760476D01*
X111974286Y-81808095D01*
X110371143Y-85177381D02*
X110466382Y-85177381D01*
X110561620Y-85225000D01*
X110609239Y-85272619D01*
X110656858Y-85367857D01*
X110704477Y-85558333D01*
X110704477Y-85796429D01*
X110656858Y-85986905D01*
X110609239Y-86082143D01*
X110561620Y-86129762D01*
X110466382Y-86177381D01*
X110371143Y-86177381D01*
X110275905Y-86129762D01*
X110228286Y-86082143D01*
X110180667Y-85986905D01*
X110133048Y-85796429D01*
X110133048Y-85558333D01*
X110180667Y-85367857D01*
X110228286Y-85272619D01*
X110275905Y-85225000D01*
X110371143Y-85177381D01*
X111133048Y-86082143D02*
X111180667Y-86129762D01*
X111133048Y-86177381D01*
X111085429Y-86129762D01*
X111133048Y-86082143D01*
X111133048Y-86177381D01*
X112133048Y-86177381D02*
X111561619Y-86177381D01*
X111847333Y-86177381D02*
X111847333Y-85177381D01*
X111752095Y-85320238D01*
X111656857Y-85415476D01*
X111561619Y-85463095D01*
X112990191Y-85510714D02*
X112990191Y-86177381D01*
X112561619Y-85510714D02*
X112561619Y-86034524D01*
X112609238Y-86129762D01*
X112704476Y-86177381D01*
X112847334Y-86177381D01*
X112942572Y-86129762D01*
X112990191Y-86082143D01*
X113799715Y-85653571D02*
X113466381Y-85653571D01*
X113466381Y-86177381D02*
X113466381Y-85177381D01*
X113942572Y-85177381D01*
X111593334Y-87502381D02*
X111260000Y-87026190D01*
X111021905Y-87502381D02*
X111021905Y-86502381D01*
X111402858Y-86502381D01*
X111498096Y-86550000D01*
X111545715Y-86597619D01*
X111593334Y-86692857D01*
X111593334Y-86835714D01*
X111545715Y-86930952D01*
X111498096Y-86978571D01*
X111402858Y-87026190D01*
X111021905Y-87026190D01*
X112545715Y-87502381D02*
X111974286Y-87502381D01*
X112260000Y-87502381D02*
X112260000Y-86502381D01*
X112164762Y-86645238D01*
X112069524Y-86740476D01*
X111974286Y-86788095D01*
X116244762Y-89352381D02*
X115673333Y-89352381D01*
X115959047Y-89352381D02*
X115959047Y-88352381D01*
X115863809Y-88495238D01*
X115768571Y-88590476D01*
X115673333Y-88638095D01*
X116863809Y-88352381D02*
X116959048Y-88352381D01*
X117054286Y-88400000D01*
X117101905Y-88447619D01*
X117149524Y-88542857D01*
X117197143Y-88733333D01*
X117197143Y-88971429D01*
X117149524Y-89161905D01*
X117101905Y-89257143D01*
X117054286Y-89304762D01*
X116959048Y-89352381D01*
X116863809Y-89352381D01*
X116768571Y-89304762D01*
X116720952Y-89257143D01*
X116673333Y-89161905D01*
X116625714Y-88971429D01*
X116625714Y-88733333D01*
X116673333Y-88542857D01*
X116720952Y-88447619D01*
X116768571Y-88400000D01*
X116863809Y-88352381D01*
X117625714Y-89352381D02*
X117625714Y-88352381D01*
X117720952Y-88971429D02*
X118006667Y-89352381D01*
X118006667Y-88685714D02*
X117625714Y-89066667D01*
X140636667Y-53002381D02*
X140636667Y-53716667D01*
X140589047Y-53859524D01*
X140493809Y-53954762D01*
X140350952Y-54002381D01*
X140255714Y-54002381D01*
X141065238Y-53097619D02*
X141112857Y-53050000D01*
X141208095Y-53002381D01*
X141446191Y-53002381D01*
X141541429Y-53050000D01*
X141589048Y-53097619D01*
X141636667Y-53192857D01*
X141636667Y-53288095D01*
X141589048Y-53430952D01*
X141017619Y-54002381D01*
X141636667Y-54002381D01*
X106346667Y-53002381D02*
X106346667Y-53716667D01*
X106299047Y-53859524D01*
X106203809Y-53954762D01*
X106060952Y-54002381D01*
X105965714Y-54002381D01*
X107346667Y-54002381D02*
X106775238Y-54002381D01*
X107060952Y-54002381D02*
X107060952Y-53002381D01*
X106965714Y-53145238D01*
X106870476Y-53240476D01*
X106775238Y-53288095D01*
X125960334Y-83510381D02*
X125484143Y-83510381D01*
X125484143Y-82510381D01*
X126865096Y-83415143D02*
X126817477Y-83462762D01*
X126674620Y-83510381D01*
X126579382Y-83510381D01*
X126436524Y-83462762D01*
X126341286Y-83367524D01*
X126293667Y-83272286D01*
X126246048Y-83081810D01*
X126246048Y-82938952D01*
X126293667Y-82748476D01*
X126341286Y-82653238D01*
X126436524Y-82558000D01*
X126579382Y-82510381D01*
X126674620Y-82510381D01*
X126817477Y-82558000D01*
X126865096Y-82605619D01*
X127293667Y-83510381D02*
X127293667Y-82510381D01*
X127531762Y-82510381D01*
X127674620Y-82558000D01*
X127769858Y-82653238D01*
X127817477Y-82748476D01*
X127865096Y-82938952D01*
X127865096Y-83081810D01*
X127817477Y-83272286D01*
X127769858Y-83367524D01*
X127674620Y-83462762D01*
X127531762Y-83510381D01*
X127293667Y-83510381D01*
X128817477Y-83510381D02*
X128246048Y-83510381D01*
X128531762Y-83510381D02*
X128531762Y-82510381D01*
X128436524Y-82653238D01*
X128341286Y-82748476D01*
X128246048Y-82796095D01*
X126999524Y-58084762D02*
X127142381Y-58132381D01*
X127380477Y-58132381D01*
X127475715Y-58084762D01*
X127523334Y-58037143D01*
X127570953Y-57941905D01*
X127570953Y-57846667D01*
X127523334Y-57751429D01*
X127475715Y-57703810D01*
X127380477Y-57656190D01*
X127190000Y-57608571D01*
X127094762Y-57560952D01*
X127047143Y-57513333D01*
X126999524Y-57418095D01*
X126999524Y-57322857D01*
X127047143Y-57227619D01*
X127094762Y-57180000D01*
X127190000Y-57132381D01*
X127428096Y-57132381D01*
X127570953Y-57180000D01*
X128428096Y-58132381D02*
X128428096Y-57132381D01*
X128428096Y-58084762D02*
X128332858Y-58132381D01*
X128142381Y-58132381D01*
X128047143Y-58084762D01*
X127999524Y-58037143D01*
X127951905Y-57941905D01*
X127951905Y-57656190D01*
X127999524Y-57560952D01*
X128047143Y-57513333D01*
X128142381Y-57465714D01*
X128332858Y-57465714D01*
X128428096Y-57513333D01*
X129332858Y-58132381D02*
X129332858Y-57608571D01*
X129285239Y-57513333D01*
X129190001Y-57465714D01*
X128999524Y-57465714D01*
X128904286Y-57513333D01*
X129332858Y-58084762D02*
X129237620Y-58132381D01*
X128999524Y-58132381D01*
X128904286Y-58084762D01*
X128856667Y-57989524D01*
X128856667Y-57894286D01*
X128904286Y-57799048D01*
X128999524Y-57751429D01*
X129237620Y-57751429D01*
X129332858Y-57703810D01*
X124213809Y-58084762D02*
X124356666Y-58132381D01*
X124594762Y-58132381D01*
X124690000Y-58084762D01*
X124737619Y-58037143D01*
X124785238Y-57941905D01*
X124785238Y-57846667D01*
X124737619Y-57751429D01*
X124690000Y-57703810D01*
X124594762Y-57656190D01*
X124404285Y-57608571D01*
X124309047Y-57560952D01*
X124261428Y-57513333D01*
X124213809Y-57418095D01*
X124213809Y-57322857D01*
X124261428Y-57227619D01*
X124309047Y-57180000D01*
X124404285Y-57132381D01*
X124642381Y-57132381D01*
X124785238Y-57180000D01*
X125642381Y-58084762D02*
X125547143Y-58132381D01*
X125356666Y-58132381D01*
X125261428Y-58084762D01*
X125213809Y-58037143D01*
X125166190Y-57941905D01*
X125166190Y-57656190D01*
X125213809Y-57560952D01*
X125261428Y-57513333D01*
X125356666Y-57465714D01*
X125547143Y-57465714D01*
X125642381Y-57513333D01*
X126213809Y-58132381D02*
X126118571Y-58084762D01*
X126070952Y-57989524D01*
X126070952Y-57132381D01*
X121199524Y-57132381D02*
X121532857Y-58132381D01*
X121866191Y-57132381D01*
X122628096Y-58084762D02*
X122532858Y-58132381D01*
X122342381Y-58132381D01*
X122247143Y-58084762D01*
X122199524Y-58037143D01*
X122151905Y-57941905D01*
X122151905Y-57656190D01*
X122199524Y-57560952D01*
X122247143Y-57513333D01*
X122342381Y-57465714D01*
X122532858Y-57465714D01*
X122628096Y-57513333D01*
X123485239Y-58084762D02*
X123390001Y-58132381D01*
X123199524Y-58132381D01*
X123104286Y-58084762D01*
X123056667Y-58037143D01*
X123009048Y-57941905D01*
X123009048Y-57656190D01*
X123056667Y-57560952D01*
X123104286Y-57513333D01*
X123199524Y-57465714D01*
X123390001Y-57465714D01*
X123485239Y-57513333D01*
X118347143Y-57180000D02*
X118251905Y-57132381D01*
X118109048Y-57132381D01*
X117966190Y-57180000D01*
X117870952Y-57275238D01*
X117823333Y-57370476D01*
X117775714Y-57560952D01*
X117775714Y-57703810D01*
X117823333Y-57894286D01*
X117870952Y-57989524D01*
X117966190Y-58084762D01*
X118109048Y-58132381D01*
X118204286Y-58132381D01*
X118347143Y-58084762D01*
X118394762Y-58037143D01*
X118394762Y-57703810D01*
X118204286Y-57703810D01*
X118823333Y-57465714D02*
X118823333Y-58132381D01*
X118823333Y-57560952D02*
X118870952Y-57513333D01*
X118966190Y-57465714D01*
X119109048Y-57465714D01*
X119204286Y-57513333D01*
X119251905Y-57608571D01*
X119251905Y-58132381D01*
X120156667Y-58132381D02*
X120156667Y-57132381D01*
X120156667Y-58084762D02*
X120061429Y-58132381D01*
X119870952Y-58132381D01*
X119775714Y-58084762D01*
X119728095Y-58037143D01*
X119680476Y-57941905D01*
X119680476Y-57656190D01*
X119728095Y-57560952D01*
X119775714Y-57513333D01*
X119870952Y-57465714D01*
X120061429Y-57465714D01*
X120156667Y-57513333D01*
X131278334Y-84272381D02*
X130945000Y-83796190D01*
X130706905Y-84272381D02*
X130706905Y-83272381D01*
X131087858Y-83272381D01*
X131183096Y-83320000D01*
X131230715Y-83367619D01*
X131278334Y-83462857D01*
X131278334Y-83605714D01*
X131230715Y-83700952D01*
X131183096Y-83748571D01*
X131087858Y-83796190D01*
X130706905Y-83796190D01*
X131659286Y-83367619D02*
X131706905Y-83320000D01*
X131802143Y-83272381D01*
X132040239Y-83272381D01*
X132135477Y-83320000D01*
X132183096Y-83367619D01*
X132230715Y-83462857D01*
X132230715Y-83558095D01*
X132183096Y-83700952D01*
X131611667Y-84272381D01*
X132230715Y-84272381D01*
X140088953Y-84018381D02*
X139517524Y-84018381D01*
X139803238Y-84018381D02*
X139803238Y-83018381D01*
X139708000Y-83161238D01*
X139612762Y-83256476D01*
X139517524Y-83304095D01*
X140517524Y-84018381D02*
X140517524Y-83018381D01*
X140612762Y-83637429D02*
X140898477Y-84018381D01*
X140898477Y-83351714D02*
X140517524Y-83732667D01*
X111593334Y-95012381D02*
X111260000Y-94536190D01*
X111021905Y-95012381D02*
X111021905Y-94012381D01*
X111402858Y-94012381D01*
X111498096Y-94060000D01*
X111545715Y-94107619D01*
X111593334Y-94202857D01*
X111593334Y-94345714D01*
X111545715Y-94440952D01*
X111498096Y-94488571D01*
X111402858Y-94536190D01*
X111021905Y-94536190D01*
X111926667Y-94012381D02*
X112545715Y-94012381D01*
X112212381Y-94393333D01*
X112355239Y-94393333D01*
X112450477Y-94440952D01*
X112498096Y-94488571D01*
X112545715Y-94583810D01*
X112545715Y-94821905D01*
X112498096Y-94917143D01*
X112450477Y-94964762D01*
X112355239Y-95012381D01*
X112069524Y-95012381D01*
X111974286Y-94964762D01*
X111926667Y-94917143D01*
X115554286Y-92162381D02*
X116173334Y-92162381D01*
X115840000Y-92543333D01*
X115982858Y-92543333D01*
X116078096Y-92590952D01*
X116125715Y-92638571D01*
X116173334Y-92733810D01*
X116173334Y-92971905D01*
X116125715Y-93067143D01*
X116078096Y-93114762D01*
X115982858Y-93162381D01*
X115697143Y-93162381D01*
X115601905Y-93114762D01*
X115554286Y-93067143D01*
X116506667Y-92162381D02*
X117125715Y-92162381D01*
X116792381Y-92543333D01*
X116935239Y-92543333D01*
X117030477Y-92590952D01*
X117078096Y-92638571D01*
X117125715Y-92733810D01*
X117125715Y-92971905D01*
X117078096Y-93067143D01*
X117030477Y-93114762D01*
X116935239Y-93162381D01*
X116649524Y-93162381D01*
X116554286Y-93114762D01*
X116506667Y-93067143D01*
X117744762Y-92162381D02*
X117840001Y-92162381D01*
X117935239Y-92210000D01*
X117982858Y-92257619D01*
X118030477Y-92352857D01*
X118078096Y-92543333D01*
X118078096Y-92781429D01*
X118030477Y-92971905D01*
X117982858Y-93067143D01*
X117935239Y-93114762D01*
X117840001Y-93162381D01*
X117744762Y-93162381D01*
X117649524Y-93114762D01*
X117601905Y-93067143D01*
X117554286Y-92971905D01*
X117506667Y-92781429D01*
X117506667Y-92543333D01*
X117554286Y-92352857D01*
X117601905Y-92257619D01*
X117649524Y-92210000D01*
X117744762Y-92162381D01*
X131278334Y-86812381D02*
X130945000Y-86336190D01*
X130706905Y-86812381D02*
X130706905Y-85812381D01*
X131087858Y-85812381D01*
X131183096Y-85860000D01*
X131230715Y-85907619D01*
X131278334Y-86002857D01*
X131278334Y-86145714D01*
X131230715Y-86240952D01*
X131183096Y-86288571D01*
X131087858Y-86336190D01*
X130706905Y-86336190D01*
X132135477Y-86145714D02*
X132135477Y-86812381D01*
X131897381Y-85764762D02*
X131659286Y-86479048D01*
X132278334Y-86479048D01*
X140081096Y-85939381D02*
X139890619Y-85939381D01*
X139795381Y-85987000D01*
X139747762Y-86034619D01*
X139652524Y-86177476D01*
X139604905Y-86367952D01*
X139604905Y-86748905D01*
X139652524Y-86844143D01*
X139700143Y-86891762D01*
X139795381Y-86939381D01*
X139985858Y-86939381D01*
X140081096Y-86891762D01*
X140128715Y-86844143D01*
X140176334Y-86748905D01*
X140176334Y-86510810D01*
X140128715Y-86415571D01*
X140081096Y-86367952D01*
X139985858Y-86320333D01*
X139795381Y-86320333D01*
X139700143Y-86367952D01*
X139652524Y-86415571D01*
X139604905Y-86510810D01*
X140557286Y-86034619D02*
X140604905Y-85987000D01*
X140700143Y-85939381D01*
X140938239Y-85939381D01*
X141033477Y-85987000D01*
X141081096Y-86034619D01*
X141128715Y-86129857D01*
X141128715Y-86225095D01*
X141081096Y-86367952D01*
X140509667Y-86939381D01*
X141128715Y-86939381D01*
X141747762Y-85939381D02*
X141843001Y-85939381D01*
X141938239Y-85987000D01*
X141985858Y-86034619D01*
X142033477Y-86129857D01*
X142081096Y-86320333D01*
X142081096Y-86558429D01*
X142033477Y-86748905D01*
X141985858Y-86844143D01*
X141938239Y-86891762D01*
X141843001Y-86939381D01*
X141747762Y-86939381D01*
X141652524Y-86891762D01*
X141604905Y-86844143D01*
X141557286Y-86748905D01*
X141509667Y-86558429D01*
X141509667Y-86320333D01*
X141557286Y-86129857D01*
X141604905Y-86034619D01*
X141652524Y-85987000D01*
X141747762Y-85939381D01*
X131278334Y-89479381D02*
X130945000Y-89003190D01*
X130706905Y-89479381D02*
X130706905Y-88479381D01*
X131087858Y-88479381D01*
X131183096Y-88527000D01*
X131230715Y-88574619D01*
X131278334Y-88669857D01*
X131278334Y-88812714D01*
X131230715Y-88907952D01*
X131183096Y-88955571D01*
X131087858Y-89003190D01*
X130706905Y-89003190D01*
X132183096Y-88479381D02*
X131706905Y-88479381D01*
X131659286Y-88955571D01*
X131706905Y-88907952D01*
X131802143Y-88860333D01*
X132040239Y-88860333D01*
X132135477Y-88907952D01*
X132183096Y-88955571D01*
X132230715Y-89050810D01*
X132230715Y-89288905D01*
X132183096Y-89384143D01*
X132135477Y-89431762D01*
X132040239Y-89479381D01*
X131802143Y-89479381D01*
X131706905Y-89431762D01*
X131659286Y-89384143D01*
X139517619Y-88352381D02*
X140136667Y-88352381D01*
X139803333Y-88733333D01*
X139946191Y-88733333D01*
X140041429Y-88780952D01*
X140089048Y-88828571D01*
X140136667Y-88923810D01*
X140136667Y-89161905D01*
X140089048Y-89257143D01*
X140041429Y-89304762D01*
X139946191Y-89352381D01*
X139660476Y-89352381D01*
X139565238Y-89304762D01*
X139517619Y-89257143D01*
X140565238Y-89257143D02*
X140612857Y-89304762D01*
X140565238Y-89352381D01*
X140517619Y-89304762D01*
X140565238Y-89257143D01*
X140565238Y-89352381D01*
X140946190Y-88352381D02*
X141565238Y-88352381D01*
X141231904Y-88733333D01*
X141374762Y-88733333D01*
X141470000Y-88780952D01*
X141517619Y-88828571D01*
X141565238Y-88923810D01*
X141565238Y-89161905D01*
X141517619Y-89257143D01*
X141470000Y-89304762D01*
X141374762Y-89352381D01*
X141089047Y-89352381D01*
X140993809Y-89304762D01*
X140946190Y-89257143D01*
X141993809Y-89352381D02*
X141993809Y-88352381D01*
X142089047Y-88971429D02*
X142374762Y-89352381D01*
X142374762Y-88685714D02*
X141993809Y-89066667D01*
X105227381Y-87415666D02*
X104751190Y-87749000D01*
X105227381Y-87987095D02*
X104227381Y-87987095D01*
X104227381Y-87606142D01*
X104275000Y-87510904D01*
X104322619Y-87463285D01*
X104417857Y-87415666D01*
X104560714Y-87415666D01*
X104655952Y-87463285D01*
X104703571Y-87510904D01*
X104751190Y-87606142D01*
X104751190Y-87987095D01*
X104227381Y-86558523D02*
X104227381Y-86749000D01*
X104275000Y-86844238D01*
X104322619Y-86891857D01*
X104465476Y-86987095D01*
X104655952Y-87034714D01*
X105036905Y-87034714D01*
X105132143Y-86987095D01*
X105179762Y-86939476D01*
X105227381Y-86844238D01*
X105227381Y-86653761D01*
X105179762Y-86558523D01*
X105132143Y-86510904D01*
X105036905Y-86463285D01*
X104798810Y-86463285D01*
X104703571Y-86510904D01*
X104655952Y-86558523D01*
X104608333Y-86653761D01*
X104608333Y-86844238D01*
X104655952Y-86939476D01*
X104703571Y-86987095D01*
X104798810Y-87034714D01*
X104322619Y-83875476D02*
X104275000Y-83827857D01*
X104227381Y-83732619D01*
X104227381Y-83494523D01*
X104275000Y-83399285D01*
X104322619Y-83351666D01*
X104417857Y-83304047D01*
X104513095Y-83304047D01*
X104655952Y-83351666D01*
X105227381Y-83923095D01*
X105227381Y-83304047D01*
X105227381Y-82875476D02*
X104227381Y-82875476D01*
X104846429Y-82780238D02*
X105227381Y-82494523D01*
X104560714Y-82494523D02*
X104941667Y-82875476D01*
X128218632Y-94552421D02*
X128353319Y-94485077D01*
X128521678Y-94316718D01*
X128555350Y-94215703D01*
X128555350Y-94148359D01*
X128521678Y-94047344D01*
X128454335Y-93980001D01*
X128353320Y-93946329D01*
X128285976Y-93946329D01*
X128184960Y-93980000D01*
X128016601Y-94081016D01*
X127915586Y-94114688D01*
X127848243Y-94114688D01*
X127747227Y-94081016D01*
X127679884Y-94013673D01*
X127646212Y-93912657D01*
X127646212Y-93845314D01*
X127679884Y-93744299D01*
X127848243Y-93575940D01*
X127982930Y-93508596D01*
X128184960Y-93239222D02*
X129060426Y-93777971D01*
X128690037Y-93138206D01*
X129329800Y-93508596D01*
X128791052Y-92633131D01*
X130137922Y-92700474D02*
X129733861Y-93104535D01*
X129935891Y-92902505D02*
X129228784Y-92195398D01*
X129262456Y-92363757D01*
X129262456Y-92498444D01*
X129228784Y-92599459D01*
X122361431Y-88738992D02*
X122024713Y-89075710D01*
X122327758Y-89446099D01*
X122327758Y-89378755D01*
X122361430Y-89277740D01*
X122529789Y-89109381D01*
X122630804Y-89075709D01*
X122698148Y-89075709D01*
X122799164Y-89109382D01*
X122967522Y-89277740D01*
X123001194Y-89378755D01*
X123001194Y-89446099D01*
X122967522Y-89547114D01*
X122799163Y-89715473D01*
X122698148Y-89749145D01*
X122630804Y-89749145D01*
X122866507Y-88705320D02*
X123472598Y-89042038D01*
X123270568Y-88570633D01*
X123741973Y-88772664D01*
X123405255Y-88166572D01*
X124078690Y-88368603D02*
X124179705Y-88334931D01*
X124314392Y-88200245D01*
X124348064Y-88099229D01*
X124314392Y-87998214D01*
X124280721Y-87964542D01*
X124179706Y-87930870D01*
X124078690Y-87964543D01*
X123977675Y-88065558D01*
X123876659Y-88099229D01*
X123775644Y-88065557D01*
X123741972Y-88031885D01*
X123708300Y-87930870D01*
X123741972Y-87829855D01*
X123842987Y-87728840D01*
X123944003Y-87695167D01*
X124179705Y-87392122D02*
X124785797Y-87728840D01*
X124583766Y-87257434D01*
X125055171Y-87459465D01*
X124718453Y-86853374D01*
X119674426Y-88738993D02*
X119270364Y-89143054D01*
X119472395Y-88941024D02*
X118765288Y-88233917D01*
X118798960Y-88402275D01*
X118798960Y-88536962D01*
X118765288Y-88637978D01*
M02*
